<?xml version="1.0" standalone="no"?>
<!DOCTYPE svg PUBLIC "-//W3C//DTD SVG 1.1//EN" "http://www.w3.org/Graphics/SVG/1.1/DTD/svg11.dtd" >
<svg>
<metadata>
Created by FontForge 20120731 at Fri Apr 27 18:41:18 2018
 By www-data
Copyright (c) 2017  by Dima Group. All rights reserved.
</metadata>
<defs>
<font id="DimaWeb" horiz-adv-x="0" >
  <font-face 
    font-family="Dima Web"
    font-weight="500"
    font-stretch="normal"
    units-per-em="1000"
    panose-1="2 0 4 0 0 0 0 0 0 0"
    ascent="800"
    descent="-200"
    x-height="400"
    cap-height="602"
    bbox="-103 -453 890 896"
    underline-thickness="44"
    underline-position="-368"
    unicode-range="U+0020-FEFC"
  />
<missing-glyph horiz-adv-x="444" 
d="M55 0v590h333v-590h-333zM110 55h223v479h-223v-479z" />
    <glyph glyph-name="uniFC60" unicode="&#x651;&#x64e;" arabic-form="isolated" 
d="M198 641v-36q0 -14 -10 -24q-11 -9 -23 -9q-14 0 -23 9l-1 1v-1q-11 -9 -23 -9q-14 0 -23 9q-10 10 -10 24v36h19v-36q0 -6 4 -10t10 -4t10 4t4 10v36h19v-36q0 -7 4 -10q4 -4 10 -4t9 4q5 3 5 10v36h19zM210 762l-136 -73l-12 20l137 76z" />
    <glyph glyph-name="uniFC61" unicode="&#x651;&#x64f;" arabic-form="isolated" 
d="M207 645v-36q0 -14 -10 -24q-11 -9 -23 -9q-14 0 -23 9l-1 1v-1q-11 -9 -23 -9q-14 0 -23 9q-10 10 -10 24v36h19v-36q0 -6 4 -10t10 -4t10 4t4 10v36h19v-36q0 -7 4 -10q4 -4 10 -4t9 4q5 3 5 10v36h19zM148 781q8 0 14 6t6 14t-6 14t-14 6q-7 0 -13 -6q-7 -7 -7 -14
t7 -14q6 -6 13 -6zM169 768l-63 -36l-9 16l32 19q-6 4 -8 6q-11 11 -11 28t11 28t27 11q17 0 28 -11t11 -28q0 -15 -11 -28q-1 -1 -7 -5z" />
    <glyph glyph-name="uE818" unicode="&#x651;&#x64b;" 
d="M189 658v-36q0 -14 -10 -24q-11 -9 -23 -9q-14 0 -23 9l-1 1v-1q-11 -9 -23 -9q-14 0 -23 9q-10 10 -10 24v36h19v-36q0 -6 4 -10t10 -4t10 4t4 10v36h19v-36q0 -7 4 -10q4 -4 10 -4t9 4q5 3 5 10v36h19zM210 836l-137 -75l-12 23l137 75zM209 786l-136 -74l-12 21
l137 75z" />
    <glyph glyph-name="uniFC5E" unicode="&#x651;&#x64c;" arabic-form="isolated" 
d="M202 655v-36q0 -14 -10 -24q-11 -9 -23 -9q-14 0 -23 9l-1 1v-1q-11 -9 -23 -9q-14 0 -23 9q-10 10 -10 24v36h19v-36q0 -6 4 -10t10 -4t10 4t4 10v36h19v-36q0 -7 4 -10q4 -4 10 -4t9 4q5 3 5 10v36h19zM238 841q0 -39 -20 -51l-124 -65l-12 21q22 14 26 22q0 16 -19 16
q-12 0 -21 -5l-8 14q24 10 37 10q24 0 30 -35l34 19q-35 20 -35 50q0 39 38 54q14 5 17 5q22 0 39.5 -15.5t17.5 -39.5zM219 841q0 15 -12 24.5t-26 9.5q-36 0 -36 -37q0 -34 38 -34q12 0 24 12.5t12 24.5z" />
    <glyph glyph-name="uniFC62" unicode="&#x651;&#x650;" arabic-form="isolated" 
d="M193 772v-36q0 -14 -10 -24q-11 -9 -23 -9q-14 0 -23 9l-1 1v-1q-11 -9 -23 -9q-14 0 -23 9q-10 10 -10 24v36h19v-36q0 -6 4 -10t10 -4t10 4t4 10v36h19v-36q0 -7 4 -10q4 -4 10 -4t9 4q5 3 5 10v36h19zM187 653l-97 -56l-10 16l98 56z" />
    <glyph glyph-name="uniFC5F" unicode="&#x651;&#x64d;" arabic-form="isolated" 
d="M198 841v-36q0 -14 -10 -24q-11 -9 -23 -9q-14 0 -23 9l-1 1v-1q-11 -9 -23 -9q-14 0 -23 9q-10 10 -10 24v36h19v-36q0 -6 4 -10t10 -4t10 4t4 10v36h19v-36q0 -7 4 -10q4 -4 10 -4t9 4q5 3 5 10v36h19zM204 724l-136 -73l-12 20l136 75zM204 662l-136 -74l-12 21
l136 76z" />
    <glyph glyph-name="uniFEF5" unicode="&#xfedf;&#xfe82;" horiz-adv-x="333" arabic-form="isolated" 
d="M300 462v-318q0 -30 -11 -56t-31 -46t-46 -31t-56 -11q-29 0 -55 11t-46 31t-31.5 46t-11.5 56h1l-1 318h76v-318q0 -29 21 -48q9 -9 21 -14.5t26 -5.5t26.5 5.5t21.5 14.5q20 20 20 48v318h76zM-51 405v66q0 28 21 51q20 20 50 20h131v-38h-131q-13 0 -23 -10t-10 -23
v-66h-38z" />
    <glyph glyph-name="uniFEF6" unicode="&#xfee0;&#xfe82;" horiz-adv-x="390" arabic-form="final" 
d="M-48 405v66q0 28 21 51q20 20 50 20h131v-38h-131q-13 0 -23 -10t-10 -23v-66h-38zM394 1h-24q-29 0 -55 11t-46 31q-1 1 -2 1.5t-2 2.5q-1 -2 -4 -5q-20 -20 -46 -31t-56 -11t-56 11t-46 31t-31 46t-11 56v318h76v-318q0 -14 5.5 -26.5t14.5 -21.5t21.5 -14.5t26.5 -5.5
t26.5 5.5t21.5 14.5q18 18 20 45v321h76v-320q2 -28 20 -45q20 -20 47 -20h24v-76z" />
    <glyph glyph-name="uniFEF7" unicode="&#xfedf;&#xfe84;" horiz-adv-x="335" arabic-form="isolated" 
d="M123 543l-105 -53l-9 17l36 21q-32 16 -32 47q0 22 15 37.5t36 15.5q11 0 30 -9l-8 -15q-8 6 -23 6q-30 0 -30 -36q0 -30 29 -30q22 0 54 18zM300 462v-318q0 -30 -11 -56t-31 -46t-46 -31t-56 -11q-29 0 -55 11t-46 31t-31.5 46t-11.5 56h1l-1 318h76v-318q0 -29 21 -48
q9 -9 21 -14.5t26 -5.5t26.5 5.5t21.5 14.5q20 20 20 48v318h76z" />
    <glyph glyph-name="uniFEF8" unicode="&#xfee0;&#xfe84;" horiz-adv-x="388" arabic-form="final" 
d="M135 611l-107 -52l-9 16l36 22q-32 15 -32 49q0 20 15 35t36 15q11 0 30 -8l-7 -16q-9 7 -24 7q-30 0 -30 -35q0 -32 29 -32q24 0 53 19zM394 1h-24q-29 0 -55 11t-46 31q-1 1 -2 1.5t-2 2.5q-1 -2 -4 -5q-20 -20 -46 -31t-56 -11t-56 11t-46 31t-31 46t-11 56v318h76
v-318q0 -14 5.5 -26.5t14.5 -21.5t21.5 -14.5t26.5 -5.5t26.5 5.5t21.5 14.5q18 18 20 45v321h76v-320q2 -28 20 -45q20 -20 47 -20h24v-76z" />
    <glyph glyph-name="uniFEF9" unicode="&#xfedf;&#xfe88;" horiz-adv-x="326" arabic-form="isolated" 
d="M142 -97l-106 -54l-9 17l36 21q-31 16 -31 49q0 20 14.5 35t35.5 15q12 0 31 -7l-8 -17q-9 7 -24 7q-29 0 -29 -35q0 -31 28 -31q23 0 54 19zM300 462v-318q0 -30 -11 -56t-31 -46t-46 -31t-56 -11q-29 0 -55 11t-46 31t-31.5 46t-11.5 56h1l-1 318h76v-318q0 -29 21 -48
q9 -9 21 -14.5t26 -5.5t26.5 5.5t21.5 14.5q20 20 20 48v318h76z" />
    <glyph glyph-name="uniFEFA" unicode="&#xfee0;&#xfe88;" horiz-adv-x="388" arabic-form="final" 
d="M160 -141l-107 -52l-8 16l36 22q-32 16 -32 47q0 21 15 36.5t37 15.5q8 0 28 -8l-6 -16q-11 7 -24 7q-31 0 -31 -36q0 -30 30 -30q23 0 51 18zM394 1h-24q-29 0 -55 11t-46 31q-1 1 -2 1.5t-2 2.5q-1 -2 -4 -5q-20 -20 -46 -31t-56 -11t-56 11t-46 31t-31 46t-11 56v318
h76v-318q0 -14 5.5 -26.5t14.5 -21.5t21.5 -14.5t26.5 -5.5t26.5 5.5t21.5 14.5q18 18 20 45v321h76v-320q2 -28 20 -45q20 -20 47 -20h24v-76z" />
    <glyph glyph-name="uniFEFB" unicode="&#xfedf;&#xfe8e;" horiz-adv-x="321" arabic-form="isolated" 
d="M300 462v-318q0 -30 -11 -56t-31 -46t-46 -31t-56 -11q-29 0 -55 11t-46 31t-31.5 46t-11.5 56h1l-1 318h76v-318q0 -29 21 -48q9 -9 21 -14.5t26 -5.5t26.5 5.5t21.5 14.5q20 20 20 48v318h76z" />
    <glyph glyph-name="uniFEFC" unicode="&#xfee0;&#xfe8e;" horiz-adv-x="383" arabic-form="final" 
d="M394 1h-24q-29 0 -55 11t-46 31q-1 1 -2 1.5t-2 2.5q-1 -2 -4 -5q-20 -20 -46 -31t-56 -11t-56 11t-46 31t-31 46t-11 56v318h76v-318q0 -14 5.5 -26.5t14.5 -21.5t21.5 -14.5t26.5 -5.5t26.5 5.5t21.5 14.5q18 18 20 45v321h76v-320q2 -28 20 -45q20 -20 47 -20h24v-76z
" />
    <glyph glyph-name="uniFDF2" unicode="&#xfedf;&#xfee0;&#xfeea;" horiz-adv-x="762" arabic-form="isolated" 
d="M304 145q0 -30 20 -48q20 -20 47 -20q14 0 26.5 5.5t21.5 14.5q18 17 20 45v315h76v-316q0 -13 5.5 -24.5t14.5 -20.5q20 -20 48 -20q14 0 26 5.5t21 14.5q20 18 20 48h1v312h75v-312q0 -62 -42 -102q-20 -20 -46 -31t-55 -11q-30 0 -56 11t-46 31q-2 1 -4 5l-4 -4
q-20 -20 -46 -31t-55 -11h-25v1q-47 9 -77 41q-2 1 -5 4q-1 -1 -2 -1.5t-2 -1.5q-40 -42 -101 -42q-62 0 -102 42q-20 20 -31.5 46t-11.5 55q0 30 11.5 56t31.5 46t46 31t56 11h144v-144zM160 78q29 0 47 20q20 18 20 47l1 68h-68q-30 0 -48 -20q-9 -9 -14.5 -21.5
t-5.5 -26.5t5.5 -26t14.5 -21q18 -20 48 -20zM538 567v-36q0 -14 -10 -24q-11 -9 -23 -9q-14 0 -23 9l-1 1v-1q-11 -9 -23 -9q-14 0 -23 9q-10 10 -10 24v36h19v-36q0 -6 4 -10t10 -4t10 4t4 10v36h19v-36q0 -7 4 -10q4 -4 10 -4t9 4q5 3 5 10v36h19z" />
    <glyph glyph-name="uni0622" unicode="&#x622;" horiz-adv-x="290" arabic-form="isolated" 
d="M32 405v66q0 28 21 51q20 20 50 20h131v-38h-131q-13 0 -23 -10t-10 -23v-66h-38zM184 456v-456h-76v456h76z" />
    <glyph glyph-name="uniFE82" unicode="&#x622;" horiz-adv-x="236" arabic-form="final" 
d="M32 405v66q0 28 21 51q20 20 50 20h131v-38h-131q-13 0 -23 -10t-10 -23v-66h-38zM240 0q-30 0 -56 11t-46 31t-31 46t-11 56v318h76v-318q0 -14 5.5 -26.5t14.5 -21.5q10 -9 22 -14.5t26 -5.5v-76z" />
    <glyph glyph-name="uni0623" unicode="&#x623;" horiz-adv-x="249" arabic-form="isolated" 
d="M170 532l-109 -54l-8 17l37 21q-34 17 -34 47q0 21 16 37t37 16q9 0 28 -8l-6 -16q-10 6 -23 6q-31 0 -31 -37q0 -28 29 -28q24 0 52 18zM155 456v-456h-76v456h76z" />
    <glyph glyph-name="uniFE84" unicode="&#x623;" horiz-adv-x="165" arabic-form="final" 
d="M148 600l-105 -54l-9 17l36 21q-32 17 -32 47q0 21 15 37.5t36 16.5q11 0 30 -10l-8 -15q-8 6 -22 6q-31 0 -31 -36q0 -29 29 -29q23 0 54 17zM167 0q-30 0 -56 11t-46 31t-31 46t-11 56v318h76v-318q0 -14 5.5 -26.5t14.5 -21.5q10 -9 22 -14.5t26 -5.5v-76z" />
    <glyph glyph-name="uni0624" unicode="&#x624;" horiz-adv-x="387" arabic-form="isolated" 
d="M196 387l-131 -68l-11 22l45 25q-40 21 -40 57q0 27 17.5 46.5t45.5 19.5q10 0 38 -10l-12 -20q-9 8 -22 8q-19 0 -31 -13t-12 -31q0 -35 34 -35q25 0 68 22zM54 -108h134q28 0 47 19q20 20 20 48v41h-68q-30 0 -56 11t-46 31t-31 46t-11 56q0 29 11 55.5t31 45.5
q20 20 46 31.5t56 11.5t56 -11.5t46 -31.5q20 -19 31 -45.5t11 -55.5v-79h1v-106q0 -29 -11.5 -55t-31.5 -46t-46 -31.5t-55 -11.5h-134v77zM187 212q-27 0 -48 -21q-19 -19 -19 -47q0 -29 19 -48q10 -9 22 -14.5t26 -5.5h68v68q0 27 -20 47q-19 21 -48 21z" />
    <glyph glyph-name="uniFE86" unicode="&#x624;" horiz-adv-x="335" arabic-form="final" 
d="M209 387l-131 -68l-11 22l44 25q-38 21 -38 57q0 28 17 47t46 19q10 0 37 -10l-10 -20q-14 8 -21 8q-19 0 -31.5 -13t-12.5 -31q0 -36 33 -36q26 0 69 22zM167 77h68v68q0 27 -20 47t-48 20t-48 -20q-9 -9 -14.5 -21t-5.5 -26t5.5 -26.5t14.5 -21.5q10 -9 22 -14.5
t26 -5.5zM348 1h-37v-41q0 -29 -11 -55.5t-31 -45.5q-20 -20 -46 -31.5t-56 -11.5h-134v76h134q29 0 48 21q20 20 20 47v41h-68q-30 0 -56 11t-45 31q-20 20 -31.5 46t-11.5 56q0 29 11.5 55t31.5 46q19 20 45 31.5t56 11.5t56 -11.5t46 -31.5t31 -46t11 -55v-68h37v-76z
" />
    <glyph glyph-name="uni0625" unicode="&#x625;" horiz-adv-x="249" arabic-form="isolated" 
d="M194 -149l-106 -54l-9 17l36 21q-32 17 -32 48q0 21 14.5 36t36.5 15q11 0 30 -7l-8 -17q-9 6 -23 6q-29 0 -29 -35q0 -29 28 -29q23 0 53 18zM162 456v-456h-76v456h76z" />
    <glyph glyph-name="uniFE88" unicode="&#x625;" horiz-adv-x="161" arabic-form="final" 
d="M138 -104l-107 -54l-9 18l37 20q-33 17 -33 48q0 22 15 37.5t37 15.5q11 0 30 -10l-9 -15q-7 6 -22 6q-31 0 -31 -36q0 -29 30 -29q22 0 53 17zM167 0q-30 0 -56 11t-46 31t-31 46t-11 56v318h76v-318q0 -14 5.5 -26.5t14.5 -21.5q10 -9 22 -14.5t26 -5.5v-76z" />
    <glyph glyph-name="uni0626" unicode="&#x626;" horiz-adv-x="559" arabic-form="isolated" 
d="M192 338l-131 -67l-11 21l45 24q-39 23 -39 57q0 28 16.5 47.5t45.5 19.5q11 0 37 -9l-9 -21q-14 7 -24 7q-18 0 -30.5 -12.5t-12.5 -31.5q0 -34 32 -34q29 0 72 21zM531 4q0 -90 -51 -145q-53 -56 -140 -56h-120q-82 0 -135 60q-51 58 -51 141v161h73v-170q0 -53 39 -85
q36 -31 88 -31h101q43 0 81 31q40 31 40 73q0 38 -27 46q-24 8 -154 9v133q0 59 39.5 100t98.5 41h94l3 -73h-93q-47 0 -61 -45q-7 -23 -7 -83q114 -2 141 -18q41 -23 41 -89z" />
    <glyph glyph-name="uniFE8A" unicode="&#x626;" horiz-adv-x="559" arabic-form="final" 
d="M195 339l-132 -67l-11 22l46 25q-40 21 -40 56q0 27 17.5 47t45.5 20q16 0 37 -9l-10 -21q-11 7 -23 7q-19 0 -31 -12.5t-12 -31.5q0 -35 34 -35q25 0 68 22zM572 0h-73q4 -13 4 -38q0 -69 -51 -114q-50 -45 -120 -45h-120q-94 0 -146 68q-47 60 -47 157v139h78v-170
q0 -56 39 -87q35 -29 93 -29h100q41 0 68 22q30 25 30 66q0 19 -24 23q-25 6 -139 8l-6 78h314v-78z" />
    <glyph glyph-name="uniFE8B" unicode="&#x626;" horiz-adv-x="264" arabic-form="initial" 
d="M193 335l-131 -66l-11 21l45 24q-40 23 -40 58q0 27 18 46.5t45 19.5q10 0 37 -9l-10 -22q-11 10 -23 10q-43 0 -43 -45q0 -34 34 -34q26 0 69 21zM241 288v-144q0 -30 -11 -56t-31 -46t-46 -31t-56 -11h-107v76h107q14 0 26.5 5.5t21.5 14.5q20 20 20 48v144h76z" />
    <glyph glyph-name="uniFE8C" unicode="&#x626;" horiz-adv-x="305" arabic-form="medial" 
d="M190 339l-130 -68l-11 22l44 25q-39 21 -39 56q0 27 17.5 47.5t45.5 20.5q11 0 37 -10l-9 -21q-13 7 -23 7q-18 0 -31 -12.5t-13 -31.5q0 -35 33 -35q26 0 70 22zM-10 76h60q14 0 26 5.5t21 14.5q21 19 21 48v82h76v-82q0 -14 5.5 -26.5t14.5 -21.5q20 -20 47 -20h52v-76
h-52q-29 0 -55 11t-46 31q-2 1 -2.5 2t-1.5 2l-4 -4q-20 -20 -46.5 -31t-55.5 -11h-60v76z" />
    <glyph glyph-name="uni0627" unicode="&#x627;" horiz-adv-x="249" arabic-form="isolated" 
d="M159 456v-456h-76v456h76z" />
    <glyph glyph-name="uniFE8E" unicode="&#x627;" horiz-adv-x="163" arabic-form="final" 
d="M167 0q-30 0 -56 11t-46 31t-31 46t-11 56v318h76v-318q0 -14 5.5 -26.5t14.5 -21.5q10 -9 22 -14.5t26 -5.5v-76z" />
    <glyph glyph-name="uni0628" unicode="&#x628;" horiz-adv-x="768" arabic-form="isolated" 
d="M394 -80q20 0 35 -14.5t15 -34.5t-15 -34.5t-35 -14.5t-34.5 14.5t-14.5 34.5t14.5 34.5t34.5 14.5zM731 288l-1 -144h1q0 -30 -11.5 -56t-31.5 -46t-46 -31t-55 -11h-395q-30 0 -56 11t-46 31t-31 46t-11 56v82h76v-82h1q0 -29 19 -48q10 -9 22 -14.5t26 -5.5h395
q14 0 26 5.5t21 14.5q20 18 20 48v144h77z" />
    <glyph glyph-name="uniFE90" unicode="&#x628;" horiz-adv-x="774" arabic-form="final" 
d="M660 46q-2 -1 -2.5 -2t-2.5 -2q-20 -20 -46 -31t-55 -11h-395q-30 0 -56 11t-46 31t-31 46t-11 56v82h76v-82h1q0 -29 19 -48q10 -9 22 -14.5t26 -5.5h395q14 0 26 5.5t21 14.5q20 18 20 48h1l-1 82h77v-82q0 -30 20 -48q20 -20 47 -20h24v-76h-24q-29 0 -55.5 11
t-46.5 31q-1 1 -1.5 2t-1.5 2zM362 -70q20 0 35 -14.5t15 -34.5t-15 -34.5t-35 -14.5t-34.5 14.5t-14.5 34.5t14.5 34.5t34.5 14.5z" />
    <glyph glyph-name="uniFE91" unicode="&#x628;" horiz-adv-x="254" arabic-form="initial" 
d="M241 288v-144q0 -30 -11 -56t-31 -46t-46 -31t-56 -11h-107v76h107q14 0 26.5 5.5t21.5 14.5q20 20 20 48v144h76zM136 -60q20 0 35 -14.5t15 -34.5t-15 -34.5t-35 -14.5t-34.5 14.5t-14.5 34.5t14.5 34.5t34.5 14.5z" />
    <glyph glyph-name="uniFE92" unicode="&#x628;" horiz-adv-x="305" arabic-form="medial" 
d="M-10 76h60q14 0 26 5.5t21 14.5q21 19 21 48v82h76v-82q0 -14 5.5 -26.5t14.5 -21.5q20 -20 47 -20h52v-76h-52q-29 0 -55 11t-46 31q-2 1 -2.5 2t-1.5 2l-4 -4q-20 -20 -46.5 -31t-55.5 -11h-60v76zM156 -53q20 0 35 -14.5t15 -34.5t-15 -34.5t-35 -14.5t-34.5 14.5
t-14.5 34.5t14.5 34.5t34.5 14.5z" />
    <glyph glyph-name="uni067E" unicode="&#x67e;" horiz-adv-x="764" arabic-form="isolated" 
d="M453 -42q20 0 35 -14.5t15 -34.5t-15 -34.5t-35 -14.5t-34.5 14.5t-14.5 34.5t14.5 34.5t34.5 14.5zM731 288l-1 -144h1q0 -30 -11.5 -56t-31.5 -46t-46 -31t-55 -11h-395q-30 0 -56 11t-46 31t-31 46t-11 56v82h76v-82h1q0 -29 19 -48q10 -9 22 -14.5t26 -5.5h395
q14 0 26 5.5t21 14.5q20 18 20 48v144h77zM335 -42q20 0 35 -14.5t15 -34.5t-15 -34.5t-35 -14.5t-34.5 14.5t-14.5 34.5t14.5 34.5t34.5 14.5zM398 -148q20 0 35 -14.5t15 -34.5t-15 -34.5t-35 -14.5t-34.5 14.5t-14.5 34.5t14.5 34.5t34.5 14.5z" />
    <glyph glyph-name="uniFB57" unicode="&#x67e;" horiz-adv-x="772" arabic-form="final" 
d="M660 46q-2 -1 -2.5 -2t-2.5 -2q-20 -20 -46 -31t-55 -11h-395q-30 0 -56 11t-46 31t-31 46t-11 56v82h76v-82h1q0 -29 19 -48q10 -9 22 -14.5t26 -5.5h395q14 0 26 5.5t21 14.5q20 18 20 48h1l-1 82h77v-82q0 -30 20 -48q20 -20 47 -20h24v-76h-24q-29 0 -55.5 11
t-46.5 31q-1 1 -1.5 2t-1.5 2zM453 -42q20 0 35 -14.5t15 -34.5t-15 -34.5t-35 -14.5t-34.5 14.5t-14.5 34.5t14.5 34.5t34.5 14.5zM335 -42q20 0 35 -14.5t15 -34.5t-15 -34.5t-35 -14.5t-34.5 14.5t-14.5 34.5t14.5 34.5t34.5 14.5zM398 -148q20 0 35 -14.5t15 -34.5
t-15 -34.5t-35 -14.5t-34.5 14.5t-14.5 34.5t14.5 34.5t34.5 14.5z" />
    <glyph glyph-name="uniFB58" unicode="&#x67e;" horiz-adv-x="305" arabic-form="initial" 
d="M269 127q0 -51 -29 -88q-32 -39 -82 -39h-168v78h144q32 0 44 13t12 47v107h79v-118zM260 -136q0 -42 -51 -42q-54 0 -54 42q0 21 14.5 34.5t34.5 13.5q56 0 56 -48zM109 -136q0 -42 -49 -42q-54 0 -54 42q0 21 13.5 34.5t35.5 13.5q54 0 54 -48zM183 -246q0 -42 -52 -42
q-54 0 -54 42q0 47 49 47q22 0 38 -11q19 -14 19 -36z" />
    <glyph glyph-name="uniFB59" unicode="&#x67e;" horiz-adv-x="304" arabic-form="medial" 
d="M-10 76h60q14 0 26 5.5t21 14.5q21 19 21 48v82h76v-82q0 -14 5.5 -26.5t14.5 -21.5q20 -20 47 -20h52v-76h-52q-29 0 -55 11t-46 31q-2 1 -2.5 2t-1.5 2l-4 -4q-20 -20 -46.5 -31t-55.5 -11h-60v76zM211 -33q20 0 35 -14.5t15 -34.5t-15 -34.5t-35 -14.5t-34.5 14.5
t-14.5 34.5t14.5 34.5t34.5 14.5zM93 -33q20 0 35 -14.5t15 -34.5t-15 -34.5t-35 -14.5t-34.5 14.5t-14.5 34.5t14.5 34.5t34.5 14.5zM156 -141q20 0 35 -14.5t15 -34.5t-15 -34.5t-35 -14.5t-34.5 14.5t-14.5 34.5t14.5 34.5t34.5 14.5z" />
    <glyph glyph-name="uni062A" unicode="&#x62a;" horiz-adv-x="755" arabic-form="isolated" 
d="M453 320q20 0 35 -14.5t15 -34.5t-15 -34.5t-35 -14.5t-34.5 14.5t-14.5 34.5t14.5 34.5t34.5 14.5zM731 288l-1 -144h1q0 -30 -11.5 -56t-31.5 -46t-46 -31t-55 -11h-395q-30 0 -56 11t-46 31t-31 46t-11 56v82h76v-82h1q0 -29 19 -48q10 -9 22 -14.5t26 -5.5h395
q14 0 26 5.5t21 14.5q20 18 20 48v144h77zM335 320q20 0 35 -14.5t15 -34.5t-15 -34.5t-35 -14.5t-34.5 14.5t-14.5 34.5t14.5 34.5t34.5 14.5z" />
    <glyph glyph-name="uniFE96" unicode="&#x62a;" horiz-adv-x="777" arabic-form="final" 
d="M660 46q-2 -1 -2.5 -2t-2.5 -2q-20 -20 -46 -31t-55 -11h-395q-30 0 -56 11t-46 31t-31 46t-11 56v82h76v-82h1q0 -29 19 -48q10 -9 22 -14.5t26 -5.5h395q14 0 26 5.5t21 14.5q20 18 20 48h1l-1 82h77v-82q0 -30 20 -48q20 -20 47 -20h24v-76h-24q-29 0 -55.5 11
t-46.5 31q-1 1 -1.5 2t-1.5 2zM408 306q20 0 35 -14.5t15 -34.5t-15 -34.5t-35 -14.5t-34.5 14.5t-14.5 34.5t14.5 34.5t34.5 14.5zM290 306q20 0 35 -14.5t15 -34.5t-15 -34.5t-35 -14.5t-34.5 14.5t-14.5 34.5t14.5 34.5t34.5 14.5z" />
    <glyph glyph-name="uniFE97" unicode="&#x62a;" horiz-adv-x="295" arabic-form="initial" 
d="M241 288v-144q0 -30 -11 -56t-31 -46t-46 -31t-56 -11h-107v76h107q14 0 26.5 5.5t21.5 14.5q20 20 20 48v144h76zM191 415q20 0 35 -14.5t15 -34.5t-15 -34.5t-35 -14.5t-34.5 14.5t-14.5 34.5t14.5 34.5t34.5 14.5zM73 415q20 0 35 -14.5t15 -34.5t-15 -34.5t-35 -14.5
t-34.5 14.5t-14.5 34.5t14.5 34.5t34.5 14.5z" />
    <glyph glyph-name="uniFE98" unicode="&#x62a;" horiz-adv-x="305" arabic-form="medial" 
d="M-10 76h60q14 0 26 5.5t21 14.5q21 19 21 48v82h76v-82q0 -14 5.5 -26.5t14.5 -21.5q20 -20 47 -20h52v-76h-52q-29 0 -55 11t-46 31q-2 1 -2.5 2t-1.5 2l-4 -4q-20 -20 -46.5 -31t-55.5 -11h-60v76zM211 380q20 0 35 -14.5t15 -34.5t-15 -34.5t-35 -14.5t-34.5 14.5
t-14.5 34.5t14.5 34.5t34.5 14.5zM93 380q20 0 35 -14.5t15 -34.5t-15 -34.5t-35 -14.5t-34.5 14.5t-14.5 34.5t14.5 34.5t34.5 14.5z" />
    <glyph glyph-name="uni062B" unicode="&#x62b;" horiz-adv-x="761" arabic-form="isolated" 
d="M453 320q20 0 35 -14.5t15 -34.5t-15 -34.5t-35 -14.5t-34.5 14.5t-14.5 34.5t14.5 34.5t34.5 14.5zM731 288l-1 -144h1q0 -30 -11.5 -56t-31.5 -46t-46 -31t-55 -11h-395q-30 0 -56 11t-46 31t-31 46t-11 56v82h76v-82h1q0 -29 19 -48q10 -9 22 -14.5t26 -5.5h395
q14 0 26 5.5t21 14.5q20 18 20 48v144h77zM335 320q20 0 35 -14.5t15 -34.5t-15 -34.5t-35 -14.5t-34.5 14.5t-14.5 34.5t14.5 34.5t34.5 14.5zM398 426q20 0 35 -14.5t15 -34.5t-15 -34.5t-35 -14.5t-34.5 14.5t-14.5 34.5t14.5 34.5t34.5 14.5z" />
    <glyph glyph-name="uniFE9A" unicode="&#x62b;" horiz-adv-x="779" arabic-form="final" 
d="M660 46q-2 -1 -2.5 -2t-2.5 -2q-20 -20 -46 -31t-55 -11h-395q-30 0 -56 11t-46 31t-31 46t-11 56v82h76v-82h1q0 -29 19 -48q10 -9 22 -14.5t26 -5.5h395q14 0 26 5.5t21 14.5q20 18 20 48h1l-1 82h77v-82q0 -30 20 -48q20 -20 47 -20h24v-76h-24q-29 0 -55.5 11
t-46.5 31q-1 1 -1.5 2t-1.5 2zM410 296q20 0 35 -14.5t15 -34.5t-15 -34.5t-35 -14.5t-34.5 14.5t-14.5 34.5t14.5 34.5t34.5 14.5zM292 296q20 0 35 -14.5t15 -34.5t-15 -34.5t-35 -14.5t-34.5 14.5t-14.5 34.5t14.5 34.5t34.5 14.5zM355 407q20 0 35 -14.5t15 -34.5
t-15 -34.5t-35 -14.5t-34.5 14.5t-14.5 34.5t14.5 34.5t34.5 14.5z" />
    <glyph glyph-name="uniFE9B" unicode="&#x62b;" horiz-adv-x="267" arabic-form="initial" 
d="M241 288v-144q0 -30 -11 -56t-31 -46t-46 -31t-56 -11h-107v76h107q14 0 26.5 5.5t21.5 14.5q20 20 20 48v144h76zM191 415q20 0 35 -14.5t15 -34.5t-15 -34.5t-35 -14.5t-34.5 14.5t-14.5 34.5t14.5 34.5t34.5 14.5zM73 415q20 0 35 -14.5t15 -34.5t-15 -34.5t-35 -14.5
t-34.5 14.5t-14.5 34.5t14.5 34.5t34.5 14.5zM136 526q20 0 35 -14.5t15 -34.5t-15 -34.5t-35 -14.5t-34.5 14.5t-14.5 34.5t14.5 34.5t34.5 14.5z" />
    <glyph glyph-name="uniFE9C" unicode="&#x62b;" horiz-adv-x="304" arabic-form="medial" 
d="M-10 76h60q14 0 26 5.5t21 14.5q21 19 21 48v82h76v-82q0 -14 5.5 -26.5t14.5 -21.5q20 -20 47 -20h52v-76h-52q-29 0 -55 11t-46 31q-2 1 -2.5 2t-1.5 2l-4 -4q-20 -20 -46.5 -31t-55.5 -11h-60v76zM211 351q20 0 35 -14.5t15 -34.5t-15 -34.5t-35 -14.5t-34.5 14.5
t-14.5 34.5t14.5 34.5t34.5 14.5zM93 351q20 0 35 -14.5t15 -34.5t-15 -34.5t-35 -14.5t-34.5 14.5t-14.5 34.5t14.5 34.5t34.5 14.5zM156 462q20 0 35 -14.5t15 -34.5t-15 -34.5t-35 -14.5t-34.5 14.5t-14.5 34.5t14.5 34.5t34.5 14.5z" />
    <glyph glyph-name="uni062C" unicode="&#x62c;" horiz-adv-x="479" arabic-form="isolated" 
d="M313 -85q20 0 34.5 -14.5t14.5 -34.5t-14.5 -34.5t-34.5 -14.5t-34.5 14.5t-14.5 34.5t14.5 34.5t34.5 14.5zM96 288h139q5 0 9 0.5t7 0.5q49 0 85.5 -15t62.5 -38q26 -24 39.5 -52.5t15.5 -54.5v-30l-216 -95q-69 -29 -102 -70q-27 -33 -27 -69v-9q2 -27 15.5 -52
t35.5 -43q22 -19 48 -28t52 -9h177v-76h-183q-37 0 -74 13.5t-70 41.5t-53.5 66t-23.5 81v16q0 63 44 116q45 54 131 92l165 72q-10 18 -25 33q-16 14 -40.5 23.5t-56.5 9.5h-155v76z" />
    <glyph glyph-name="uniFE9E" unicode="&#x62c;" horiz-adv-x="472" arabic-form="final" 
d="M78 288h139q5 0 8.5 0.5t6.5 0.5q49 0 86 -15.5t63 -38.5t39.5 -51.5t15.5 -54.5v-30l-23 -10q2 -1 2.5 -1.5t2.5 -1.5q14 -10 35 -10h24v-76h-24q-42 0 -75 21q-22 13 -39 35l-119 -52q-36 -15 -61 -32.5t-42 -37.5q-15 -18 -21 -35.5t-6 -35.5v-5l1 -2q2 -27 15 -52
t35 -43q22 -19 48 -28t53 -9h177v-76h-158q-1 0 -4 -1h-11q-42 0 -82 14t-72 42q-33 28 -53.5 66t-24.5 81v14q0 29 10 59t34 59q44 53 132 92l164 72q-8 17 -25 33q-16 14 -40 23.5t-57 9.5h-154v76zM284 -93q20 0 34.5 -14.5t14.5 -34.5t-14.5 -34.5t-34.5 -14.5
t-34.5 14.5t-14.5 34.5t14.5 34.5t34.5 14.5z" />
    <glyph glyph-name="uniFE9F" unicode="&#x62c;" horiz-adv-x="447" arabic-form="initial" 
d="M13 288h139q5 0 9 0.5t6 0.5q49 0 86 -15.5t62 -38.5q27 -23 40.5 -51.5t15.5 -54.5v-30l-223 -97l-15 -2h-143v76h135l164 70q-8 17 -25 33q-16 14 -40 23.5t-57 9.5h-154v76zM133 -91q20 0 34.5 -14.5t14.5 -35.5q0 -20 -14.5 -34.5t-34.5 -14.5t-34.5 14.5t-14.5 34.5
q0 21 14.5 35.5t34.5 14.5z" />
    <glyph glyph-name="uniFEA0" unicode="&#x62c;" horiz-adv-x="447" arabic-form="medial" 
d="M29 288h139q5 0 9 0.5t6 0.5q50 0 86.5 -15.5t62.5 -38.5t39.5 -51.5t15.5 -54.5v-30l-50 -22q3 -1 6.5 -1h6.5h109v-76h-109q-32 0 -62 14q-20 9 -38 25l-86 -37l-15 -2h-162v76h154l164 70q-8 17 -25 33q-16 14 -40 23.5t-57 9.5h-154v76zM187 -65q20 0 34.5 -14.5
t14.5 -35.5q0 -20 -14.5 -34.5t-34.5 -14.5t-34.5 14.5t-14.5 34.5q0 21 14.5 35.5t34.5 14.5z" />
    <glyph glyph-name="uni0686" unicode="&#x686;" horiz-adv-x="479" arabic-form="isolated" 
d="M372 -29q20 0 34.5 -14.5t14.5 -35.5q0 -20 -14.5 -34.5t-34.5 -14.5t-34.5 14.5t-14.5 34.5q0 21 14.5 35.5t34.5 14.5zM313 -137q20 0 34.5 -14.5t14.5 -34.5t-14.5 -34.5t-34.5 -14.5t-34.5 14.5t-14.5 34.5t14.5 34.5t34.5 14.5zM96 288h139q5 0 9 0.5t7 0.5
q49 0 85.5 -15t62.5 -38q26 -24 39.5 -52.5t15.5 -54.5v-30l-216 -95q-69 -29 -102 -70q-27 -33 -27 -69v-9q2 -27 15.5 -52t35.5 -43q22 -19 48 -28t52 -9h177v-76h-183q-37 0 -74 13.5t-70 41.5t-53.5 66t-23.5 81v16q0 63 44 116q45 54 131 92l165 72q-10 18 -25 33
q-16 14 -40.5 23.5t-56.5 9.5h-155v76zM248 -29q20 0 34.5 -14.5t14.5 -35.5q0 -20 -14.5 -34.5t-34.5 -14.5t-34.5 14.5t-14.5 34.5q0 21 14.5 35.5t34.5 14.5z" />
    <glyph glyph-name="uniFB7B" unicode="&#x686;" horiz-adv-x="468" arabic-form="final" 
d="M78 288h139q5 0 8.5 0.5t6.5 0.5q49 0 86 -15.5t63 -38.5t39.5 -51.5t15.5 -54.5v-30l-23 -10q2 -1 2.5 -1.5t2.5 -1.5q14 -10 35 -10h24v-76h-24q-42 0 -75 21q-22 13 -39 35l-119 -52q-36 -15 -61 -32.5t-42 -37.5q-15 -18 -21 -35.5t-6 -35.5v-5l1 -2q2 -27 15 -52
t35 -43q22 -19 48 -28t53 -9h177v-76h-158q-1 0 -4 -1h-11q-42 0 -82 14t-72 42q-33 28 -53.5 66t-24.5 81v14q0 29 10 59t34 59q44 53 132 92l164 72q-8 17 -25 33q-16 14 -40 23.5t-57 9.5h-154v76zM354 -38q20 0 34.5 -14.5t14.5 -35.5q0 -20 -14.5 -34.5t-34.5 -14.5
t-34.5 14.5t-14.5 34.5q0 21 14.5 35.5t34.5 14.5zM295 -146q20 0 34.5 -14.5t14.5 -34.5t-14.5 -34.5t-34.5 -14.5t-34.5 14.5t-14.5 34.5t14.5 34.5t34.5 14.5zM230 -38q20 0 34.5 -14.5t14.5 -35.5q0 -20 -14.5 -34.5t-34.5 -14.5t-34.5 14.5t-14.5 34.5q0 21 14.5 35.5
t34.5 14.5z" />
    <glyph glyph-name="uniFB7C" unicode="&#x686;" horiz-adv-x="447" arabic-form="initial" 
d="M13 288h139q5 0 9 0.5t6 0.5q49 0 86 -15.5t62 -38.5q27 -23 40.5 -51.5t15.5 -54.5v-30l-223 -97l-15 -2h-143v76h135l164 70q-8 17 -25 33q-16 14 -40 23.5t-57 9.5h-154v76zM117 -68q20 0 34.5 -14.5t14.5 -35.5q0 -20 -14.5 -34.5t-34.5 -14.5t-34.5 14.5t-14.5 34.5
q0 21 14.5 35.5t34.5 14.5zM242 -68q20 0 34.5 -14.5t14.5 -35.5q0 -20 -14.5 -34.5t-34.5 -14.5t-34.5 14.5t-14.5 34.5q0 21 14.5 35.5t34.5 14.5zM181 -183q20 0 34.5 -14.5t14.5 -35.5q0 -20 -14.5 -34.5t-34.5 -14.5t-34.5 14.5t-14.5 34.5q0 21 14.5 35.5t34.5 14.5z
" />
    <glyph glyph-name="uniFB7D" unicode="&#x686;" horiz-adv-x="447" arabic-form="medial" 
d="M29 288h139q5 0 9 0.5t6 0.5q50 0 86.5 -15.5t62.5 -38.5t39.5 -51.5t15.5 -54.5v-30l-50 -22q3 -1 6.5 -1h6.5h109v-76h-109q-32 0 -62 14q-20 9 -38 25l-86 -37l-15 -2h-162v76h154l164 70q-8 17 -25 33q-16 14 -40 23.5t-57 9.5h-154v76zM117 -68q20 0 34.5 -14.5
t14.5 -35.5q0 -20 -14.5 -34.5t-34.5 -14.5t-34.5 14.5t-14.5 34.5q0 21 14.5 35.5t34.5 14.5zM242 -68q20 0 34.5 -14.5t14.5 -35.5q0 -20 -14.5 -34.5t-34.5 -14.5t-34.5 14.5t-14.5 34.5q0 21 14.5 35.5t34.5 14.5zM181 -183q20 0 34.5 -14.5t14.5 -35.5
q0 -20 -14.5 -34.5t-34.5 -14.5t-34.5 14.5t-14.5 34.5q0 21 14.5 35.5t34.5 14.5z" />
    <glyph glyph-name="uni062D" unicode="&#x62d;" horiz-adv-x="479" arabic-form="isolated" 
d="M96 288h139q5 0 9 0.5t7 0.5q49 0 85.5 -15t62.5 -38q26 -24 39.5 -52.5t15.5 -54.5v-30l-216 -95q-69 -29 -102 -70q-27 -33 -27 -69v-9q2 -27 15.5 -52t35.5 -43q22 -19 48 -28t52 -9h177v-76h-183q-37 0 -74 13.5t-70 41.5t-53.5 66t-23.5 81v16q0 63 44 116
q45 54 131 92l165 72q-10 18 -25 33q-16 14 -40.5 23.5t-56.5 9.5h-155v76z" />
    <glyph glyph-name="uniFEA2" unicode="&#x62d;" horiz-adv-x="468" arabic-form="final" 
d="M78 288h139q5 0 8.5 0.5t6.5 0.5q49 0 86 -15.5t63 -38.5t39.5 -51.5t15.5 -54.5v-30l-23 -10q2 -1 2.5 -1.5t2.5 -1.5q14 -10 35 -10h24v-76h-24q-42 0 -75 21q-22 13 -39 35l-119 -52q-36 -15 -61 -32.5t-42 -37.5q-15 -18 -21 -35.5t-6 -35.5v-5l1 -2q2 -27 15 -52
t35 -43q22 -19 48 -28t53 -9h177v-76h-158q-1 0 -4 -1h-11q-42 0 -82 14t-72 42q-33 28 -53.5 66t-24.5 81v14q0 29 10 59t34 59q44 53 132 92l164 72q-8 17 -25 33q-16 14 -40 23.5t-57 9.5h-154v76z" />
    <glyph glyph-name="uniFEA3" unicode="&#x62d;" horiz-adv-x="447" arabic-form="initial" 
d="M13 288h139q5 0 9 0.5t6 0.5q49 0 86 -15.5t62 -38.5q27 -23 40.5 -51.5t15.5 -54.5v-30l-223 -97l-15 -2h-143v76h135l164 70q-8 17 -25 33q-16 14 -40 23.5t-57 9.5h-154v76z" />
    <glyph glyph-name="uniFEA4" unicode="&#x62d;" horiz-adv-x="447" arabic-form="medial" 
d="M29 288h139q5 0 9 0.5t6 0.5q50 0 86.5 -15.5t62.5 -38.5t39.5 -51.5t15.5 -54.5v-30l-50 -22q3 -1 6.5 -1h6.5h109v-76h-109q-32 0 -62 14q-20 9 -38 25l-86 -37l-15 -2h-162v76h154l164 70q-8 17 -25 33q-16 14 -40 23.5t-57 9.5h-154v76z" />
    <glyph glyph-name="uni062E" unicode="&#x62e;" horiz-adv-x="479" arabic-form="isolated" 
d="M313 449q20 0 34.5 -14.5t14.5 -34.5t-14.5 -34.5t-34.5 -14.5t-34.5 14.5t-14.5 34.5t14.5 34.5t34.5 14.5zM96 288h139q5 0 9 0.5t7 0.5q49 0 85.5 -15t62.5 -38q26 -24 39.5 -52.5t15.5 -54.5v-30l-216 -95q-69 -29 -102 -70q-27 -33 -27 -69v-9q2 -27 15.5 -52
t35.5 -43q22 -19 48 -28t52 -9h177v-76h-183q-37 0 -74 13.5t-70 41.5t-53.5 66t-23.5 81v16q0 63 44 116q45 54 131 92l165 72q-10 18 -25 33q-16 14 -40.5 23.5t-56.5 9.5h-155v76z" />
    <glyph glyph-name="uniFEA6" unicode="&#x62e;" horiz-adv-x="465" arabic-form="final" 
d="M78 288h139q5 0 8.5 0.5t6.5 0.5q49 0 86 -15.5t63 -38.5t39.5 -51.5t15.5 -54.5v-30l-23 -10q2 -1 2.5 -1.5t2.5 -1.5q14 -10 35 -10h24v-76h-24q-42 0 -75 21q-22 13 -39 35l-119 -52q-36 -15 -61 -32.5t-42 -37.5q-15 -18 -21 -35.5t-6 -35.5v-5l1 -2q2 -27 15 -52
t35 -43q22 -19 48 -28t53 -9h177v-76h-158q-1 0 -4 -1h-11q-42 0 -82 14t-72 42q-33 28 -53.5 66t-24.5 81v14q0 29 10 59t34 59q44 53 132 92l164 72q-8 17 -25 33q-16 14 -40 23.5t-57 9.5h-154v76zM260 445q20 0 34.5 -14.5t14.5 -35.5q0 -20 -14.5 -34.5t-34.5 -14.5
t-34.5 14.5t-14.5 34.5q0 21 14.5 35.5t34.5 14.5z" />
    <glyph glyph-name="uniFEA7" unicode="&#x62e;" horiz-adv-x="447" arabic-form="initial" 
d="M13 288h139q5 0 9 0.5t6 0.5q49 0 86 -15.5t62 -38.5q27 -23 40.5 -51.5t15.5 -54.5v-30l-223 -97l-15 -2h-143v76h135l164 70q-8 17 -25 33q-16 14 -40 23.5t-57 9.5h-154v76zM189 451q20 0 34.5 -14.5t14.5 -35.5q0 -20 -14.5 -34.5t-34.5 -14.5t-34.5 14.5t-14.5 34.5
q0 21 14.5 35.5t34.5 14.5z" />
    <glyph glyph-name="uniFEA8" unicode="&#x62e;" horiz-adv-x="447" arabic-form="medial" 
d="M29 288h139q5 0 9 0.5t6 0.5q50 0 86.5 -15.5t62.5 -38.5t39.5 -51.5t15.5 -54.5v-30l-50 -22q3 -1 6.5 -1h6.5h109v-76h-109q-32 0 -62 14q-20 9 -38 25l-86 -37l-15 -2h-162v76h154l164 70q-8 17 -25 33q-16 14 -40 23.5t-57 9.5h-154v76zM187 457q20 0 34.5 -14.5
t14.5 -35.5q0 -20 -14.5 -34.5t-34.5 -14.5t-34.5 14.5t-14.5 34.5q0 21 14.5 35.5t34.5 14.5z" />
    <glyph glyph-name="uni062F" unicode="&#x62f;" horiz-adv-x="427" arabic-form="isolated" 
d="M33 75h224q26 0 44 13q15 12 21 30q2 9 2 18q0 12 -3 25q-5 17 -17.5 34t-32.5 34l-140 109l48 60l139 -109q31 -24 49.5 -51t26.5 -56q7 -21 7 -42q0 -1 -0.5 -12.5t-5.5 -31.5q-14 -43 -48 -69q-37 -28 -90 -28h-224v76z" />
    <glyph glyph-name="uniFEAA" unicode="&#x62f;" horiz-adv-x="470" arabic-form="final" 
d="M29 75h223q27 0 45 13q14 13 20 30q3 9 3 20v3q0 11 -4 20q-5 17 -17 34t-32 34l-140 109l47 60l139 -109q31 -24 49.5 -51t26.5 -56q3 -10 4.5 -19.5t2.5 -18.5q0 -14 5.5 -26.5t14.5 -21.5q20 -20 48 -20h23v-76h-23q-30 0 -56 11t-46 31q-1 0 -1 1h-1q-4 -4 -8.5 -8
t-9.5 -8q-37 -28 -90 -28h-223v76z" />
    <glyph glyph-name="uni0630" unicode="&#x630;" horiz-adv-x="427" arabic-form="isolated" 
d="M33 75h224q26 0 44 13q15 12 21 30q2 9 2 18q0 12 -3 25q-5 17 -17.5 34t-32.5 34l-140 109l48 60l139 -109q31 -24 49.5 -51t26.5 -56q7 -21 7 -42q0 -1 -0.5 -12.5t-5.5 -31.5q-14 -43 -48 -69q-37 -28 -90 -28h-224v76zM169 557q20 0 34.5 -14.5t14.5 -34.5
t-14.5 -34.5t-34.5 -14.5t-34.5 14.5t-14.5 34.5t14.5 34.5t34.5 14.5z" />
    <glyph glyph-name="uniFEAC" unicode="&#x630;" horiz-adv-x="470" arabic-form="final" 
d="M29 75h223q27 0 45 13q14 13 20 30q3 9 3 20v3q0 11 -4 20q-5 17 -17 34t-32 34l-140 109l47 60l139 -109q31 -24 49.5 -51t26.5 -56q3 -10 4.5 -19.5t2.5 -18.5q0 -14 5.5 -26.5t14.5 -21.5q20 -20 48 -20h23v-76h-23q-30 0 -56 11t-46 31q-1 0 -1 1h-1q-4 -4 -8.5 -8
t-9.5 -8q-37 -28 -90 -28h-223v76zM169 557q20 0 34.5 -14.5t14.5 -34.5t-14.5 -34.5t-34.5 -14.5t-34.5 14.5t-14.5 34.5t14.5 34.5t34.5 14.5z" />
    <glyph glyph-name="uni0631" unicode="&#x631;" horiz-adv-x="378" arabic-form="isolated" 
d="M35 -109l135 1q28 0 47 19q20 20 20 48l1 267h76v-267q0 -29 -11.5 -55t-31.5 -46t-46 -31.5t-55 -11.5h-135v76z" />
    <glyph glyph-name="uniFEAE" unicode="&#x631;" horiz-adv-x="336" arabic-form="final" 
d="M-3 -109l135 1q29 0 48 19q9 10 14.5 22t5.5 26v267h76v-126q9 -11 23 -17q13 -7 29 -7h25v-76h-25q-28 0 -52 9v-50q0 -30 -11 -55.5t-31 -45.5t-46 -31.5t-56 -11.5h-135v76z" />
    <glyph glyph-name="uni0632" unicode="&#x632;" horiz-adv-x="378" arabic-form="isolated" 
d="M275 414q20 0 34.5 -14.5t14.5 -34.5t-14.5 -34.5t-34.5 -14.5t-34.5 14.5t-14.5 34.5t14.5 34.5t34.5 14.5zM30 -109l135 1q28 0 47 19q20 20 20 48l1 267h76v-267q0 -29 -11.5 -55t-31.5 -46t-46 -31.5t-55 -11.5h-135v76z" />
    <glyph glyph-name="uniFEB0" unicode="&#x632;" horiz-adv-x="341" arabic-form="final" 
d="M-3 -109l135 1q29 0 48 19q9 10 14.5 22t5.5 26v267h76v-126q9 -11 23 -17q13 -7 29 -7h25v-76h-25q-28 0 -52 9v-50q0 -30 -11 -55.5t-31 -45.5t-46 -31.5t-56 -11.5h-135v76zM244 379q20 0 34.5 -14.5t14.5 -34.5t-14.5 -34.5t-34.5 -14.5t-34.5 14.5t-14.5 34.5
t14.5 34.5t34.5 14.5z" />
    <glyph glyph-name="uni0698" unicode="&#x698;" horiz-adv-x="399" arabic-form="isolated" 
d="M30 -109l135 1q28 0 47 19q20 20 20 48l1 267h76v-267q0 -29 -11.5 -55t-31.5 -46t-46 -31.5t-55 -11.5h-135v76zM267 487q20 0 34.5 -14.5t14.5 -34.5t-14.5 -34.5t-34.5 -14.5t-34.5 14.5t-14.5 34.5t14.5 34.5t34.5 14.5zM192 384q20 0 34.5 -14.5t14.5 -34.5
t-14.5 -34.5t-34.5 -14.5t-34.5 14.5t-14.5 34.5t14.5 34.5t34.5 14.5zM328 384q20 0 34.5 -14.5t14.5 -34.5t-14.5 -34.5t-34.5 -14.5t-34.5 14.5t-14.5 34.5t14.5 34.5t34.5 14.5z" />
    <glyph glyph-name="uniFB8B" unicode="&#x698;" horiz-adv-x="346" arabic-form="final" 
d="M-3 -109l135 1q29 0 48 19q9 10 14.5 22t5.5 26v267h76v-126q9 -11 23 -17q13 -7 29 -7h25v-76h-25q-28 0 -52 9v-50q0 -30 -11 -55.5t-31 -45.5t-46 -31.5t-56 -11.5h-135v76zM226 487q20 0 34.5 -14.5t14.5 -34.5t-14.5 -34.5t-34.5 -14.5t-34.5 14.5t-14.5 34.5
t14.5 34.5t34.5 14.5zM287 384q20 0 34.5 -14.5t14.5 -34.5t-14.5 -34.5t-34.5 -14.5t-34.5 14.5t-14.5 34.5t14.5 34.5t34.5 14.5zM150 384q20 0 34.5 -14.5t14.5 -34.5t-14.5 -34.5t-34.5 -14.5t-34.5 14.5t-14.5 34.5t14.5 34.5t34.5 14.5z" />
    <glyph glyph-name="uni0633" unicode="&#x633;" horiz-adv-x="843" arabic-form="isolated" 
d="M501 226v-114q0 -15 11 -26q10 -10 25 -10q19 0 30 11q9 8 11 24v115h75v-114h1v-1q0 -13 10 -25q12 -10 26 -10q19 0 30 11q10 8 10 25v114h76v-114q0 -25 -9 -45.5t-25 -34.5q-16 -16 -37.5 -24t-44.5 -8q-44 0 -74 28q-16 -14 -36 -21t-43 -7q-20 0 -38 6
q-9 -79 -59 -129q-61 -60 -167 -61h-3q-48 0 -89.5 15t-73.5 43q-32 29 -51.5 69t-19.5 90l-1 3h1l-1 109h77v-111q0 -32 12.5 -58t32.5 -44q45 -40 113 -40h3q76 2 113 39q39 37 39 109v186h76z" />
    <glyph glyph-name="uniFEB2" unicode="&#x633;" horiz-adv-x="854" arabic-form="final" 
d="M772 32q-16 -16 -37.5 -24t-44.5 -8q-44 0 -74 28q-16 -14 -36 -21t-43 -7q-20 0 -38 6q-9 -79 -59 -129q-61 -60 -167 -61h-3q-48 0 -89.5 15t-73.5 43q-32 29 -51.5 69t-19.5 90l-1 3h1l-1 109h77v-111q0 -32 12.5 -58t32.5 -44q45 -40 113 -40h3q76 2 113 39
q39 37 39 109v186h76v-114q0 -15 11 -26q10 -10 25 -10q19 0 30 11q9 8 11 24v115h75v-114h1v-1q0 -13 10 -25q12 -10 26 -10q19 0 30 11q10 8 10 25v114h76v-114q0 -5 2.5 -12t7 -13t11 -9.5t12.5 -3.5h28v-73h-33q-22 1 -34.5 6t-18.5 10.5t-9 14.5z" />
    <glyph glyph-name="uniFEB3" unicode="&#x633;" horiz-adv-x="461" arabic-form="initial" 
d="M280 226v-114h1v-1q0 -13 10 -25q12 -10 26 -10q19 0 30 11q10 8 10 25v114h76v-114q-3 -51 -35.5 -81.5t-80.5 -30.5q-44 0 -74 28q-30 -28 -74 -28q-23 0 -44.5 8t-37.5 24l-1 -4q-2 -5 -8 -10.5t-18.5 -10.5t-34.5 -6h-33v73h28q6 0 12.5 3.5t11 9.5t7 13t2.5 12v114
h76v-114q0 -17 10 -25q11 -11 30 -11q14 0 26 10q10 12 10 25v1h1v114h74z" />
    <glyph glyph-name="uniFEB4" unicode="&#x633;" horiz-adv-x="482" arabic-form="medial" 
d="M280 226v-114h1v-1q0 -13 10 -25q12 -10 26 -10q19 0 30 11q10 8 10 25v114h76v-114q0 -5 2.5 -12t7 -13t11 -9.5t12.5 -3.5h28v-73h-33q-22 1 -34.5 6t-18.5 10.5t-7 10.5l-2 4q-16 -16 -37.5 -24t-44.5 -8q-44 0 -74 28q-30 -28 -74 -28q-23 0 -44.5 8t-37.5 24l-1 -4
q-2 -5 -8 -10.5t-18.5 -10.5t-34.5 -6h-33v73h28q6 0 12.5 3.5t11 9.5t7 13t2.5 12v114h76v-114q0 -17 10 -25q11 -11 30 -11q14 0 26 10q10 12 10 25v1h1v114h74z" />
    <glyph glyph-name="uni0634" unicode="&#x634;" horiz-adv-x="835" arabic-form="isolated" 
d="M561 272q-21 0 -35.5 14.5t-14.5 34.5t14.5 34.5t35.5 14.5q20 0 34.5 -14.5t14.5 -34.5t-14.5 -34.5t-34.5 -14.5zM684 272q-20 0 -34.5 14.5t-14.5 34.5t14.5 34.5t34.5 14.5q21 0 35.5 -14.5t14.5 -34.5t-14.5 -34.5t-35.5 -14.5zM625 379q-20 0 -34.5 14.5
t-14.5 34.5t14.5 34.5t34.5 14.5t35 -14.5t15 -34.5t-15 -34.5t-35 -14.5zM501 226v-114q0 -15 11 -26q10 -10 25 -10q19 0 30 11q9 8 11 24v115h75v-114h1v-1q0 -13 10 -25q12 -10 26 -10q19 0 30 11q10 8 10 25v114h76v-114q0 -25 -9 -45.5t-25 -34.5q-16 -16 -37.5 -24
t-44.5 -8q-44 0 -74 28q-16 -14 -36 -21t-43 -7q-20 0 -38 6q-9 -79 -59 -129q-61 -60 -167 -61h-3q-48 0 -89.5 15t-73.5 43q-32 29 -51.5 69t-19.5 90l-1 3h1l-1 109h77v-111q0 -32 12.5 -58t32.5 -44q45 -40 113 -40h3q76 2 113 39q39 37 39 109v186h76z" />
    <glyph glyph-name="uniFEB6" unicode="&#x634;" horiz-adv-x="856" arabic-form="final" 
d="M772 32q-16 -16 -37.5 -24t-44.5 -8q-44 0 -74 28q-16 -14 -36 -21t-43 -7q-20 0 -38 6q-9 -79 -59 -129q-61 -60 -167 -61h-3q-48 0 -89.5 15t-73.5 43q-32 29 -51.5 69t-19.5 90l-1 3h1l-1 109h77v-111q0 -32 12.5 -58t32.5 -44q45 -40 113 -40h3q76 2 113 39
q39 37 39 109v186h76v-114q0 -15 11 -26q10 -10 25 -10q19 0 30 11q9 8 11 24v115h75v-114h1v-1q0 -13 10 -25q12 -10 26 -10q19 0 30 11q10 8 10 25v114h76v-114q0 -5 2.5 -12t7 -13t11 -9.5t12.5 -3.5h28v-73h-33q-22 1 -34.5 6t-18.5 10.5t-9 14.5zM561 272
q-21 0 -35.5 14.5t-14.5 34.5t14.5 34.5t35.5 14.5q20 0 34.5 -14.5t14.5 -34.5t-14.5 -34.5t-34.5 -14.5zM684 272q-20 0 -34.5 14.5t-14.5 34.5t14.5 34.5t34.5 14.5q21 0 35.5 -14.5t14.5 -34.5t-14.5 -34.5t-35.5 -14.5zM625 379q-20 0 -34.5 14.5t-14.5 34.5t14.5 34.5
t34.5 14.5t35 -14.5t15 -34.5t-15 -34.5t-35 -14.5z" />
    <glyph glyph-name="uniFEB7" unicode="&#x634;" horiz-adv-x="465" arabic-form="initial" 
d="M280 226v-114h1v-1q0 -13 10 -25q12 -10 26 -10q19 0 30 11q10 8 10 25v114h76v-114q-3 -51 -35.5 -81.5t-80.5 -30.5q-44 0 -74 28q-30 -28 -74 -28q-23 0 -44.5 8t-37.5 24l-1 -4q-2 -5 -8 -10.5t-18.5 -10.5t-34.5 -6h-33v73h28q6 0 12.5 3.5t11 9.5t7 13t2.5 12v114
h76v-114q0 -17 10 -25q11 -11 30 -11q14 0 26 10q10 12 10 25v1h1v114h74zM176 272q-21 0 -35.5 14.5t-14.5 34.5t14.5 34.5t35.5 14.5q20 0 34.5 -14.5t14.5 -34.5t-14.5 -34.5t-34.5 -14.5zM299 272q-20 0 -34.5 14.5t-14.5 34.5t14.5 34.5t34.5 14.5q21 0 35.5 -14.5
t14.5 -34.5t-14.5 -34.5t-35.5 -14.5zM240 379q-20 0 -34.5 14.5t-14.5 34.5t14.5 34.5t34.5 14.5t35 -14.5t15 -34.5t-15 -34.5t-35 -14.5z" />
    <glyph glyph-name="uniFEB8" unicode="&#x634;" horiz-adv-x="483" arabic-form="medial" 
d="M280 226v-114h1v-1q0 -13 10 -25q12 -10 26 -10q19 0 30 11q10 8 10 25v114h76v-114q0 -5 2.5 -12t7 -13t11 -9.5t12.5 -3.5h28v-73h-33q-22 1 -34.5 6t-18.5 10.5t-7 10.5l-2 4q-16 -16 -37.5 -24t-44.5 -8q-44 0 -74 28q-30 -28 -74 -28q-23 0 -44.5 8t-37.5 24l-1 -4
q-2 -5 -8 -10.5t-18.5 -10.5t-34.5 -6h-33v73h28q6 0 12.5 3.5t11 9.5t7 13t2.5 12v114h76v-114q0 -17 10 -25q11 -11 30 -11q14 0 26 10q10 12 10 25v1h1v114h74zM176 272q-21 0 -35.5 14.5t-14.5 34.5t14.5 34.5t35.5 14.5q20 0 34.5 -14.5t14.5 -34.5t-14.5 -34.5
t-34.5 -14.5zM299 272q-20 0 -34.5 14.5t-14.5 34.5t14.5 34.5t34.5 14.5q21 0 35.5 -14.5t14.5 -34.5t-14.5 -34.5t-35.5 -14.5zM240 379q-20 0 -34.5 14.5t-14.5 34.5t14.5 34.5t34.5 14.5t35 -14.5t15 -34.5t-15 -34.5t-35 -14.5z" />
    <glyph glyph-name="uni0635" unicode="&#x635;" horiz-adv-x="887" arabic-form="isolated" 
d="M502 226v-78l40 57q26 38 67 63q41 22 86 22q33 0 62 -13.5t51 -36.5t34.5 -53t12.5 -63q0 -26 -10 -48.5t-27 -39.5t-39.5 -27t-48.5 -10h-231q-11 -75 -59 -122q-60 -60 -166 -61h-3q-48 0 -89.5 15t-73.5 43q-33 29 -51.5 69t-19.5 90v112h76v-111q0 -32 12.5 -58
t32.5 -44q45 -40 113 -40h3q76 2 113 39q39 39 39 109v186h76zM544 75h186q21 0 34 15q15 15 15 34q0 36 -27 63q-24 27 -57 27q-28 0 -48 -13q-24 -12 -43 -40z" />
    <glyph glyph-name="uniFEBA" unicode="&#x635;" horiz-adv-x="878" arabic-form="final" 
d="M890 0h-21q-33 0 -63 14q-10 4 -16 9q-32 -24 -73 -24h-231q-11 -76 -58 -122q-61 -60 -166 -61h-3q-48 0 -90 15t-74 43q-32 29 -51 69t-20 90v112h76v-111q1 -32 13 -58t33 -45q44 -39 113 -39h2q76 2 113 39q39 37 39 109v186h76v-78l40 57q27 38 68 63q39 22 85 22
q34 0 62.5 -13.5t50.5 -36.5t34.5 -53t12.5 -63q0 -21 -6 -40q1 0 1.5 -0.5t2.5 -0.5q11 -7 29 -7h21v-76zM531 75h186q19 0 34 15t15 34q0 18 -7 34t-19 29q-11 12 -26 19.5t-32 7.5q-28 0 -48 -13q-24 -14 -43 -40z" />
    <glyph glyph-name="uniFEBB" unicode="&#x635;" horiz-adv-x="538" arabic-form="initial" 
d="M-12 76h24q14 0 26 5.5t22 14.5q20 20 20 48v82h76v-85l45 64q27 38 68 63q39 22 85 22q33 0 62 -13.5t51 -36.5t34.5 -53t12.5 -63q0 -26 -9.5 -48.5t-26.5 -39.5t-40 -27t-49 -10h-205l-2 1h-24q-32 0 -62 14q-3 2 -5.5 2.5t-5.5 2.5q-33 -19 -73 -19h-24v76zM203 75
h186q19 0 34 15t15 34q0 18 -7 34t-19 29q-11 12 -26 19.5t-32 7.5q-26 0 -48 -13q-24 -14 -43 -40z" />
    <glyph glyph-name="uniFEBC" unicode="&#x635;" horiz-adv-x="558" arabic-form="medial" 
d="M-9 76h23q14 0 26.5 5.5t21.5 14.5q20 20 20 48v82h76v-85l45 64q29 40 68 63q41 22 86 22q33 0 61.5 -13.5t51.5 -36.5q22 -23 34 -53t12 -63h1q0 -22 -7 -40q1 0 2 -0.5t2 -0.5q13 -7 29 -7h27v-76h-27q-32 0 -63 14q-8 3 -15 9q-16 -11 -34.5 -17.5t-39.5 -6.5h-204
l-3 1h-24q-32 0 -62 14q-3 2 -5.5 2.5t-5.5 2.5q-33 -19 -73 -19h-23v76zM205 75h186q20 0 35 15q14 14 14 34q0 18 -7 34t-19 29q-11 12 -26 19.5t-32 7.5q-26 0 -48 -13q-25 -14 -42 -40z" />
    <glyph glyph-name="uni0636" unicode="&#x636;" horiz-adv-x="894" arabic-form="isolated" 
d="M589 424q20 0 34.5 -15t14.5 -35t-14.5 -34.5t-34.5 -14.5q-21 0 -35.5 14.5t-14.5 34.5t14.5 35t35.5 15zM502 226v-78l40 57q26 38 67 63q41 22 86 22q33 0 62 -13.5t51 -36.5t34.5 -53t12.5 -63q0 -26 -10 -48.5t-27 -39.5t-39.5 -27t-48.5 -10h-231q-11 -75 -59 -122
q-60 -60 -166 -61h-3q-48 0 -89.5 15t-73.5 43q-33 29 -51.5 69t-19.5 90v112h76v-111q0 -32 12.5 -58t32.5 -44q45 -40 113 -40h3q76 2 113 39q39 39 39 109v186h76zM544 75h186q21 0 34 15q15 15 15 34q0 36 -27 63q-24 27 -57 27q-28 0 -48 -13q-24 -12 -43 -40z" />
    <glyph glyph-name="uniFEBE" unicode="&#x636;" horiz-adv-x="870" arabic-form="final" 
d="M589 425q20 0 34.5 -15t14.5 -35t-14.5 -34.5t-34.5 -14.5q-21 0 -35.5 14.5t-14.5 34.5t14.5 35t35.5 15zM890 0h-21q-33 0 -63 14q-10 4 -16 9q-32 -24 -73 -24h-231q-11 -76 -58 -122q-61 -60 -166 -61h-3q-48 0 -90 15t-74 43q-32 29 -51 69t-20 90v112h76v-111
q1 -32 13 -58t33 -45q44 -39 113 -39h2q76 2 113 39q39 37 39 109v186h76v-78l40 57q27 38 68 63q39 22 85 22q34 0 62.5 -13.5t50.5 -36.5t34.5 -53t12.5 -63q0 -21 -6 -40q1 0 1.5 -0.5t2.5 -0.5q11 -7 29 -7h21v-76zM531 75h186q19 0 34 15t15 34q0 18 -7 34t-19 29
q-11 12 -26 19.5t-32 7.5q-28 0 -48 -13q-24 -14 -43 -40z" />
    <glyph glyph-name="uniFEBF" unicode="&#x636;" horiz-adv-x="548" arabic-form="initial" 
d="M-12 76h24q14 0 26 5.5t22 14.5q20 20 20 48v82h76v-85l45 64q27 38 68 63q39 22 85 22q33 0 62 -13.5t51 -36.5t34.5 -53t12.5 -63q0 -26 -9.5 -48.5t-26.5 -39.5t-40 -27t-49 -10h-205l-2 1h-24q-32 0 -62 14q-3 2 -5.5 2.5t-5.5 2.5q-33 -19 -73 -19h-24v76zM203 75
h186q19 0 34 15t15 34q0 18 -7 34t-19 29q-11 12 -26 19.5t-32 7.5q-26 0 -48 -13q-24 -14 -43 -40zM270 424q20 0 34.5 -15t14.5 -35t-14.5 -34.5t-34.5 -14.5q-21 0 -35.5 14.5t-14.5 34.5t14.5 35t35.5 15z" />
    <glyph glyph-name="uniFEC0" unicode="&#x636;" horiz-adv-x="558" arabic-form="medial" 
d="M-9 76h23q14 0 26.5 5.5t21.5 14.5q20 20 20 48v82h76v-85l45 64q29 40 68 63q41 22 86 22q33 0 61.5 -13.5t51.5 -36.5q22 -23 34 -53t12 -63h1q0 -22 -7 -40q1 0 2 -0.5t2 -0.5q13 -7 29 -7h27v-76h-27q-32 0 -63 14q-8 3 -15 9q-16 -11 -34.5 -17.5t-39.5 -6.5h-204
l-3 1h-24q-32 0 -62 14q-3 2 -5.5 2.5t-5.5 2.5q-33 -19 -73 -19h-23v76zM205 75h186q20 0 35 15q14 14 14 34q0 18 -7 34t-19 29q-11 12 -26 19.5t-32 7.5q-26 0 -48 -13q-25 -14 -42 -40zM270 424q20 0 34.5 -15t14.5 -35t-14.5 -34.5t-34.5 -14.5q-21 0 -35.5 14.5
t-14.5 34.5t14.5 35t35.5 15z" />
    <glyph glyph-name="uni0637" unicode="&#x637;" horiz-adv-x="513" arabic-form="isolated" 
d="M23 75h71v388h76v-256q14 19 30.5 34.5t36.5 26.5q39 22 85 22q33 0 62 -13.5t51 -36.5t34.5 -53t12.5 -63q0 -26 -10 -48.5t-27 -39.5t-39.5 -27t-48.5 -10h-334v76zM171 75h186q19 0 34 15t15 34q0 18 -7 34t-19 29q-25 27 -58 27q-28 0 -48 -13q-24 -12 -43 -40z" />
    <glyph glyph-name="uniFEC2" unicode="&#x637;" horiz-adv-x="513" arabic-form="final" 
d="M150 463v-255q28 39 66 61q20 11 41 16.5t45 5.5q33 0 62 -13.5t50 -36.5q22 -23 35 -53t13 -63q0 -16 -4 -28q5 -4 9.5 -7.5t9.5 -5.5q13 -7 30 -7h18v-76h-18q-33 0 -63 14q-13 6 -25 16q-36 -31 -83 -31h-312v76h49v387h77zM150 76h186q20 0 35 15q14 14 14 34h1
q0 18 -7.5 34t-19.5 29q-11 12 -26 19.5t-32 7.5q-26 0 -48 -13q-23 -13 -42 -40z" />
    <glyph glyph-name="uniFEC3" unicode="&#x637;" horiz-adv-x="461" arabic-form="initial" 
d="M-36 75h71v388h76v-256q14 19 30.5 34.5t36.5 26.5q39 22 85 22q33 0 62 -13.5t51 -36.5t34.5 -53t12.5 -63q0 -26 -10 -48.5t-27 -39.5t-39.5 -27t-48.5 -10h-334v76zM112 75h186q19 0 34 15t15 34q0 18 -7 34t-19 29q-25 27 -58 27q-28 0 -48 -13q-24 -12 -43 -40z" />
    <glyph glyph-name="uniFEC4" unicode="&#x637;" horiz-adv-x="473" arabic-form="medial" 
d="M108 463v-255q28 39 66 61q20 11 41 16.5t45 5.5q33 0 62 -13.5t50 -36.5q22 -23 35 -53t13 -63q0 -16 -4 -28q5 -4 9.5 -7.5t9.5 -5.5q13 -7 30 -7h18v-76h-18q-33 0 -63 14q-13 6 -25 16q-36 -31 -83 -31h-312v76h49v387h77zM108 76h186q20 0 35 15q14 14 14 34h1
q0 18 -7.5 34t-19.5 29q-11 12 -26 19.5t-32 7.5q-26 0 -48 -13q-23 -13 -42 -40z" />
    <glyph glyph-name="uni0638" unicode="&#x638;" horiz-adv-x="512" arabic-form="isolated" 
d="M274 425q20 0 34.5 -15t14.5 -35t-14.5 -34.5t-34.5 -14.5q-21 0 -35.5 14.5t-14.5 34.5t14.5 35t35.5 15zM23 76h71v388h76v-256q14 19 30.5 34.5t36.5 26.5q39 22 85 22q33 0 62 -13.5t51 -36.5t34.5 -53t12.5 -63q0 -26 -10 -48.5t-27 -39.5t-39.5 -27t-48.5 -10h-334
v76zM171 76h186q19 0 34 15t15 34q0 18 -7 34t-19 29q-25 27 -58 27q-28 0 -48 -13q-24 -12 -43 -40z" />
    <glyph glyph-name="uniFEC6" unicode="&#x638;" horiz-adv-x="523" arabic-form="final" 
d="M154 463v-255q28 39 66 61q20 11 41 16.5t45 5.5q33 0 62 -13.5t50 -36.5q22 -23 35 -53t13 -63q0 -16 -4 -28q5 -4 9.5 -7.5t9.5 -5.5q13 -7 30 -7h18v-76h-18q-33 0 -63 14q-13 6 -25 16q-36 -31 -83 -31h-312v76h49v387h77zM154 76h186q20 0 35 15q14 14 14 34h1
q0 18 -7.5 34t-19.5 29q-11 12 -26 19.5t-32 7.5q-26 0 -48 -13q-23 -13 -42 -40zM274 425q20 0 34.5 -15t14.5 -35t-14.5 -34.5t-34.5 -14.5q-21 0 -35.5 14.5t-14.5 34.5t14.5 35t35.5 15z" />
    <glyph glyph-name="uniFEC7" unicode="&#x638;" horiz-adv-x="454" arabic-form="initial" 
d="M226 425q20 0 34.5 -15t14.5 -35t-14.5 -34.5t-34.5 -14.5q-21 0 -35.5 14.5t-14.5 34.5t14.5 35t35.5 15zM-25 76h71v388h76v-256q14 19 30.5 34.5t36.5 26.5q39 22 85 22q33 0 62 -13.5t51 -36.5t34.5 -53t12.5 -63q0 -26 -10 -48.5t-27 -39.5t-39.5 -27t-48.5 -10
h-334v76zM123 76h186q19 0 34 15t15 34q0 18 -7 34t-19 29q-25 27 -58 27q-28 0 -48 -13q-24 -12 -43 -40z" />
    <glyph glyph-name="uniFEC8" unicode="&#x638;" horiz-adv-x="469" arabic-form="medial" 
d="M108 463v-255q28 39 66 61q20 11 41 16.5t45 5.5q33 0 62 -13.5t50 -36.5q22 -23 35 -53t13 -63q0 -16 -4 -28q5 -4 9.5 -7.5t9.5 -5.5q13 -7 30 -7h18v-76h-18q-33 0 -63 14q-13 6 -25 16q-36 -31 -83 -31h-312v76h49v387h77zM108 76h186q20 0 35 15q14 14 14 34h1
q0 18 -7.5 34t-19.5 29q-11 12 -26 19.5t-32 7.5q-26 0 -48 -13q-23 -13 -42 -40zM226 425q20 0 34.5 -15t14.5 -35t-14.5 -34.5t-34.5 -14.5q-21 0 -35.5 14.5t-14.5 34.5t14.5 35t35.5 15z" />
    <glyph glyph-name="uni0639" unicode="&#x639;" horiz-adv-x="412" arabic-form="isolated" 
d="M354 0h-135q-54 -26 -85.5 -57t-44.5 -63q-9 -23 -9 -44q0 -11 2 -21q5 -29 28 -51q19 -19 48.5 -29.5t67.5 -10.5h187v-76h-187q-54 0 -97 16t-72 45q-39 38 -50 92q-3 17 -3 35q0 9 1.5 27t12.5 45q14 35 42 68.5t72 62.5q-1 0 -4 3q-20 20 -31 46t-11 56q0 29 11 55.5
t31 45.5q20 20 46 31.5t56 11.5q28 0 55 -11q14 -6 25 -14t22 -18l-54 -54q-11 11 -22 15q-12 6 -26 6q-27 0 -48 -21q-19 -19 -19 -47q0 -29 19 -48q10 -9 22 -14.5t26 -5.5h124v-76z" />
    <glyph glyph-name="uniFECA" unicode="&#x639;" horiz-adv-x="417" arabic-form="final" 
d="M423 0q-33 0 -56.5 4t-41.5 10.5t-32.5 16.5t-28.5 22q-32 -21 -63.5 -43t-56 -46t-38 -49t-13.5 -50v-9q2 -27 15.5 -52t35.5 -43q22 -19 48 -28t52 -9h177v-76h-157q-1 0 -4 -1h-11q-42 0 -82.5 14t-72.5 42q-33 28 -53 66t-24 81v17q0 35 14 68t41 63.5t62 56.5t71 50
l-103 91l29 89h177q31 0 59 -20q21 -15 30 -37q6 -14 6 -28t-5 -28t-17 -29.5t-33 -31.5q-4 -3 -8 -6.5t-9 -6.5q16 -11 36.5 -16.5t55.5 -5.5v-76zM203 209l68 -60q8 5 15.5 11t15.5 12q21 15 24 26v1q0 3 -4 4q-6 6 -14 6h-105z" />
    <glyph glyph-name="uniFECB" unicode="&#x639;" horiz-adv-x="345" arabic-form="initial" 
d="M-13 0v76h75q-17 31 -17 68q0 29 11 55.5t31 45.5q20 20 46 31.5t56 11.5q28 0 55 -11q25 -12 47 -32l-55 -54q-9 11 -22 15q-9 5 -25 5q-30 0 -48 -20q-9 -9 -14.5 -21t-5.5 -26t5.5 -26.5t14.5 -21.5q20 -20 48 -20h124v-76h-326z" />
    <glyph glyph-name="uniFECC" unicode="&#x639;" horiz-adv-x="345" arabic-form="medial" 
d="M349 0q-32 0 -55.5 3.5t-41.5 10.5t-32.5 16.5t-28.5 21.5q-30 -21 -61 -36.5t-58 -15.5h-89v76h89q11 0 26.5 8t33.5 20l-104 92l29 89h177q15 0 32 -6.5t31 -17.5q18 -14 29 -37q5 -13 5 -26q0 -14 -6 -29q-11 -31 -53 -60q-4 -2 -7.5 -5t-8.5 -5q16 -11 37 -17t56 -6
v-76zM129 209l67 -60q9 7 17.5 13t16.5 11q21 13 24 23v1q-1 1 -1.5 2t-2.5 3q-11 7 -16 7h-105z" />
    <glyph glyph-name="uni063A" unicode="&#x63a;" horiz-adv-x="409" arabic-form="isolated" 
d="M354 0h-135q-54 -26 -85.5 -57t-44.5 -63q-9 -23 -9 -44q0 -11 2 -21q5 -29 28 -51q19 -19 48.5 -29.5t67.5 -10.5h187v-76h-187q-54 0 -97 16t-72 45q-39 38 -50 92q-3 17 -3 35q0 9 1.5 27t12.5 45q14 35 42 68.5t72 62.5q-1 0 -4 3q-20 20 -31 46t-11 56q0 29 11 55.5
t31 45.5q20 20 46 31.5t56 11.5q28 0 55 -11q14 -6 25 -14t22 -18l-54 -54q-11 11 -22 15q-12 6 -26 6q-27 0 -48 -21q-19 -19 -19 -47q0 -29 19 -48q10 -9 22 -14.5t26 -5.5h124v-76zM216 365q-20 0 -34.5 14.5t-14.5 35.5q0 20 14.5 34.5t34.5 14.5q21 0 35.5 -14.5
t14.5 -34.5q0 -21 -14.5 -35.5t-35.5 -14.5z" />
    <glyph glyph-name="uniFECE" unicode="&#x63a;" horiz-adv-x="417" arabic-form="final" 
d="M236 356q-20 0 -34.5 14.5t-14.5 35.5q0 20 14.5 34.5t34.5 14.5q21 0 35.5 -14.5t14.5 -34.5q0 -21 -14.5 -35.5t-35.5 -14.5zM423 0q-33 0 -56.5 4t-41.5 10.5t-32.5 16.5t-28.5 22q-32 -21 -63.5 -43t-56 -46t-38 -49t-13.5 -50v-9q2 -27 15.5 -52t35.5 -43
q22 -19 48 -28t52 -9h177v-76h-157q-1 0 -4 -1h-11q-42 0 -82.5 14t-72.5 42q-33 28 -53 66t-24 81v17q0 35 14 68t41 63.5t62 56.5t71 50l-103 91l29 89h177q31 0 59 -20q21 -15 30 -37q6 -14 6 -28t-5 -28t-17 -29.5t-33 -31.5q-4 -3 -8 -6.5t-9 -6.5q16 -11 36.5 -16.5
t55.5 -5.5v-76zM203 209l68 -60q8 5 15.5 11t15.5 12q21 15 24 26v1q0 3 -4 4q-6 6 -14 6h-105z" />
    <glyph glyph-name="uniFECF" unicode="&#x63a;" horiz-adv-x="338" arabic-form="initial" 
d="M-13 0v76h75q-17 31 -17 68q0 29 11 55.5t31 45.5q20 20 46 31.5t56 11.5q28 0 55 -11q25 -12 47 -32l-55 -54q-9 11 -22 15q-9 5 -25 5q-30 0 -48 -20q-9 -9 -14.5 -21t-5.5 -26t5.5 -26.5t14.5 -21.5q20 -20 48 -20h124v-76h-326zM139 349q-20 0 -34.5 14.5t-14.5 35.5
q0 20 14.5 34.5t34.5 14.5q21 0 35.5 -14.5t14.5 -34.5q0 -21 -14.5 -35.5t-35.5 -14.5z" />
    <glyph glyph-name="uniFED0" unicode="&#x63a;" horiz-adv-x="345" arabic-form="medial" 
d="M166 356q-20 0 -34.5 14.5t-14.5 35.5q0 20 14.5 34.5t34.5 14.5q21 0 35.5 -14.5t14.5 -34.5q0 -21 -14.5 -35.5t-35.5 -14.5zM349 0q-32 0 -55.5 3.5t-41.5 10.5t-32.5 16.5t-28.5 21.5q-30 -21 -61 -36.5t-58 -15.5h-89v76h89q11 0 26.5 8t33.5 20l-104 92l29 89h177
q15 0 32 -6.5t31 -17.5q18 -14 29 -37q5 -13 5 -26q0 -14 -6 -29q-11 -31 -53 -60q-4 -2 -7.5 -5t-8.5 -5q16 -11 37 -17t56 -6v-76zM129 209l67 -60q9 7 17.5 13t16.5 11q21 13 24 23v1q-1 1 -1.5 2t-2.5 3q-11 7 -16 7h-105z" />
    <glyph glyph-name="uni0641" unicode="&#x641;" horiz-adv-x="729" arabic-form="isolated" 
d="M552 411q-20 0 -34.5 14.5t-14.5 35.5q0 20 14.5 34.5t34.5 14.5q21 0 35.5 -14.5t14.5 -34.5q0 -21 -14.5 -35.5t-35.5 -14.5zM702 170l1 -32h-1q-1 -28 -12 -52.5t-30 -43.5q-19 -20 -45.5 -31t-55.5 -11h-395q-29 0 -55.5 11t-46.5 31q-19 20 -30.5 46t-11.5 56h1
l-1 82h77v-82q0 -14 5.5 -26.5t14.5 -21.5q20 -20 47 -20h395q25 0 45 17h-45q-30 0 -56 11t-46 31t-31 46t-11 56t11 56t31 46t46 31t56 11q29 0 55 -11t46 -31t31 -46t11 -56v-67zM559 304q-29 0 -48 -19q-9 -9 -14.5 -21.5t-5.5 -26.5t5.5 -26.5t14.5 -21.5
q20 -20 48 -20h63l5 4l-1 64q0 30 -20 48q-19 19 -47 19z" />
    <glyph glyph-name="uniFED2" unicode="&#x641;" horiz-adv-x="814" arabic-form="final" 
d="M655 30q-8 -6 -16.5 -11t-17.5 -9q-26 -10 -55 -10h-384q-29 0 -55 11t-46 31t-31.5 46t-11.5 56v82h77v-82q0 -30 20 -48q20 -20 47 -20h384q5 0 9.5 0.5t9.5 1.5l-31 31q-21 21 -32 48t-11 54q0 48 31 90v1l12 11q20 21 46.5 31.5t54.5 10.5t54.5 -10.5t47.5 -31.5
t31.5 -47.5t10.5 -54.5q0 -27 -10.5 -54t-31.5 -48l-11 -11l-20 -20q10 -2 17 -2h83v-76h-83q-35 0 -62 14q-14 5 -26 16zM703 259q-20 20 -48 20q-27 0 -47 -20q-11 -10 -15.5 -22.5t-4.5 -25.5t4.5 -25.5t15.5 -22.5l45 -45h5l45 45q20 20 20 48t-20 48zM651 411
q-20 0 -34.5 14.5t-14.5 34.5t14.5 34.5t34.5 14.5t34.5 -14.5t14.5 -34.5t-14.5 -34.5t-34.5 -14.5z" />
    <glyph glyph-name="uniFED3" unicode="&#x641;" horiz-adv-x="355" arabic-form="initial" 
d="M321 170l1 -32h-1q-1 -28 -12 -52.5t-30 -43.5q-20 -20 -46 -31t-56 -11h-208v76h208q26 0 45 17h-45q-30 0 -56 11t-45 31q-20 20 -31.5 46t-11.5 56q0 29 11.5 55.5t31.5 46.5q19 20 45 31t56 11t56 -11t46 -31t31 -46.5t11 -55.5v-67zM177 304q-27 0 -48 -19
q-19 -19 -19 -48t19 -48q10 -9 22 -14.5t26 -5.5h64l4 4v64q0 14 -5.5 26.5t-14.5 21.5q-21 19 -48 19zM171 411q-20 0 -34.5 14.5t-14.5 34.5t14.5 34.5t34.5 14.5t34.5 -14.5t14.5 -34.5t-14.5 -34.5t-34.5 -14.5z" />
    <glyph glyph-name="uniFED4" unicode="&#x641;" horiz-adv-x="371" arabic-form="medial" 
d="M258 78q10 -2 17 -2h113v-76h-113q-35 0 -62 14q-7 3 -13.5 7t-12.5 9q-15 -12 -34 -20q-24 -10 -55 -10h-112v76h112q5 0 9.5 0.5t9.5 1.5l-31 31q-21 21 -31.5 48t-10.5 54q0 50 31 90v1l11 11q21 21 47.5 31.5t54.5 10.5q27 0 53.5 -10.5t48.5 -31.5
q21 -21 31.5 -47.5t10.5 -54.5q0 -27 -10.5 -54t-31.5 -48l-12 -11zM236 259q-20 20 -48 20t-48 -20t-20 -48t20 -48l45 -45h5l46 45q10 10 14.5 22.5t4.5 25.5t-4.5 25.5t-14.5 22.5zM195 411q-20 0 -34.5 14.5t-14.5 34.5t14.5 34.5t34.5 14.5t34.5 -14.5t14.5 -34.5
t-14.5 -34.5t-34.5 -14.5z" />
    <glyph glyph-name="uni0642" unicode="&#x642;" horiz-adv-x="522" arabic-form="isolated" 
d="M269 331q-21 0 -35.5 14.5t-14.5 34.5t14.5 34.5t35.5 14.5q20 0 34.5 -14.5t14.5 -34.5t-14.5 -34.5t-34.5 -14.5zM392 331q-20 0 -34.5 14.5t-14.5 34.5t14.5 34.5t34.5 14.5t34.5 -14.5t14.5 -34.5t-14.5 -34.5t-34.5 -14.5zM493 125v-80h-1v-7q0 -104 -61 -163
q-60 -60 -166 -61h-3q-48 0 -90 15t-74 43q-32 29 -51 69t-20 90v112h76l1 -109v-2q0 -32 12 -58t33 -44q43 -40 113 -40h2q77 2 114 39q26 26 35 70h-65q-30 0 -55.5 11t-45.5 31t-31.5 46.5t-11.5 55.5q0 30 11.5 56t31.5 46t45.5 31t55.5 11t56 -11t46 -31t31 -46t11 -56
v-18h1zM348 211q-14 0 -26 -5.5t-22 -14.5q-19 -19 -19 -48q0 -28 19 -47q21 -21 48 -21h65l3 4v64q0 28 -20 48q-9 9 -21.5 14.5t-26.5 5.5z" />
    <glyph glyph-name="uniFED6" unicode="&#x642;" horiz-adv-x="520" arabic-form="final" 
d="M497 126v-50h58v-76h-61q-11 -77 -59 -124q-59 -59 -166 -61h-4q-48 0 -89.5 15t-73.5 43q-32 29 -51 69t-20 90v112h76v-111q1 -32 13 -58t33 -45q44 -39 112 -39h3q75 1 114 39q26 26 35 70h-65q-29 0 -55.5 11t-46.5 31q-19 20 -30.5 46.5t-11.5 55.5q0 30 11.5 56
t30.5 46q20 20 46.5 31t55.5 11q30 0 56 -11t46 -31t31 -46t11 -56v-18h1zM352 76h68v68q0 28 -20 48q-9 9 -21.5 14.5t-26.5 5.5t-26 -5.5t-22 -14.5q-19 -19 -19 -48q0 -28 19 -47q21 -21 48 -21zM272 332q-20 0 -34.5 14.5t-14.5 34.5t14.5 34.5t34.5 14.5
q21 0 35.5 -14.5t14.5 -34.5t-14.5 -34.5t-35.5 -14.5zM396 332q-20 0 -35 14.5t-15 34.5t15 34.5t35 14.5t34.5 -14.5t14.5 -34.5t-14.5 -34.5t-34.5 -14.5z" />
    <glyph glyph-name="uniFED7" unicode="&#x642;" horiz-adv-x="345" arabic-form="initial" 
d="M321 170l1 -32h-1q-1 -28 -12 -52.5t-30 -43.5q-20 -20 -46 -31t-56 -11h-208v76h208q26 0 45 17h-45q-30 0 -56 11t-45 31q-20 20 -31.5 46t-11.5 56q0 29 11.5 55.5t31.5 46.5q19 20 45 31t56 11t56 -11t46 -31t31 -46.5t11 -55.5v-67zM177 304q-27 0 -48 -19
q-19 -19 -19 -48t19 -48q10 -9 22 -14.5t26 -5.5h64l4 4v64q0 14 -5.5 26.5t-14.5 21.5q-21 19 -48 19zM218 411q-20 0 -34.5 14.5t-14.5 34.5t14.5 34.5t34.5 14.5t34.5 -14.5t14.5 -34.5t-14.5 -34.5t-34.5 -14.5zM92 411q-20 0 -34.5 14.5t-14.5 34.5t14.5 34.5
t34.5 14.5t34.5 -14.5t14.5 -34.5t-14.5 -34.5t-34.5 -14.5z" />
    <glyph glyph-name="uniFED8" unicode="&#x642;" horiz-adv-x="371" arabic-form="medial" 
d="M254 78q10 -2 17 -2h113v-76h-113q-35 0 -62 14q-7 3 -13.5 7t-12.5 9q-15 -12 -34 -20q-24 -10 -55 -10h-112v76h112q5 0 9.5 0.5t9.5 1.5l-31 31q-21 21 -31.5 48t-10.5 54q0 50 31 90v1l11 11q21 21 47.5 31.5t54.5 10.5q27 0 53.5 -10.5t48.5 -31.5
q21 -21 31.5 -47.5t10.5 -54.5q0 -27 -10.5 -54t-31.5 -48l-12 -11zM232 259q-20 20 -48 20t-48 -20t-20 -48t20 -48l45 -45h5l46 45q10 10 14.5 22.5t4.5 25.5t-4.5 25.5t-14.5 22.5zM246 411q-20 0 -34.5 14.5t-14.5 34.5t14.5 34.5t34.5 14.5t34.5 -14.5t14.5 -34.5
t-14.5 -34.5t-34.5 -14.5zM118 411q-20 0 -34.5 14.5t-14.5 34.5t14.5 34.5t34.5 14.5t34.5 -14.5t14.5 -34.5t-14.5 -34.5t-34.5 -14.5z" />
    <glyph glyph-name="uni0643" unicode="&#x643;" horiz-adv-x="733" arabic-form="isolated" 
d="M697 527l-263 -143q20 -17 37 -29.5t32 -23t29.5 -19.5t30.5 -19q18 -11 38.5 -23.5t46.5 -29.5q42 -28 55 -74q4 -16 4 -33q0 -20 -6 -40q-11 -36 -40 -62q-18 -15 -41.5 -24t-52.5 -9h-395q-29 0 -55 11t-46 31t-31.5 46t-11.5 56h1l-1 82h77v-82q0 -30 20 -48
q20 -20 47 -20h395q27 0 44 15q13 11 17 27q3 9 3 18q0 6 -2 12q-5 19 -22 30q-26 17 -46 29t-37 23q-21 13 -40 24.5t-40 26.5t-45.5 35t-56.5 49l-41 36l360 195z" />
    <glyph glyph-name="uniFB8F" unicode="&#x6a9;" horiz-adv-x="785" arabic-form="final" 
d="M698 530l-264 -143q21 -17 38 -29.5t32 -23t29.5 -19.5t30.5 -19q18 -11 38.5 -23.5t46.5 -29.5q43 -30 54 -74q2 -6 3 -12t2 -13q0 -14 5.5 -26t14.5 -21q18 -20 48 -20h41v-77h-41q-30 0 -56 11.5t-46 30.5l-2 2q-2 -2 -5 -4.5t-5 -5.5q-18 -15 -42 -24.5t-53 -9.5
h-394q-29 0 -55.5 11.5t-46.5 30.5q-19 20 -30.5 46.5t-11.5 55.5h1l-1 83h77v-83q0 -29 20 -47q18 -20 47 -20h394q27 0 45 15q12 11 17 27q3 7 3 16v6q-1 2 -1 4t-1 4q-5 19 -23 30q-25 17 -45 29t-37 23q-21 13 -40 24.5t-40 26.5t-45.5 35t-57.5 49l-40 36l360 195z" />
    <glyph glyph-name="uniFB90" unicode="&#x6a9;" horiz-adv-x="459" arabic-form="initial" 
d="M423 530l-263 -143q20 -17 36.5 -29.5t31.5 -23t30 -19.5t31 -19q18 -11 38.5 -23.5t46.5 -29.5q22 -15 35.5 -34t19.5 -40q4 -16 4 -33q0 -20 -6 -40q-11 -37 -41 -62q-17 -15 -40.5 -24.5t-52.5 -9.5h-331v77h331q26 0 44 15q12 11 17 27q3 9 3 18q0 6 -2 12
q-5 19 -23 30q-26 17 -45.5 29t-36.5 23q-21 13 -40 24.5t-40 26.5t-45.5 35t-56.5 49l-41 36l359 195z" />
    <glyph glyph-name="uniFB91" unicode="&#x6a9;" horiz-adv-x="518" arabic-form="medial" 
d="M431 530l-263 -143q20 -17 37 -29.5t32 -23t29.5 -19.5t31.5 -19q35 -21 84 -53q23 -15 36 -34t19 -40q4 -15 4 -32q3 -25 20 -40q18 -20 47 -20h25v-77h-25q-29 0 -55.5 11.5t-46.5 30.5l-1 2l-10 -10q-18 -15 -41.5 -24.5t-52.5 -9.5h-318v77h318q26 0 44 15
q12 11 17 27q3 6 3 13q0 3 -0.5 6t-0.5 6t-1 5q-5 19 -23 30q-25 17 -45 29t-37 23q-21 13 -40 24.5t-40 26.5t-45.5 35t-57.5 49l-40 36l360 195z" />
    <glyph glyph-name="uni06AF" unicode="&#x6af;" horiz-adv-x="738" arabic-form="isolated" 
d="M639 630l-290 -160l-19 34l291 159zM697 527l-263 -143q20 -17 37 -29.5t32 -23t29.5 -19.5t30.5 -19q18 -11 38.5 -23.5t46.5 -29.5q42 -28 55 -74q4 -16 4 -33q0 -20 -6 -40q-11 -36 -40 -62q-18 -15 -41.5 -24t-52.5 -9h-395q-29 0 -55 11t-46 31t-31.5 46t-11.5 56h1
l-1 82h77v-82q0 -30 20 -48q20 -20 47 -20h395q27 0 44 15q13 11 17 27q3 9 3 18q0 6 -2 12q-5 19 -22 30q-26 17 -46 29t-37 23q-21 13 -40 24.5t-40 26.5t-45.5 35t-56.5 49l-41 36l360 195z" />
    <glyph glyph-name="uniFB93" unicode="&#x6af;" horiz-adv-x="784" arabic-form="final" 
d="M698 530l-264 -143q21 -17 38 -29.5t32 -23t29.5 -19.5t30.5 -19q18 -11 38.5 -23.5t46.5 -29.5q43 -30 54 -74q2 -6 3 -12t2 -13q0 -14 5.5 -26t14.5 -21q18 -20 48 -20h21v-77h-21q-30 0 -56 11.5t-46 30.5l-2 2q-2 -2 -5 -4.5t-5 -5.5q-18 -15 -42 -24.5t-53 -9.5
h-394q-29 0 -55.5 11.5t-46.5 30.5q-19 20 -30.5 46.5t-11.5 55.5h1l-1 83h77v-83q0 -29 20 -47q18 -20 47 -20h394q27 0 45 15q12 11 17 27q3 7 3 16v6q-1 2 -1 4t-1 4q-5 19 -23 30q-25 17 -45 29t-37 23q-21 13 -40 24.5t-40 26.5t-45.5 35t-57.5 49l-40 36l360 195z
M639 630l-290 -160l-19 34l291 159z" />
    <glyph glyph-name="uniFB94" unicode="&#x6af;" horiz-adv-x="456" arabic-form="initial" 
d="M423 530l-263 -143q20 -17 36.5 -29.5t31.5 -23t30 -19.5t31 -19q18 -11 38.5 -23.5t46.5 -29.5q22 -15 35.5 -34t19.5 -40q4 -16 4 -33q0 -20 -6 -40q-11 -37 -41 -62q-17 -15 -40.5 -24.5t-52.5 -9.5h-331v77h331q26 0 44 15q12 11 17 27q3 9 3 18q0 6 -2 12
q-5 19 -23 30q-26 17 -45.5 29t-36.5 23q-21 13 -40 24.5t-40 26.5t-45.5 35t-56.5 49l-41 36l359 195zM369 622l-290 -160l-19 34l291 159z" />
    <glyph glyph-name="uniFB95" unicode="&#x6af;" horiz-adv-x="518" arabic-form="medial" 
d="M431 530l-263 -143q20 -17 37 -29.5t32 -23t29.5 -19.5t31.5 -19q35 -21 84 -53q23 -15 36 -34t19 -40q4 -15 4 -32q3 -25 20 -40q18 -20 47 -20h25v-77h-25q-29 0 -55.5 11.5t-46.5 30.5l-1 2l-10 -10q-18 -15 -41.5 -24.5t-52.5 -9.5h-318v77h318q26 0 44 15
q12 11 17 27q3 6 3 13q0 3 -0.5 6t-0.5 6t-1 5q-5 19 -23 30q-25 17 -45 29t-37 23q-21 13 -40 24.5t-40 26.5t-45.5 35t-57.5 49l-40 36l360 195zM369 622l-290 -160l-19 34l291 159z" />
    <glyph glyph-name="uni0644" unicode="&#x644;" horiz-adv-x="525" arabic-form="isolated" 
d="M502 461v-423q0 -104 -61 -163q-61 -60 -167 -61h-3q-48 0 -89.5 15t-73.5 43q-32 29 -51 69t-20 90v112h76v-111q1 -32 13 -58t33 -44q21 -20 50 -30t62 -10h2q76 1 114 39q39 37 39 109v423h76z" />
    <glyph glyph-name="uniFEDE" unicode="&#x644;" horiz-adv-x="563" arabic-form="final" 
d="M485 464v-320q0 -28 21 -47q18 -20 47 -20h24v-77h-24q-18 0 -35.5 5t-33.5 13q-6 -88 -60 -140q-59 -59 -166 -61h-3q-48 0 -90 15t-74 43q-32 29 -51 69t-20 90v113h76v-112q1 -32 13 -58t33 -45q44 -39 113 -39h2q75 1 114 39q38 38 38 109v423h76z" />
    <glyph glyph-name="uniFEDF" unicode="&#x644;" horiz-adv-x="166" arabic-form="initial" 
d="M-7 76q30 0 48 20q20 20 20 47v319h76v-319q0 -29 -11 -55.5t-31 -46.5q-20 -19 -46 -30.5t-56 -11.5v77z" />
    <glyph glyph-name="uniFEE0" unicode="&#x644;" horiz-adv-x="203" arabic-form="medial" 
d="M-4 76q28 0 48 20t20 47v319h76v-319q0 -14 5.5 -26t14.5 -21q20 -20 48 -20v-77q-30 0 -56 11.5t-46 30.5q-1 2 -4 5q-2 -1 -4 -5q-20 -19 -46 -30.5t-56 -11.5v77z" />
    <glyph glyph-name="uni0645" unicode="&#x645;" horiz-adv-x="531" arabic-form="isolated" 
d="M41 -187v331q0 30 11 56t31 46t46 31t56 11h40l144 -1q30 0 56 -11t46 -31t31 -46t11 -56q0 -29 -11 -55t-31 -46t-46 -31.5t-56 -11.5q-29 0 -55.5 11.5t-46.5 31.5q-19 20 -30.5 46t-11.5 55v68l-40 1v-1q-29 0 -48 -19q-9 -9 -14.5 -21.5t-5.5 -26.5v-331h-76z
M437 143q0 28 -20 48q-9 9 -21.5 14.5t-26.5 5.5h-67v-68q0 -28 19 -47q20 -20 48 -20q30 0 48 20q20 20 20 47z" />
    <glyph glyph-name="uniFEE2" unicode="&#x645;" horiz-adv-x="512" arabic-form="final" 
d="M152 213q-23 -5 -38 -20q-20 -18 -20 -47v-267h-76v267q0 29 11 55t31 46q18 18 41.5 29t50.5 13h145q61 0 101 -42q20 -20 31.5 -46t11.5 -55v-1q0 -29 19 -48q20 -20 48 -20h12v-76h-12q-30 0 -56 11t-46 31q-3 3 -4 5q-1 -2 -2 -2.5t-2 -1.5q-40 -42 -101 -42
q-62 0 -102 42q-20 20 -31.5 46t-11.5 56h1zM297 78q29 0 47 20q20 18 20 48q0 29 -20 47q-18 20 -47 20h-68v-67q0 -14 5.5 -26.5t14.5 -21.5q18 -20 48 -20z" />
    <glyph glyph-name="uniFEE3" unicode="&#x645;" horiz-adv-x="380" arabic-form="initial" 
d="M117 48l-5 -5q-20 -20 -46 -31t-56 -11h-23v76h23q14 0 26 5.5t22 14.5q20 20 20 48v144h144q62 0 102 -42q20 -20 31 -46t11 -55q0 -30 -11 -56t-31 -46q-40 -42 -102 -42q-60 0 -102 42q-1 1 -1.5 2t-1.5 2zM222 78q30 0 48 20q20 20 20 48q0 27 -20 47q-18 20 -48 20
h-68l1 -67q0 -29 19 -48q20 -20 48 -20z" />
    <glyph glyph-name="uniFEE4" unicode="&#x645;" horiz-adv-x="335" arabic-form="medial" 
d="M-14 76h44l1 69q0 29 11 55.5t31 45.5q20 20 46 31.5t56 11.5q29 0 55 -11.5t46 -31.5q20 -19 31 -45.5t11 -55.5q0 -37 -17 -69h48v-76h-363v76zM175 213q-29 0 -48 -21q-20 -18 -20 -47v-68h68q14 0 26 5.5t21 14.5q20 18 20 48q0 29 -20 47q-19 21 -47 21z" />
    <glyph glyph-name="uni0646" unicode="&#x646;" horiz-adv-x="542" arabic-form="isolated" 
d="M277 121q23 0 35 -14q15 -15 15 -35q0 -22 -15 -35q-12 -15 -35 -15q-22 0 -35 15q-14 12 -14 35q0 21 14 35t35 14zM508 224v-186q0 -104 -61 -163q-59 -59 -166 -61h-3q-48 0 -89.5 15t-73.5 43q-33 29 -52 69t-20 90v112h76v-109h1v-2l-1 -1v1q1 -32 13 -58t33 -44
q43 -40 113 -40h2q77 2 114 39q38 38 38 109v186h76z" />
    <glyph glyph-name="uniFEE6" unicode="&#x646;" horiz-adv-x="553" arabic-form="final" 
d="M260 123q20 0 34.5 -14.5t14.5 -34.5q0 -21 -14.5 -35.5t-34.5 -14.5t-35 14.5t-15 35.5q0 20 15 34.5t35 14.5zM491 226v-131q4 -4 8 -7t9 -5q13 -7 30 -7h33v-76h-33q-13 0 -25.5 1.5t-23.5 6.5q-9 -82 -60 -131q-60 -60 -166 -61h-3q-48 0 -89.5 15t-73.5 43
q-33 29 -52 69t-19 90l-1 3v109h77v-111q0 -32 12.5 -58t32.5 -45q45 -39 113 -39h3q76 2 113 39q38 38 38 109l1 186h76z" />
    <glyph glyph-name="uniFEE7" unicode="&#x646;" horiz-adv-x="254" arabic-form="initial" 
d="M241 288v-144q0 -30 -11 -56t-31 -46t-46 -31t-56 -11h-107v76h107q14 0 26.5 5.5t21.5 14.5q20 20 20 48v144h76zM83 395q20 0 35 -14.5t15 -34.5t-15 -34.5t-35 -14.5t-34.5 14.5t-14.5 34.5t14.5 34.5t34.5 14.5z" />
    <glyph glyph-name="uniFEE8" unicode="&#x646;" horiz-adv-x="305" arabic-form="medial" 
d="M-10 76h60q14 0 26 5.5t21 14.5q21 19 21 48v82h76v-82q0 -14 5.5 -26.5t14.5 -21.5q20 -20 47 -20h52v-76h-52q-29 0 -55 11t-46 31q-2 1 -2.5 2t-1.5 2l-4 -4q-20 -20 -46.5 -31t-55.5 -11h-60v76zM154 392q20 0 35 -14.5t15 -34.5t-15 -34.5t-35 -14.5t-34.5 14.5
t-14.5 34.5t14.5 34.5t34.5 14.5z" />
    <glyph glyph-name="uni0648" unicode="&#x648;" horiz-adv-x="387" arabic-form="isolated" 
d="M51 -108h134q28 0 47 19q20 20 20 48v41h-68q-30 0 -56 11t-46 31t-31 46t-11 56q0 29 11 55.5t31 45.5q20 20 46 31.5t56 11.5t56 -11.5t46 -31.5q20 -19 31 -45.5t11 -55.5v-79h1v-106q0 -29 -11.5 -55t-31.5 -46t-46 -31.5t-55 -11.5h-134v77zM184 212q-27 0 -48 -21
q-19 -19 -19 -47q0 -29 19 -48q10 -9 22 -14.5t26 -5.5h68v68q0 27 -20 47q-19 21 -48 21z" />
    <glyph glyph-name="uniFEEE" unicode="&#x648;" horiz-adv-x="336" arabic-form="final" 
d="M167 77h68v68q0 27 -20 47t-48 20t-48 -20q-9 -9 -14.5 -21t-5.5 -26t5.5 -26.5t14.5 -21.5q10 -9 22 -14.5t26 -5.5zM348 1h-37v-41q0 -29 -11 -55.5t-31 -45.5q-20 -20 -46 -31.5t-56 -11.5h-134v76h134q29 0 48 21q20 20 20 47v41h-68q-30 0 -56 11t-45 31
q-20 20 -31.5 46t-11.5 56q0 29 11.5 55t31.5 46q19 20 45 31.5t56 11.5t56 -11.5t46 -31.5t31 -46t11 -55v-68h37v-76z" />
    <glyph glyph-name="uni0647" unicode="&#x647;" horiz-adv-x="351" arabic-form="isolated" 
d="M322 147v-6q0 -21 -6.5 -43t-21.5 -42q-3 -4 -6 -7.5t-6 -6.5q-3 -4 -6 -6.5t-7 -5.5q-20 -17 -43.5 -24.5t-48.5 -7.5q-24 0 -47.5 8t-43.5 25q-3 3 -6 5.5t-5 5.5q-4 3 -6.5 6t-4.5 6q-29 37 -29 84v9q1 25 10 48t27 43q2 3 7 8q26 25 50 49.5t50 50.5q24 -25 48.5 -50
t48.5 -49q3 -3 6 -5.5t5 -6.5q17 -19 25.5 -42t9.5 -46zM233 101q7 9 10 20.5t3 22.5q-2 24 -17 42l-7 7l-44 44l-45 -45l-5 -5q-17 -19 -17 -43v-6q0 -21 13 -38l5 -5q2 -3 6 -5q17 -16 43 -16q23 0 43 15q3 1 6 6z" />
    <glyph glyph-name="uniFEEA" unicode="&#x647;" horiz-adv-x="388" arabic-form="final" 
d="M311 142q0 -14 5.5 -26.5t14.5 -21.5q20 -20 48 -20h18v-76h-18q-30 0 -56 11t-46 31q-2 1 -2.5 2t-2.5 3q-1 -1 -1.5 -2t-2.5 -2q-40 -42 -101 -42q-62 0 -102 42q-20 20 -31 46t-11 56q0 29 11 55t31 46q40 42 102 42h144v-144zM167 75q29 0 47 20q20 18 20 48l1 67
h-68q-30 0 -48 -20q-9 -9 -14.5 -21t-5.5 -26t5.5 -26.5t14.5 -21.5q18 -20 48 -20z" />
    <glyph glyph-name="uniFEEB" unicode="&#x647;" horiz-adv-x="508" arabic-form="initial" 
d="M-18 0v76h54q-24 38 -24 85q0 33 12.5 62t34.5 51t51 34.5t63 12.5q33 0 62 -12.5t51 -34.5q47 -45 47 -113q0 -49 -24 -85h33q27 0 45 13q16 12 20 30q3 9 3 19q0 11 -4 24q-5 17 -17 34t-33 34l-201 156l47 60l201 -156h1q30 -24 49 -51t27 -56q6 -23 6 -44
q0 -22 -6 -42q-12 -41 -48 -69q-37 -28 -90 -28h-360zM173 76q35 0 60 25q24 24 24 60q0 35 -24 59q-25 25 -60 25q-37 0 -60 -25q-24 -24 -24 -59q0 -36 24 -60q23 -25 60 -25z" />
    <glyph glyph-name="uniFEEC" unicode="&#x647;" horiz-adv-x="347" arabic-form="medial" 
d="M-11 76h39v69q0 29 11 55.5t31 45.5q20 20 46 31.5t56 11.5q29 0 55.5 -11.5t46.5 -31.5q19 -19 30.5 -45.5t11.5 -55.5q0 -19 -4.5 -36t-12.5 -33h56v-76h-56q17 -31 17 -67q0 -30 -11.5 -56t-30.5 -46q-20 -20 -46.5 -31t-55.5 -11q-30 0 -56 11t-46 31t-31 46t-11 56
v67h-39v76zM172 -134q27 0 48 19q19 19 19 48t-19 48q-10 9 -22 14.5t-26 5.5h-68v-68q0 -14 5.5 -26.5t14.5 -21.5q19 -19 48 -19zM172 213q-29 0 -48 -21q-9 -9 -14.5 -21t-5.5 -26v-68h68q14 0 26 5.5t22 14.5q19 19 19 48q0 28 -19 47q-21 21 -48 21z" />
    <glyph glyph-name="uni0629" unicode="&#x629;" horiz-adv-x="351" arabic-form="isolated" 
d="M241 441l-133 -68l-10 22l44 24q-38 23 -38 57q0 29 17 48t45 19q11 0 37 -10l-10 -20q-12 7 -24 7q-42 0 -42 -44q0 -34 33 -34q26 0 68 21zM322 147v-6q0 -21 -6.5 -43t-21.5 -42q-3 -4 -6 -7.5t-6 -6.5q-3 -4 -6 -6.5t-7 -5.5q-20 -17 -43.5 -24.5t-48.5 -7.5
q-24 0 -47.5 8t-43.5 25q-3 3 -6 5.5t-5 5.5q-4 3 -6.5 6t-4.5 6q-29 37 -29 84v9q1 25 10 48t27 43q2 3 7 8q26 25 50 49.5t50 50.5q24 -25 48.5 -50t48.5 -49q3 -3 6 -5.5t5 -6.5q17 -19 25.5 -42t9.5 -46zM233 101q7 9 10 20.5t3 22.5q-2 24 -17 42l-7 7l-44 44l-45 -45
l-5 -5q-17 -19 -17 -43v-6q0 -21 13 -38l5 -5q2 -3 6 -5q17 -16 43 -16q23 0 43 15q3 1 6 6z" />
    <glyph glyph-name="uniFBA5" unicode="&#x6c0;" horiz-adv-x="387" arabic-form="final" 
d="M263 393l-132 -66l-11 21l46 26q-40 20 -40 55q0 28 17.5 47.5t45.5 19.5q18 0 37 -8l-10 -22q-13 7 -23 7q-19 0 -31 -12.5t-12 -31.5q0 -35 34 -35q26 0 68 23zM311 142q0 -14 5.5 -26.5t14.5 -21.5q20 -20 48 -20h18v-76h-18q-30 0 -56 11t-46 31q-2 1 -2.5 2t-2.5 3
q-1 -1 -1.5 -2t-2.5 -2q-40 -42 -101 -42q-62 0 -102 42q-20 20 -31 46t-11 56q0 29 11 55t31 46q40 42 102 42h144v-144zM167 75q29 0 47 20q20 18 20 48l1 67h-68q-30 0 -48 -20q-9 -9 -14.5 -21t-5.5 -26t5.5 -26.5t14.5 -21.5q18 -20 48 -20z" />
    <glyph glyph-name="uni064A" unicode="&#x64a;" horiz-adv-x="511" arabic-form="isolated" 
d="M97 143v-111q1 -32 13 -58t33 -44q45 -40 113 -40h2q62 1 101 28q36 27 47 76q0 2 2 2h3l-1 1q-2 2 -7 2h-13h-48q-29 0 -55 11t-46 31t-31.5 46.5t-11.5 55.5q0 30 11.5 56t31.5 46t46 31t55 11q30 0 56 -11t46 -31t31 -46t11 -56h-76q0 28 -20 48q-9 9 -21.5 14.5
t-26.5 5.5t-26 -5.5t-22 -14.5q-19 -19 -19 -48q0 -28 19 -47q21 -21 48 -21h48q19 0 35.5 -3.5t30.5 -13.5q17 -13 22.5 -27.5t5.5 -27.5q0 -12 -3 -25q-18 -77 -77 -121q-58 -42 -145 -43h-3q-48 0 -90 15t-74 43q-32 29 -51 69t-20 90v112h76z" />
    <glyph glyph-name="uniFBFD" unicode="&#x6cc;" horiz-adv-x="491" arabic-form="final" 
d="M94 144v-112q1 -32 13 -58t33 -44q21 -19 50 -29.5t63 -10.5h2q68 2 102 24q33 23 42 68q0 -1 -1 -2t-2 -1h-1q-8 5 -19 8t-23 6q-22 4 -43 5.5t-35 1.5v76h230v-76h-32q1 -5 1.5 -9.5t0.5 -9.5q0 -8 -1 -13q-15 -78 -75 -117q-56 -36 -143 -36l-4 -1h1v1h-6
q-45 0 -85 14.5t-72 43.5q-33 29 -52 69t-20 90v112h76z" />
    <glyph glyph-name="uniFBFE" unicode="&#x6cc;" horiz-adv-x="295" arabic-form="initial" 
d="M241 288v-144q0 -30 -11 -56t-31 -46t-46 -31t-56 -11h-107v76h107q14 0 26.5 5.5t21.5 14.5q20 20 20 48v144h76zM191 -72q20 0 35 -14.5t15 -34.5t-15 -34.5t-35 -14.5t-34.5 14.5t-14.5 34.5t14.5 34.5t34.5 14.5zM73 -72q20 0 35 -14.5t15 -34.5t-15 -34.5t-35 -14.5
t-34.5 14.5t-14.5 34.5t14.5 34.5t34.5 14.5z" />
    <glyph glyph-name="uniFBFF" unicode="&#x6cc;" horiz-adv-x="306" arabic-form="medial" 
d="M-10 76h60q14 0 26 5.5t21 14.5q21 19 21 48v82h76v-82q0 -14 5.5 -26.5t14.5 -21.5q20 -20 47 -20h52v-76h-52q-29 0 -55 11t-46 31q-2 1 -2.5 2t-1.5 2l-4 -4q-20 -20 -46.5 -31t-55.5 -11h-60v76zM181 -79q20 0 35 -14.5t15 -34.5t-15 -34.5t-35 -14.5t-34.5 14.5
t-14.5 34.5t14.5 34.5t34.5 14.5zM62 -79q20 0 35 -14.5t15 -34.5t-15 -34.5t-35 -14.5t-34.5 14.5t-14.5 34.5t14.5 34.5t34.5 14.5z" />
    <glyph glyph-name="uni0649" unicode="&#x649;" horiz-adv-x="516" arabic-form="isolated" 
d="M97 143v-111q1 -32 13 -58t33 -44q45 -40 113 -40h2q62 1 101 28q36 27 47 76q0 2 2 2h3l-1 1q-2 2 -7 2h-13h-48q-29 0 -55 11t-46 31t-31.5 46.5t-11.5 55.5q0 30 11.5 56t31.5 46t46 31t55 11q30 0 56 -11t46 -31t31 -46t11 -56h-76q0 28 -20 48q-9 9 -21.5 14.5
t-26.5 5.5t-26 -5.5t-22 -14.5q-19 -19 -19 -48q0 -28 19 -47q21 -21 48 -21h48q19 0 35.5 -3.5t30.5 -13.5q17 -13 22.5 -27.5t5.5 -27.5q0 -12 -3 -25q-18 -77 -77 -121q-58 -42 -145 -43h-3q-48 0 -90 15t-74 43q-32 29 -51 69t-20 90v112h76z" />
    <glyph glyph-name="uniFEF0" unicode="&#x649;" horiz-adv-x="489" arabic-form="final" 
d="M94 144v-112q1 -32 13 -58t33 -44q21 -19 50 -29.5t63 -10.5h2q68 2 102 24q33 23 42 68q0 -1 -1 -2t-2 -1h-1q-8 5 -19 8t-23 6q-22 4 -43 5.5t-35 1.5v76h230v-76h-32q1 -5 1.5 -9.5t0.5 -9.5q0 -8 -1 -13q-15 -78 -75 -117q-56 -36 -143 -36l-4 -1h1v1h-6
q-45 0 -85 14.5t-72 43.5q-33 29 -52 69t-20 90v112h76z" />
    <glyph glyph-name=".notdef" horiz-adv-x="444" 
d="M55 0v590h333v-590h-333zM110 55h223v479h-223v-479z" />
    <glyph glyph-name="NULL" 
 />
    <glyph glyph-name="nonmarkingreturn" horiz-adv-x="203" 
 />
    <glyph glyph-name="space.001" horiz-adv-x="55" 
 />
    <glyph glyph-name="exclam.001" horiz-adv-x="203" 
d="M142 329q0 -5 -6 -59l-12 -120h-41l-18 179v171h77v-171zM161 52q0 -52 -59 -52q-54 0 -54 52q0 48 57 48q56 0 56 -48z" />
    <glyph glyph-name="percent.001" horiz-adv-x="638" 
d="M607 20q0 -48 -40 -83q-37 -32 -86 -32q-45 0 -84 34q-39 36 -39 82q0 47 39.5 86t87.5 39t85 -38.5t37 -87.5zM554 24q0 26 -21.5 47t-47.5 21q-29 0 -51.5 -22t-22.5 -50q0 -32 33 -52q19 -14 41 -14q27 0 48 21.5t21 48.5zM489 403l-280 -508h-75l277 508h78zM279 285
q0 -47 -41 -82q-39 -34 -89 -34q-46 0 -83 35.5t-37 83.5t38 83.5t87 35.5q48 0 86.5 -37.5t38.5 -84.5zM224 288q0 26 -23 46.5t-52 20.5q-27 0 -47 -21.5t-20 -50.5q0 -27 23 -46q22 -17 50 -17t48.5 20.5t20.5 47.5z" />
    <glyph glyph-name="parenleft.001" horiz-adv-x="312" 
d="M279 606q-71 -135 -99 -220q-41 -121 -41 -240q0 -150 31 -268q33 -115 107 -248h-43q-88 127 -129 233q-46 125 -46 263q0 130 51 253q36 86 128 227h41z" />
    <glyph glyph-name="parenright.001" horiz-adv-x="312" 
d="M253 115q0 -133 -50 -257q-37 -86 -130 -228h-41q141 260 141 460q0 161 -31 269q-26 87 -108 247h43q89 -130 128 -231q48 -125 48 -260z" />
    <glyph glyph-name="asterisk.001" horiz-adv-x="295" 
d="M265 49l-9 -18l-103 58v-118h-19v118l-103 -60l-10 19l102 57l-102 60l10 19l103 -58v117h19v-117l102 59l10 -18l-102 -60zM163 107l-10 19h-19l-11 -21l11 -16h19z" />
    <glyph glyph-name="plus.001" horiz-adv-x="553" 
d="M517 104h-203v-202h-73v202h-202v77h202v200h73v-200h203v-77z" />
    <glyph glyph-name="comma.001" horiz-adv-x="114" 
d="M2 15q0 47 59 47q35 0 47 -18q8 -14 8 -52q0 -69 -11 -97q-18 -48 -77 -55v29q35 3 46 32q7 16 9 60q-81 0 -81 54z" />
    <glyph glyph-name="hyphen.001" horiz-adv-x="498" 
d="M467 104h-426v77h426v-77z" />
    <glyph glyph-name="period.001" horiz-adv-x="244" 
d="M181 42q0 -52 -60 -52q-55 0 -55 52q0 48 59 48q56 0 56 -48z" />
    <glyph glyph-name="slash.001" horiz-adv-x="421" 
d="M392 403l-282 -508h-74l278 508h78z" />
    <glyph glyph-name="colon.001" horiz-adv-x="244" 
d="M185 235q0 -51 -59 -51q-57 0 -57 51q0 48 60 48q56 0 56 -48zM186 52q0 -52 -60 -52q-23 0 -39.5 14t-16.5 38q0 48 61 48q55 0 55 -48z" />
    <glyph glyph-name="equal" unicode="=" horiz-adv-x="440" 
d="M92 340q-8 0 -17 -0.5t-17 -1t-14 -1t-7 -0.5q-1 2 -3 12t-2 25t2 24.5t8 14t18 6t32 1.5h256q7 0 16.5 0.5t17.5 1t14 1t7 0.5q1 -2 3 -12t2 -25t-2 -24.5t-8 -14t-18 -6t-32 -1.5h-256zM92 180q-8 0 -17 -0.5t-17 -1t-14 -1t-7 -0.5q-1 2 -3 12t-2 25t2 24.5t8 14t18 6
t32 1.5h256q7 0 16.5 0.5t17.5 1t14 1t7 0.5q1 -2 3 -12t2 -25t-2 -24.5t-8 -14t-18 -6t-32 -1.5h-256z" />
    <glyph glyph-name="bracketleft" unicode="[" horiz-adv-x="260" 
d="M60 666q0 8 -0.5 17t-1.5 18q-1 10 -1 21q1 0 10.5 -0.5t21.5 -1t24.5 -1t20.5 -0.5h48q20 0 32 -0.5t18 -4.5t8 -12.5t2 -23.5t-2 -25t-3 -12q-1 0 -7 0.5t-14 1t-17.5 1t-16.5 0.5l-39 -2l-3 -14v-673h42q7 0 16.5 0.5t17.5 1t14 1t7 0.5q1 -2 3 -12t2 -25t-2 -23.5
t-8 -12.5t-18 -4.5t-32 -0.5h-48q-8 0 -20.5 -0.5t-24.5 -1t-21.5 -1t-10.5 -0.5q0 1 0.5 7t1 14t1 17t0.5 17v734z" />
    <glyph glyph-name="bracketright" unicode="]" horiz-adv-x="261" 
d="M200 -68v-18t1 -18q1 -11 2 -20q-1 0 -10.5 0.5t-21.5 1t-25 1t-20 0.5h-48q-20 0 -32 0.5t-18 4.5t-8 12.5t-2 23.5t2 25t3 12q1 0 7 -0.5t14 -1t17 -1t17 -0.5l44 2l-2 15v674h-42q-8 0 -17 -0.5t-17 -1t-14 -1t-7 -0.5q-1 2 -3 12t-2 25t2 23.5t8 12.5t18 4.5t32 0.5
h48q7 0 20 0.5t25 1t21.5 1t10.5 0.5q0 -1 -0.5 -7t-1 -14t-1 -17.5t-0.5 -16.5v-736z" />
    <glyph glyph-name="braceleft" unicode="{" horiz-adv-x="260" 
d="M20 324q16 4 33 12.5t17 25.5q0 52 -5 103.5t-5 104.5q0 75 32.5 113.5t89.5 38.5q20 0 33 -0.5t20.5 -4.5t10.5 -12.5t3 -23.5t-2 -27.5t-3 -14.5q-10 3 -22.5 5.5t-24.5 2.5q-27 0 -42.5 -21t-15.5 -66q0 -51 5 -102t5 -102q0 -17 -6.5 -32t-14.5 -23q7 -7 14 -22.5
t7 -32.5q0 -51 -5 -102t-5 -102q0 -45 15.5 -66t42.5 -21q12 0 24.5 2.5t22.5 5.5q1 -2 3 -14.5t2 -27.5t-3 -23.5t-10.5 -12.5t-20.5 -4.5t-33 -0.5q-57 0 -89.5 38.5t-32.5 113.5q0 53 5 104.5t5 103.5q0 17 -17 25.5t-33 12.5v46z" />
    <glyph glyph-name="braceright" unicode="}" horiz-adv-x="260" 
d="M240 276q-16 -4 -33 -12.5t-17 -25.5q0 -52 5 -103.5t5 -104.5q0 -75 -32.5 -113.5t-89.5 -38.5q-20 0 -33 0.5t-20.5 4.5t-10.5 12.5t-3 23.5t2 27.5t3 14.5q10 -3 22.5 -5.5t24.5 -2.5q27 0 42.5 21t15.5 66q0 51 -5 102t-5 102q0 17 6.5 32t14.5 23q-7 7 -14 22.5
t-7 32.5q0 51 5 102t5 102q0 45 -15.5 66t-42.5 21q-12 0 -24.5 -2.5t-22.5 -5.5q-1 2 -3 14.5t-2 27.5t3 23.5t10.5 12.5t20.5 4.5t33 0.5q57 0 89.5 -38.5t32.5 -113.5q0 -53 -5 -104.5t-5 -103.5q0 -17 17 -25.5t33 -12.5v-46z" />
    <glyph glyph-name="guillemotleft" unicode="&#xab;" horiz-adv-x="401" 
d="M359 2l-137 108v84l137 109v-62l-112 -88l112 -87v-64zM183 2l-141 108v84l141 109v-62l-116 -88l116 -87v-64z" />
    <glyph glyph-name="guillemotright" unicode="&#xbb;" horiz-adv-x="401" 
d="M358 110l-138 -108v63l113 85l-113 90v63l138 -109v-84zM181 110l-140 -108v63l112 85l-112 90v63l140 -109v-84z" />
    <glyph glyph-name="multiply" unicode="&#xd7;" horiz-adv-x="553" 
d="M512 -39l-55 -54l-178 180l-181 -180l-54 53l182 182l-183 180l54 55l180 -182l182 183l53 -56l-180 -180z" />
    <glyph glyph-name="divide" unicode="&#xf7;" horiz-adv-x="508" 
d="M308 322q0 -23 -18.5 -41.5t-41.5 -18.5q-24 0 -41 19q-15 19 -15 44q0 23 17.5 39t39.5 16q23 0 41 -17t18 -41zM476 98h-445v77h445v-77zM304 -52q0 -23 -18 -40t-43 -17q-22 0 -40 19q-15 18 -15 41q0 25 18 41t42 16q23 0 39.5 -18.5t16.5 -41.5z" />
    <glyph glyph-name="uni200C" unicode="&#x200c;" horiz-adv-x="20" 
 />
    <glyph glyph-name="uni200D" unicode="&#x200d;" horiz-adv-x="20" 
 />
    <glyph glyph-name="uni200E" unicode="&#x200e;" horiz-adv-x="18" 
d="M117 626l-51 -54l-14 13l35 33h-69v-618h-18v635h85l-33 32l14 13z" />
    <glyph glyph-name="uni200F" unicode="&#x200f;" horiz-adv-x="18" 
d="M18 0h-18v618h-69l34 -33l-13 -13l-54 54l54 54l13 -13l-32 -32h85v-635z" />
    <glyph glyph-name="quoteleft" unicode="&#x2018;" horiz-adv-x="287" 
d="M203 424q0 -48 -60 -48q-35 0 -46 19q-9 12 -9 50q0 70 11 99q18 48 76 54v-29q-32 -3 -46 -33q-6 -17 -8 -59q82 0 82 -53z" />
    <glyph glyph-name="quoteright" unicode="&#x2019;" horiz-adv-x="247" 
d="M66 550q0 48 59 48q36 0 47 -19q9 -13 9 -51q0 -71 -12 -99q-19 -48 -76 -53v28q35 3 47 33q6 15 7 59q-81 0 -81 54z" />
    <glyph glyph-name="quotedblleft" unicode="&#x201c;" horiz-adv-x="268" 
d="M131 421q0 -48 -60 -48q-35 0 -46 19q-8 13 -8 51q0 71 11 99q19 49 76 53v-28q-35 -3 -46 -33q-7 -16 -8 -58q81 0 81 -55zM262 424q0 -48 -59 -48q-36 0 -47 19q-9 12 -9 50q0 70 11 99q19 48 76 54v-29q-32 -3 -46 -33q-5 -17 -7 -59q81 0 81 -53z" />
    <glyph glyph-name="quotedblright" unicode="&#x201d;" horiz-adv-x="268" 
d="M147 550q0 48 59 48q37 0 48 -19q8 -13 8 -51q0 -71 -11 -99q-19 -48 -76 -53v28q33 3 47 33q6 15 7 59q-82 0 -82 54zM17 548q0 47 58 47q35 0 48 -19q8 -13 8 -50q0 -70 -10 -99q-18 -48 -77 -54v28q33 5 45 35q7 16 9 58q-81 0 -81 54z" />
    <glyph glyph-name="guilsinglleft" unicode="&#x2039;" horiz-adv-x="273" 
d="M212 2l-139 108v84l139 109v-62l-111 -88l111 -87v-64z" />
    <glyph glyph-name="guilsinglright" unicode="&#x203a;" horiz-adv-x="248" 
d="M205 110l-139 -108v63l115 85l-115 90v63l139 -109v-84z" />
    <glyph glyph-name="uni060C" unicode="&#x60c;" horiz-adv-x="224" 
d="M168 48q0 -48 -59 -48q-36 0 -47 19q-8 13 -8 50q0 71 11 99q18 49 77 55v-30q-36 -4 -47 -32q-6 -16 -8 -59q81 0 81 -54z" />
    <glyph glyph-name="uni061B" unicode="&#x61b;" horiz-adv-x="244" 
d="M184 224q0 -48 -59 -48q-37 0 -50 18q-8 14 -8 51q0 69 11 98q18 45 76 53v-27q-34 -8 -45 -33q-6 -16 -7 -59q82 0 82 -53zM185 48q0 -48 -59 -48q-57 0 -57 48q0 52 60 52q56 0 56 -52z" />
    <glyph glyph-name="uni061F" unicode="&#x61f;" horiz-adv-x="351" 
d="M321 336h-76q0 97 -68 97q-65 0 -65 -60q0 -22 11 -33l38 -41q36 -40 44 -60q10 -27 15 -93h-75q0 45 -14 74q-8 18 -40 47q-32 32 -42 47q-17 26 -17 62q0 61 43 95q39 30 103 30q45 0 81 -21q39 -23 53 -62q8 -27 9 -82zM231 48q0 -22 -17 -36q-15 -12 -38 -12
q-20 0 -34.5 14t-14.5 34q0 43 53 43q51 0 51 -43z" />
    <glyph glyph-name="uni0640" unicode="&#x640;" horiz-adv-x="203" 
d="M220 0h-230v76h230v-76z" />
    <glyph glyph-name="uni064B" unicode="&#x64b;" 
d="M236 771l-137 -75l-12 23l137 75zM235 721l-136 -74l-12 21l137 75z" />
    <glyph glyph-name="uni064C" unicode="&#x64c;" 
d="M243 741q0 -39 -20 -51l-124 -65l-12 21q22 14 26 22q0 16 -19 16q-12 0 -21 -5l-8 14q24 10 37 10q24 0 30 -35l34 19q-35 20 -35 50q0 39 38 54q14 5 17 5q22 0 39.5 -15.5t17.5 -39.5zM224 741q0 15 -12 24.5t-26 9.5q-36 0 -36 -37q0 -34 38 -34q12 0 24 12.5
t12 24.5z" />
    <glyph glyph-name="uni064D" unicode="&#x64d;" 
d="M98 -317l-136 -73l-12 20l136 75zM98 -379l-136 -74l-12 21l136 76z" />
    <glyph glyph-name="uni064E" unicode="&#x64e;" 
d="M235 719l-136 -73l-12 20l137 76z" />
    <glyph glyph-name="uni064F" unicode="&#x64f;" 
d="M151 709q8 0 14 6t6 14t-6 14t-14 6q-7 0 -13 -6q-7 -7 -7 -14t7 -14q6 -6 13 -6zM172 696l-63 -36l-9 16l32 19q-6 4 -8 6q-11 11 -11 28t11 28t27 11q17 0 28 -11t11 -28q0 -15 -11 -28q-1 -1 -7 -5z" />
    <glyph glyph-name="uni0650" unicode="&#x650;" 
d="M75 -339l-97 -56l-10 16l98 56z" />
    <glyph glyph-name="uni0651" unicode="&#x651;" 
d="M229 744v-36q0 -14 -10 -24q-11 -9 -23 -9q-14 0 -23 9l-1 1v-1q-11 -9 -23 -9q-14 0 -23 9q-10 10 -10 24v36h19v-36q0 -6 4 -10t10 -4t10 4t4 10v36h19v-36q0 -7 4 -10q4 -4 10 -4t9 4q5 3 5 10v36h19z" />
    <glyph glyph-name="uni0652" unicode="&#x652;" 
d="M211 710q0 -23 -17 -38.5t-42 -15.5q-22 0 -37 17.5t-15 41.5q0 23 17 37.5t41 14.5t38.5 -17t14.5 -40zM190 711q0 27 -25 35q-8 3 -10 3q-13 0 -25 -11t-12 -27q0 -14 12 -25t25 -11q14 0 24.5 12t10.5 24z" />
    <glyph glyph-name="uE820" unicode="&#xe820;" 
d="M240 498l-136 -73l-12 20l137 76z" />
    <glyph glyph-name="uE821" unicode="&#xe821;" 
d="M161 509q8 0 14 6t6 14t-6 14t-14 6q-7 0 -13 -6q-7 -7 -7 -14t7 -14q6 -6 13 -6zM182 496l-63 -36l-9 16l32 19q-6 4 -8 6q-11 11 -11 28t11 28t27 11q17 0 28 -11t11 -28q0 -15 -11 -28q-1 -1 -7 -5z" />
    <glyph glyph-name="uE822" unicode="&#xe822;" 
d="M199 502q0 -23 -17 -38.5t-42 -15.5q-22 0 -37 17.5t-15 41.5q0 23 17 37.5t41 14.5t38.5 -17t14.5 -40zM178 503q0 27 -25 35q-8 3 -10 3q-13 0 -25 -11t-12 -27q0 -14 12 -25t25 -11q14 0 24.5 12t10.5 24z" />
    <glyph glyph-name="uE823" unicode="&#xe823;" 
d="M232 560l-137 -75l-12 23l137 75zM231 510l-136 -74l-12 21l137 75z" />
    <glyph glyph-name="uE824" unicode="&#xe824;" 
d="M270 539q0 -39 -20 -51l-124 -65l-12 21q22 14 26 22q0 16 -19 16q-12 0 -21 -5l-8 14q24 10 37 10q24 0 30 -35l34 19q-35 20 -35 50q0 39 38 54q14 5 17 5q22 0 39.5 -15.5t17.5 -39.5zM251 539q0 15 -12 24.5t-26 9.5q-36 0 -36 -37q0 -34 38 -34q12 0 24 12.5
t12 24.5z" />
    <glyph glyph-name="uE825" unicode="&#xe825;" 
d="M229 526v-36q0 -14 -10 -24q-11 -9 -23 -9q-14 0 -23 9l-1 1v-1q-11 -9 -23 -9q-14 0 -23 9q-10 10 -10 24v36h19v-36q0 -6 4 -10t10 -4t10 4t4 10v36h19v-36q0 -7 4 -10q4 -4 10 -4t9 4q5 3 5 10v36h19z" />
    <glyph glyph-name="uE826" unicode="&#xe826;" 
d="M42 -171l-97 -56l-10 16l98 56z" />
    <glyph glyph-name="uE827" unicode="&#xe827;" 
d="M45 -200l-136 -73l-12 20l136 75zM45 -262l-136 -74l-12 21l136 76z" />
    <glyph glyph-name="uE828" unicode="&#xe828;" 
d="M236 536v-36q0 -14 -10 -24q-11 -9 -23 -9q-14 0 -23 9l-1 1v-1q-11 -9 -23 -9q-14 0 -23 9q-10 10 -10 24v36h19v-36q0 -6 4 -10t10 -4t10 4t4 10v36h19v-36q0 -7 4 -10q4 -4 10 -4t9 4q5 3 5 10v36h19zM248 658l-136 -73l-12 20l137 76z" />
    <glyph glyph-name="uE829" unicode="&#xe829;" 
d="M236 536v-36q0 -14 -10 -24q-11 -9 -23 -9q-14 0 -23 9l-1 1v-1q-11 -9 -23 -9q-14 0 -23 9q-10 10 -10 24v36h19v-36q0 -6 4 -10t10 -4t10 4t4 10v36h19v-36q0 -7 4 -10q4 -4 10 -4t9 4q5 3 5 10v36h19zM177 674q8 0 14 6t6 14t-6 14t-14 6q-7 0 -13 -6q-7 -7 -7 -14
t7 -14q6 -6 13 -6zM198 661l-63 -36l-9 16l32 19q-6 4 -8 6q-11 11 -11 28t11 28t27 11q17 0 28 -11t11 -28q0 -15 -11 -28q-1 -1 -7 -5z" />
    <glyph glyph-name="uE82A" unicode="&#xe82a;" 
d="M236 536v-36q0 -14 -10 -24q-11 -9 -23 -9q-14 0 -23 9l-1 1v-1q-11 -9 -23 -9q-14 0 -23 9q-10 10 -10 24v36h19v-36q0 -6 4 -10t10 -4t10 4t4 10v36h19v-36q0 -7 4 -10q4 -4 10 -4t9 4q5 3 5 10v36h19zM257 715l-137 -75l-12 23l137 75zM256 665l-136 -74l-12 21
l137 75z" />
    <glyph glyph-name="uE82B" unicode="&#xe82b;" 
d="M245 528v-36q0 -14 -10 -24q-11 -9 -23 -9q-14 0 -23 9l-1 1v-1q-11 -9 -23 -9q-14 0 -23 9q-10 10 -10 24v36h19v-36q0 -6 4 -10t10 -4t10 4t4 10v36h19v-36q0 -7 4 -10q4 -4 10 -4t9 4q5 3 5 10v36h19zM281 714q0 -39 -20 -51l-124 -65l-12 21q22 14 26 22q0 16 -19 16
q-12 0 -21 -5l-8 14q24 10 37 10q24 0 30 -35l34 19q-35 20 -35 50q0 39 38 54q14 5 17 5q22 0 39.5 -15.5t17.5 -39.5zM262 714q0 15 -12 24.5t-26 9.5q-36 0 -36 -37q0 -34 38 -34q12 0 24 12.5t12 24.5z" />
    <glyph glyph-name="uE82C" unicode="&#xe82c;" 
d="M236 642v-36q0 -14 -10 -24q-11 -9 -23 -9q-14 0 -23 9l-1 1v-1q-11 -9 -23 -9q-14 0 -23 9q-10 10 -10 24v36h19v-36q0 -6 4 -10t10 -4t10 4t4 10v36h19v-36q0 -7 4 -10q4 -4 10 -4t9 4q5 3 5 10v36h19zM231 523l-97 -56l-10 16l98 56z" />
    <glyph glyph-name="uE82D" unicode="&#xe82d;" 
d="M236 735v-36q0 -14 -10 -24q-11 -9 -23 -9q-14 0 -23 9l-1 1v-1q-11 -9 -23 -9q-14 0 -23 9q-10 10 -10 24v36h19v-36q0 -6 4 -10t10 -4t10 4t4 10v36h19v-36q0 -7 4 -10q4 -4 10 -4t9 4q5 3 5 10v36h19zM244 620l-136 -73l-12 20l136 75zM244 558l-136 -74l-12 21
l136 76z" />
    <glyph glyph-name="uni0621" unicode="&#x621;" horiz-adv-x="229" 
d="M204 85l-163 -85l-13 27l57 30q-51 27 -51 72q0 36 22 58.5t56 22.5q24 0 46 -8l-12 -26q-16 9 -32 9q-52 0 -52 -56q0 -44 44 -44q35 0 83 25z" />
    <glyph glyph-name="periodcentered" unicode="&#xb7;" horiz-adv-x="223" 
d="M109 283q-42 0 -42 45q0 47 42 47q41 0 41 -47q0 -18 -10.5 -31.5t-30.5 -13.5z" />
    <glyph glyph-name="periodcentered" unicode="&#x2219;" horiz-adv-x="223" 
d="M109 283q-42 0 -42 45q0 47 42 47q41 0 41 -47q0 -18 -10.5 -31.5t-30.5 -13.5z" />
    <glyph glyph-name="periodcentered" unicode="&#x2d9;" horiz-adv-x="223" 
d="M109 283q-42 0 -42 45q0 47 42 47q41 0 41 -47q0 -18 -10.5 -31.5t-30.5 -13.5z" />
    <glyph glyph-name="space" unicode=" " horiz-adv-x="79" 
 />
    <glyph glyph-name="exclam" unicode="!" horiz-adv-x="200" 
d="M100 -5q-15 0 -30 2t-17 3q-1 2 -3 17t-2 30t2 30t3 17q2 1 17 3t30 2t30 -2t17 -3q1 -2 3 -17t2 -30t-2 -30t-3 -17q-2 -1 -17 -3t-30 -2zM99 198q-11 0 -20.5 0.5t-14.5 2.5q0 1 1 8t2 16.5t1.5 19.5t0.5 18q0 4 -1 18t-2.5 34t-3 45t-3.5 50q-4 59 -9 132
q-1 8 -1 17.5t-1 17.5q-1 10 -1 19q2 1 20 3.5t33 2.5t33 -2.5t20 -3.5q0 -10 -1 -20q-1 -8 -1.5 -17t-0.5 -17q-6 -73 -10 -132q-2 -25 -3.5 -50t-3 -45t-2.5 -34t-1 -18q0 -8 0.5 -18t1.5 -19.5t2 -16.5t1 -8q-5 -2 -15 -2.5t-21 -0.5z" />
    <glyph glyph-name="quotedbl" unicode="&#x22;" horiz-adv-x="300" 
d="M220 435q-15 0 -26.5 2.5t-13.5 3.5v178q2 1 13.5 3.5t26.5 2.5t26.5 -2.5t13.5 -3.5v-178q-2 -1 -13.5 -3.5t-26.5 -2.5zM80 435q-15 0 -26.5 2.5t-13.5 3.5v178q2 1 13.5 3.5t26.5 2.5t26.5 -2.5t13.5 -3.5v-178q-2 -1 -13.5 -3.5t-26.5 -2.5z" />
    <glyph glyph-name="numbersign" unicode="#" horiz-adv-x="560" 
d="M92 160q-8 0 -17 -0.5t-17 -1t-14 -1t-7 -0.5q-1 2 -3 12t-2 25t2 24.5t8 14t18 6t32 1.5h48v120h-28q-8 0 -17 -0.5t-17 -1t-14 -1t-7 -0.5q-1 2 -3 12t-2 25t2 24.5t8 14t18 6t32 1.5h28v48q0 7 -0.5 16.5t-1 17.5t-1 14t-0.5 7q2 1 12 3t25 2t24.5 -2t14 -8t6 -18
t1.5 -32v-48h120v48q0 7 -0.5 16.5t-1 17.5t-1 14t-0.5 7q2 1 12 3t25 2t24.5 -2t14 -8t6 -18t1.5 -32v-48h48q7 0 16.5 0.5t17.5 1t14 1t7 0.5q1 -2 3 -12t2 -25t-2 -24.5t-8 -14t-18 -6t-32 -1.5h-48v-120h28q7 0 16.5 0.5t17.5 1t14 1t7 0.5q1 -2 3 -12t2 -25t-2 -24.5
t-8 -14t-18 -6t-32 -1.5h-28v-48q0 -8 0.5 -17t1 -17t1 -14t0.5 -7q-2 -1 -12 -3t-25 -2t-24.5 2t-14 8t-6 18t-1.5 32v48h-120v-48q0 -8 0.5 -17t1 -17t1 -14t0.5 -7q-2 -1 -12 -3t-25 -2t-24.5 2t-14 8t-6 18t-1.5 32v48h-48zM181 238h161v124h-124v-110z" />
    <glyph glyph-name="dollar" unicode="$" horiz-adv-x="440" 
d="M59 175q12 -5 29 -11t35.5 -11.5t37 -9t33.5 -3.5q60 0 96 14.5t36 37.5q0 18 -20.5 31t-52 24t-67.5 22t-67.5 26.5t-52 37.5t-20.5 54q0 54 36.5 90t98.5 45v40q0 15 -1 33.5t-2 20.5q2 1 15 3.5t28 2.5t28 -2.5t15 -3.5q-1 -2 -2 -20.5t-1 -33.5v-25l-30 -12
q50 -2 90.5 -9.5t51.5 -11.5l-23 -77q-24 10 -54.5 20t-60.5 10q-48 0 -76.5 -13.5t-28.5 -36.5q0 -20 20.5 -32t52 -22.5t67.5 -21t67.5 -27t52 -41t20.5 -61.5q0 -49 -40.5 -82t-109.5 -42v-40q0 -15 1 -33.5t2 -20.5q-2 -1 -15 -3.5t-28 -2.5t-28 2.5t-15 3.5q1 2 2 20.5
t1 33.5v26l29 11q-26 0 -54.5 2.5t-52.5 6.5t-42 8t-23 6z" />
    <glyph glyph-name="percent" unicode="%" horiz-adv-x="760" 
d="M108 72q0 8 7.5 18t22.5 25l426 426q5 5 11.5 12t11.5 13t9 10.5t4 5.5q2 -1 10.5 -6t19.5 -16q20 -20 20 -31q0 -8 -7.5 -18t-22.5 -25l-426 -426q-5 -5 -11.5 -12t-11.5 -13t-9 -10.5t-4 -5.5q-2 1 -10.5 6t-19.5 16q-20 20 -20 31zM110 450q0 -41 19 -65.5t51 -24.5
t51 24.5t19 65.5t-19 65.5t-51 24.5t-51 -24.5t-19 -65.5zM30 450q0 70 41 112.5t109 42.5t109 -42.5t41 -112.5t-41 -112.5t-109 -42.5t-109 42.5t-41 112.5zM510 150q0 -41 19 -65.5t51 -24.5t51 24.5t19 65.5t-19 65.5t-51 24.5t-51 -24.5t-19 -65.5zM430 150
q0 70 41 112.5t109 42.5t109 -42.5t41 -112.5t-41 -112.5t-109 -42.5t-109 42.5t-41 112.5z" />
    <glyph glyph-name="ampersand" unicode="&#x26;" horiz-adv-x="660" 
d="M24 173q0 56 28 96t77 59l36 -19q-19 28 -30 55t-11 52q0 38 12 69t33.5 53t52 34t68.5 12q41 0 75.5 -15.5t59.5 -46.5l-65 -58q-17 22 -38 36t-49 14q-29 0 -46 -21.5t-17 -56.5q0 -21 14.5 -47.5t37.5 -55.5t53 -58.5t60 -56.5l53 -48q9 21 9 44t-8.5 40.5t-16.5 35.5
q-6 13 -10.5 26.5t-4.5 30.5q0 15 2 22.5t3 9.5q1 0 7 -0.5t14 -1t17 -1t17 -0.5h96q20 0 35 -0.5t25 -4.5t15 -12.5t5 -23.5t-2 -25t-3 -12q-1 0 -7 0.5t-14 1t-17.5 1t-16.5 0.5h-63l-44 22q14 -16 27 -39.5t13 -55.5q0 -55 -28 -103l16 -14q25 -23 39.5 -33t22.5 -10
q14 0 23.5 7t27.5 17q2 -2 9 -13t7 -25q0 -27 -23.5 -43.5t-61.5 -16.5q-18 0 -35 5t-29 16l-51 45q-37 -30 -85.5 -47.5t-104.5 -17.5q-47 0 -85.5 13t-65.5 36.5t-42 56.5t-15 73zM96 179q0 -51 37 -82t98 -31q41 0 76.5 10.5t63.5 28.5l-63 55q-27 23 -54.5 49.5
t-51.5 54.5q-48 -6 -76.5 -29t-28.5 -58z" />
    <glyph glyph-name="quotesingle" unicode="'" horiz-adv-x="160" 
d="M80 435q-15 0 -26.5 2.5t-13.5 3.5v178q2 1 13.5 3.5t26.5 2.5t26.5 -2.5t13.5 -3.5v-178q-2 -1 -13.5 -3.5t-26.5 -2.5z" />
    <glyph glyph-name="parenleft" unicode="(" horiz-adv-x="260" 
d="M244 -37q1 -2 3 -14.5t2 -27.5t-3 -23.5t-10.5 -12.5t-20.5 -4.5t-33 -0.5q-75 0 -113.5 107t-38.5 313t38.5 313t113.5 107q20 0 33 -0.5t20.5 -4.5t10.5 -12.5t3 -23.5t-2 -27.5t-3 -14.5q-10 3 -22.5 5.5t-24.5 2.5q-43 0 -65 -88t-22 -257t22 -257t65 -88
q12 0 24.5 2.5t22.5 5.5z" />
    <glyph glyph-name="parenright" unicode=")" horiz-adv-x="260" 
d="M16 637q-1 2 -3 14.5t-2 27.5t3 23.5t10.5 12.5t20.5 4.5t33 0.5q75 0 113.5 -107t38.5 -313t-38.5 -313t-113.5 -107q-20 0 -33 0.5t-20.5 4.5t-10.5 12.5t-3 23.5t2 27.5t3 14.5q10 -3 22.5 -5.5t24.5 -2.5q43 0 65 88t22 257t-22 257t-65 88q-12 0 -24.5 -2.5
t-22.5 -5.5z" />
    <glyph glyph-name="asterisk" unicode="*" horiz-adv-x="360" 
d="M181 304q-15 0 -26.5 2t-13.5 3q0 1 1.5 9t4 18.5t4.5 21.5t4 18l5 44l-36 -27q-5 -5 -13.5 -12t-16.5 -14t-14 -11.5t-7 -5.5l-9 9t-15 20t-10.5 23t-3.5 12q1 0 8.5 3t17 6.5t20 7.5t17.5 6l46 16l-46 19q-7 2 -17.5 6t-20 7.5t-17 6.5t-8.5 3q1 2 3.5 12t10.5 23
t15 20l9 9q1 -1 7 -5.5t14 -11.5t16.5 -14t13.5 -12l36 -31l-6 49q-2 7 -4 18t-4.5 21t-4 18t-1.5 9q2 1 13.5 3.5t26.5 2.5t26.5 -2.5t13.5 -3.5q0 -1 -1.5 -9t-4 -18t-4.5 -21t-4 -18l-10 -52l40 34q5 5 13.5 12.5t16.5 14t14 11.5t7 6q2 -2 8.5 -9.5t14.5 -20.5t11 -23
t4 -12q-1 0 -8.5 -3l-17.5 -7t-20.5 -8t-17.5 -6l-44 -19l44 -16q7 -2 17.5 -6t20.5 -8l17.5 -7t8.5 -3q-1 -2 -4 -12t-11 -23t-14.5 -20.5t-8.5 -9.5q-1 1 -7 6t-14 11.5t-16.5 14t-13.5 12.5l-39 29l9 -47q2 -7 4 -18t4.5 -21.5t4 -18.5t1.5 -9q-2 -1 -13.5 -3t-26.5 -2z
" />
    <glyph glyph-name="plus" unicode="+" horiz-adv-x="480" 
d="M92 260q-8 0 -17 -0.5t-17 -1t-14 -1t-7 -0.5q-1 2 -3 12t-2 25t2 24.5t8 14t18 6t32 1.5h108v108q0 7 -0.5 16.5t-1 17.5t-1 14t-0.5 7q2 1 12 3t25 2t24.5 -2t14 -8t6 -18t1.5 -32v-98l-35 -10h143q7 0 16.5 0.5t17.5 1t14 1t7 0.5q1 -2 3 -12t2 -25t-2 -24.5t-8 -14
t-18 -6t-32 -1.5h-108v-108q0 -8 0.5 -17t1 -17t1 -14t0.5 -7q-2 -1 -12 -3t-25 -2t-24.5 2t-14 8t-6 18t-1.5 32v108h-108z" />
    <glyph glyph-name="comma" unicode="," horiz-adv-x="200" 
d="M97 -5q-14 0 -28 2t-16 3q-1 2 -3 14t-2 27t2 33t3 20q2 1 17 3t30 2t30 -2t17 -3q0 -1 1 -10.5t2 -22t2 -25.5t1 -20l-38 -136h-27l8 115h1z" />
    <glyph glyph-name="hyphen" unicode="-" horiz-adv-x="340" 
d="M92 180q-8 0 -17 -0.5t-17 -1t-14 -1t-7 -0.5q-1 2 -3 12t-2 25t2 24.5t8 14t18 6t32 1.5h156q7 0 16.5 0.5t17.5 1t14 1t7 0.5q1 -2 3 -12t2 -25t-2 -24.5t-8 -14t-18 -6t-32 -1.5h-156z" />
    <glyph glyph-name="period" unicode="." horiz-adv-x="200" 
d="M100 -5q-15 0 -30 2t-17 3q-1 2 -3 17t-2 30t2 30t3 17q2 1 17 3t30 2t30 -2t17 -3q1 -2 3 -17t2 -30t-2 -30t-3 -17q-2 -1 -17 -3t-30 -2z" />
    <glyph glyph-name="slash" unicode="/" horiz-adv-x="440" 
d="M16 15q0 8 4.5 18t13.5 26l301 522q4 6 8 14t8 15.5t6.5 13t2.5 6.5q2 -1 11.5 -4t22.5 -11q14 -8 21 -15t7 -16q0 -13 -18 -44l-301 -522q-4 -6 -8 -14t-8 -15.5t-6.5 -13t-2.5 -6.5q-2 1 -11.5 4t-22.5 11q-14 8 -21 15t-7 16z" />
    <glyph glyph-name="zero" unicode="0" horiz-adv-x="520" 
d="M288 265q-4 -4 -8.5 -10t-9 -11.5t-7.5 -10t-4 -4.5t-4 4.5t-7.5 10t-9 11.5t-8.5 10t-10 9t-11.5 9t-10 7.5t-4.5 4.5t4.5 4.5t10 7.5t11.5 9t10 9t9 10t9 11.5t7.5 10t4.5 4.5t4.5 -4.5t7.5 -10t9 -11.5t9 -10t10 -8.5t11.5 -9t10 -7.5t4.5 -4t-4.5 -4t-10 -7.5
t-11.5 -9t-10 -8.5zM113 298q0 -53 10.5 -96.5t29.5 -74t45.5 -47.5t59.5 -17t59.5 17t45.5 47.5t29.5 74t10.5 96.5t-10.5 96.5t-29.5 74t-45.5 47.5t-59.5 17t-59.5 -17t-45.5 -47.5t-29.5 -74t-10.5 -96.5zM28 298q0 69 16.5 125t46.5 96t72.5 62t94.5 22t94.5 -22
t72.5 -62t46.5 -96t16.5 -125t-16.5 -125t-46.5 -96t-72.5 -62t-94.5 -22t-94.5 22t-72.5 62t-46.5 96t-16.5 125z" />
    <glyph glyph-name="one" unicode="1" horiz-adv-x="220" 
d="M160 58q0 -8 0.5 -17t1 -17t1 -14t0.5 -7q-2 -1 -15 -3t-28 -2t-28 2t-15 3q0 1 0.5 7t1 14t1 17t0.5 17v444l-40 -20q0 15 -2.5 33.5t-4.5 20.5q1 1 8.5 11.5t18.5 22.5t25.5 22t29.5 10q30 0 48 -6q-1 -2 -2 -20.5t-1 -33.5v-484z" />
    <glyph glyph-name="two" unicode="2" horiz-adv-x="450" 
d="M29 86q0 29 14.5 55.5t37.5 52t53 49t60 46.5q28 21 54 41.5t46 40t32 39t12 37.5q0 45 -31 68.5t-91 23.5q-15 0 -36.5 -4.5t-44 -10.5t-42.5 -13t-32 -12l-23 77q5 2 26 7t49.5 9.5t60 8t57.5 3.5q93 0 141 -40t48 -117q0 -35 -16.5 -67t-42.5 -60.5t-58.5 -54.5
t-64.5 -50q-26 -19 -49.5 -37t-41.5 -34.5t-28.5 -32t-10.5 -28.5l-40 -8l1 -2q19 0 37 1q15 0 30 0.5t23 0.5h203q7 0 16.5 0.5t17.5 1t14 1t7 0.5q1 -2 3 -12t2 -25t-2 -23.5t-8 -12.5t-18 -4.5t-32 -0.5h-278q-8 0 -17.5 -0.5t-18 -1t-15 -1t-7.5 -0.5z" />
    <glyph glyph-name="three" unicode="3" horiz-adv-x="460" 
d="M58 95q24 -10 54.5 -20t60.5 -10q37 0 69 7.5t55.5 22t36.5 36t13 49.5q0 26 -14 47t-39 36t-58.5 23.5t-72.5 8.5h-48v70h48q34 0 64 6t52.5 17.5t35 27t12.5 34.5q0 21 -12 36.5t-32.5 26.5t-48.5 16.5t-61 5.5q-30 0 -60.5 -10t-54.5 -20l-23 77q5 2 20 6t35.5 7.5
t46 6.5t51.5 3q49 0 90 -10t70 -29.5t45.5 -48.5t16.5 -67q0 -42 -32.5 -73t-87.5 -47q64 -19 102 -57.5t38 -92.5q0 -45 -17.5 -79.5t-49.5 -58t-76.5 -35.5t-98.5 -12q-26 0 -51.5 2.5t-46 6.5t-35.5 8t-20 6z" />
    <glyph glyph-name="four" unicode="4" horiz-adv-x="500" 
d="M14 185q24 30 45 61.5t39.5 73t35.5 96.5t35 133q2 8 3 17.5t3 17.5q2 10 3 20q6 -1 14 -1q6 -1 14 -1t16 -2q15 -3 27.5 -7.5t14.5 -6.5q-2 -2 -7 -20.5t-8 -33.5q-20 -91 -50.5 -167t-72.5 -132l-32 -27l42 9h204v227q0 15 -1 33.5t-2 20.5q2 1 15 3.5t28 2.5t28 -2.5
t15 -3.5q-1 -2 -2 -20.5t-1 -33.5v-227q15 0 33 1t20 2q1 -2 3 -9.5t2 -22.5t-2 -24.5t-8 -14t-17.5 -6t-30.5 -1.5v-82q0 -8 0.5 -17t1 -17t1 -14t0.5 -7q-2 -1 -15 -3t-28 -2t-28 2t-15 3q0 1 0.5 7t1 14t1 17t0.5 17v82h-268q-8 0 -17 -0.5t-17 -1t-14 -1t-7 -0.5z" />
    <glyph glyph-name="five" unicode="5" horiz-adv-x="460" 
d="M57 95q24 -10 54.5 -20t60.5 -10q37 0 69 7.5t55.5 22t36.5 36t13 49.5q0 57 -46.5 86t-137.5 29h-121v307q2 0 17 -0.5t34 -0.5t36.5 -0.5t25.5 -0.5h199q20 0 32 -1.5t18 -6t8 -14t2 -24.5t-2 -22.5t-3 -9.5q-1 0 -7 0.5t-14 1t-17.5 1t-16.5 0.5h-204q-8 0 -17 2.5
t-14 2.5q-6 0 -6 -2l-1 -3q0 -5 9 -17v-143h58q124 0 188 -47t64 -138q0 -45 -17.5 -79.5t-49.5 -58t-76.5 -35.5t-98.5 -12q-26 0 -51.5 2.5t-46 6.5t-35.5 8t-20 6z" />
    <glyph glyph-name="six" unicode="6" horiz-adv-x="480" 
d="M34 300q0 69 16.5 125t46.5 96t72.5 62t94.5 22q30 0 57 -3t48.5 -7t36 -8t19.5 -6l-23 -77q-24 10 -57 20.5t-63 10.5q-60 0 -101 -41t-57 -113q0 -5 -1.5 -8t-1.5 -4l-1 -1q0 -1 2 -1t11 2q28 6 62.5 11t66.5 5q94 0 143 -49.5t49 -145.5q0 -44 -15 -80t-42.5 -61.5
t-66 -39.5t-85.5 -14q-106 0 -160.5 78t-54.5 227h4zM119 291q2 -111 34.5 -168.5t95.5 -57.5q56 0 90 34t34 91q0 61 -31.5 93t-92.5 32q-14 0 -31 -2t-35 -5.5t-34.5 -8t-29.5 -8.5z" />
    <glyph glyph-name="seven" unicode="7" horiz-adv-x="440" 
d="M178 -2q-15 0 -28 2t-15 3q0 1 0.5 7t1 14t1 17t0.5 17q0 55 13.5 124t36.5 135t53.5 122t63.5 85v3q-11 -1 -23 -1.5t-26 -0.5h-184q-8 0 -17 -0.5t-17 -1t-14 -1t-7 -0.5q-1 2 -3 9.5t-2 22.5t2 24.5t8 14t18 6t32 1.5h353v-29q-39 -30 -76 -84t-65.5 -123t-46 -148
t-17.5 -158q0 -8 0.5 -17t1 -17t1 -14t0.5 -7q-2 -1 -15 -3t-28 -2h-2z" />
    <glyph glyph-name="eight" unicode="8" horiz-adv-x="500" 
d="M250 535q-51 0 -78 -19t-27 -56q0 -43 28.5 -69t76.5 -26t76.5 26t28.5 69q0 37 -27 56t-78 19zM250 295q-61 0 -100.5 -34t-39.5 -91q0 -51 37 -78t103 -27t103 27t37 78q0 57 -39.5 91t-100.5 34zM172 337q-55 15 -85.5 46.5t-30.5 75.5q0 71 48.5 108t142.5 37
t142.5 -37t48.5 -108q0 -44 -30.5 -75.5t-85.5 -46.5q69 -16 110.5 -60t41.5 -107q0 -86 -58.5 -130.5t-166.5 -44.5t-166.5 44.5t-58.5 130.5q0 63 41.5 107t110.5 60h-4z" />
    <glyph glyph-name="nine" unicode="9" horiz-adv-x="480" 
d="M449 294q0 -69 -17 -124t-48 -94t-73.5 -60t-94.5 -21q-30 0 -57 3t-48.5 7t-36 8t-19.5 6l23 77q24 -10 57 -20.5t63 -10.5q60 0 101 41t57 113l-3 10v3l-7 -1q-28 -6 -62.5 -11t-66.5 -5q-94 0 -143 49.5t-49 145.5q0 44 15 80t42.5 61.5t66 39.5t85.5 14
q106 0 160.5 -78t54.5 -227v-6zM361 309q-2 111 -34.5 168.5t-95.5 57.5q-56 0 -90 -34t-34 -91q0 -61 31.5 -93t92.5 -32q13 0 30.5 2t35.5 5.5t34.5 7.5t29.5 9z" />
    <glyph glyph-name="colon" unicode=":" horiz-adv-x="200" 
d="M100 301q-15 0 -30 2t-17 3q-1 2 -3 17t-2 30t2 30t3 17q2 1 17 3t30 2t30 -2t17 -3q1 -2 3 -17t2 -30t-2 -30t-3 -17q-2 -1 -17 -3t-30 -2zM100 -5q-15 0 -30 2t-17 3q-1 2 -3 17t-2 30t2 30t3 17q2 1 17 3t30 2t30 -2t17 -3q1 -2 3 -17t2 -30t-2 -30t-3 -17
q-2 -1 -17 -3t-30 -2z" />
    <glyph glyph-name="semicolon" unicode=";" horiz-adv-x="200" 
d="M97 -5q-14 0 -28 2t-16 3q-1 2 -3 14t-2 27t2 33t3 20q2 1 17 3t30 2t30 -2t17 -3q0 -1 1 -10.5t2 -22t2 -25.5t1 -20l-38 -136h-27l8 115h1zM101 305q-15 0 -30 2t-17 3q-1 2 -3 17t-2 30t2 30t3 17q2 1 17 3t30 2t30 -2t17 -3q1 -2 3 -17t2 -30t-2 -30t-3 -17
q-2 -1 -17 -3t-30 -2z" />
    <glyph glyph-name="less" unicode="&#x3c;" horiz-adv-x="460" 
d="M286 485q11 8 36 15t45 7q14 0 30.5 -8t21.5 -17q-1 -1 -6.5 -4t-12.5 -7.5t-15 -9.5t-14 -9l-225 -152l225 -152q6 -5 14 -9.5t15 -9t12.5 -7.5t6.5 -4q-5 -9 -21.5 -17t-30.5 -8q-20 0 -45 7t-36 15l-266 185z" />
    <glyph glyph-name="greater" unicode="&#x3e;" horiz-adv-x="460" 
d="M173 115q-11 -8 -36 -15t-45 -7q-14 0 -30.5 8t-21.5 17q1 1 6.5 4t12.5 7.5t15 9t14 9.5l225 152l-225 152q-6 4 -14 9t-15 9.5t-12.5 7.5t-6.5 4q5 9 21.5 17t30.5 8q20 0 45 -7t36 -15l266 -185z" />
    <glyph glyph-name="question" unicode="?" horiz-adv-x="360" 
d="M183 -5q-15 0 -30 2t-17 3q-1 2 -3 17t-2 30t2 30t3 17q2 1 17 3t30 2t30 -2t17 -3q1 -2 3 -17t2 -30t-2 -30t-3 -17q-2 -1 -17 -3t-30 -2zM230 200h-7q-69 0 -111 29t-42 86q0 29 14 48.5t35 32.5t46 22t46 17.5t35 18.5t14 26q0 26 -22.5 41.5t-59.5 15.5
q-15 0 -33.5 -3.5t-37 -9t-35.5 -11.5t-29 -11l-23 77q5 2 23 6t42.5 7.5t53 6.5t54.5 3q68 0 109 -35t41 -92q0 -35 -14 -56t-35 -33t-46 -19t-46 -14.5t-35 -18t-14 -29.5q0 -20 20.5 -27.5t54.5 -7.5z" />
    <glyph glyph-name="at" unicode="@" horiz-adv-x="800" 
d="M294 300q0 -52 26 -83.5t69 -31.5t81 3v202l33 5q-24 9 -53.5 14.5t-59.5 5.5q-43 0 -69 -31.5t-26 -83.5h-1zM39 300q0 87 26 158t73 121.5t113.5 78t147.5 27.5q79 0 145 -25t114 -70t74.5 -108.5t26.5 -141.5q0 -49 -15 -88.5t-42 -68t-65.5 -44t-84.5 -15.5h-16
q-46 -1 -89 -5t-78 -4q-36 0 -65.5 13.5t-50.5 37.5t-32.5 58t-11.5 76t11.5 76t32.5 58t50.5 37.5t65.5 13.5q18 0 40 -2t46 -5t48.5 -5t48.5 -2q-2 -7 -2.5 -24t-0.5 -31v-221q59 0 94.5 40t35.5 106q0 60 -21 109.5t-58.5 85t-88.5 55.5t-112 20q-63 0 -114.5 -22.5
t-88.5 -63.5t-57 -98t-20 -126t20 -126t57 -98t88.5 -63.5t114.5 -22.5q60 0 108.5 21.5t83.5 55.5l55 -58q-48 -46 -110.5 -70.5t-136.5 -24.5q-81 0 -147.5 27.5t-113.5 78t-73 121.5t-26 158z" />
    <glyph glyph-name="A" unicode="A" horiz-adv-x="540" 
d="M123 400q10 42 22 79.5t28.5 65.5t40 44t57.5 16t57.5 -16t40 -44t28.5 -65.5t22 -79.5l83 -342q2 -8 4 -17.5t4 -17.5l4 -20q-2 -1 -15 -3t-28 -2t-28 2t-15 3v4q0 8 -1.5 23.5t-4.5 27.5l-27 107h-250l-27 -107q-3 -12 -4.5 -27.5t-1.5 -23.5v-4q-2 -1 -15 -3t-28 -2
t-28 2t-15 3l4 20q2 8 4 17.5t4 17.5zM126 236l1 -2l64 5h188l-33 134q-10 41 -17 70.5t-14.5 48.5t-17 28t-24.5 9t-24.5 -9t-17 -28t-15 -48.5t-17.5 -70.5l-30 -119z" />
    <glyph glyph-name="B" unicode="B" horiz-adv-x="490" 
d="M60 539q0 15 -1 33.5t-2 20.5h7q47 1 99 5t87 4q40 0 75 -11.5t60.5 -33t40 -51.5t14.5 -67q0 -43 -27.5 -74.5t-73.5 -48.5q60 -17 95.5 -54.5t35.5 -89.5q0 -39 -16 -71.5t-44 -55.5t-66.5 -35.5t-83.5 -12.5q-18 0 -42 1.5t-51 3l-54 3t-51 1.5h-5q1 2 2 20.5t1 33.5
v479zM143 77q23 -5 49.5 -8t47.5 -3q30 0 56.5 7.5t46 21.5t31 33t11.5 43t-10.5 44t-29 34.5t-43 22t-52.5 7.5h-108v-202h1zM144 347l107 2q43 1 74 25t31 65q0 21 -10 38t-27 29.5t-39.5 19t-48.5 6.5q-20 0 -43.5 -2.5t-44.5 -7.5v-162z" />
    <glyph glyph-name="C" unicode="C" horiz-adv-x="480" 
d="M30 300q0 69 18 125t51 96t79 62t102 22q48 0 89 -7.5t63 -13.5q12 -3 12 -15q0 -5 -1 -9t-3 -9l-16 -49q-24 10 -59.5 21.5t-65.5 11.5q-42 0 -76 -17t-58 -47.5t-37.5 -74t-13.5 -96.5t13.5 -96.5t37.5 -74t58 -47.5t76 -17q30 0 65.5 11.5t59.5 21.5l16 -49q2 -5 3 -9
t1 -9q0 -12 -12 -15q-22 -6 -63 -13.5t-89 -7.5q-56 0 -102 22t-79 62t-51 96t-18 125z" />
    <glyph glyph-name="D" unicode="D" horiz-adv-x="540" 
d="M60 540q0 14 -0.5 30t-2.5 24h7q24 0 51 1.5t53.5 3t50.5 3t41 1.5q56 0 102 -22t79 -62t51 -96t18 -125q0 -68 -18 -124t-51 -96t-79 -61.5t-102 -21.5q-18 0 -43 1t-52 2.5t-54.5 3t-51.5 1.5h-2q2 7 2.5 24t0.5 31v482zM142 85q24 -9 45.5 -14.5t51.5 -5.5
q42 0 76 16.5t58 47.5t37.5 73.5t13.5 95.5t-13.5 96.5t-37.5 74t-58 47.5t-76 17q-21 0 -47.5 -3t-49.5 -8v-437z" />
    <glyph glyph-name="E" unicode="E" horiz-adv-x="460" 
d="M61 547q0 8 -0.5 17t-1.5 18q-1 10 -1 21q1 0 10.5 -0.5t22.5 -1t25.5 -1t20.5 -0.5h226q20 0 32 -0.5t18 -4.5t8 -12.5t2 -23.5t-2 -25t-3 -12q-1 0 -7 0.5t-14 1t-17.5 1t-16.5 0.5h-172q-12 0 -27 0.5t-21 0.5v-154l6 -11v-2h-4l2 1h115q15 0 33.5 1t20.5 2
q1 -2 3.5 -15t2.5 -28t-2.5 -25.5t-3.5 -12.5q-2 1 -20.5 2t-33.5 1h-120v-212q7 1 17.5 1.5t21.5 0.5h181q7 0 16.5 0.5t17.5 1t14 1t7 0.5q1 -2 3 -12t2 -25t-2 -23.5t-8 -12.5t-18 -4.5t-32 -0.5h-227q-8 0 -20.5 -0.5l-25 -1t-22 -1t-10.5 -0.5q0 1 0.5 7t1 14t1 17
t0.5 17z" />
    <glyph glyph-name="F" unicode="F" horiz-adv-x="460" 
d="M59 543q0 8 -0.5 18t-1.5 20q-1 11 -1 23q1 0 10.5 -0.5t22.5 -1t25.5 -1t20.5 -0.5h236q20 0 32 -0.5t18 -4.5t8 -12.5t2 -23.5t-2 -25t-3 -12q-1 0 -7 0.5t-14 1t-17.5 1t-16.5 0.5h-180q-14 0 -30 1t-20 1v-193l-3 -10l3 -3q-1 0 -1 -1h1q1 -1 16 -1h135q15 0 33.5 1
t20.5 2q1 -2 3.5 -15t2.5 -28t-2.5 -25.5t-3.5 -12.5q-2 1 -20.5 2t-33.5 1h-150v-187q0 -8 0.5 -17t1 -17t1 -14t0.5 -7q-2 -1 -15.5 -3t-28.5 -2t-28.5 2t-15.5 3q0 1 0.5 7t1 14t1 17t0.5 16z" />
    <glyph glyph-name="G" unicode="G" horiz-adv-x="510" 
d="M32 300q0 69 18 125t51 96t79 62t102 22q48 0 89 -7.5t63 -13.5q12 -3 12 -15q0 -5 -1 -9t-3 -9l-16 -49q-24 10 -59.5 21.5t-65.5 11.5q-41 0 -75 -17t-58.5 -47.5t-38 -74t-13.5 -96.5t12.5 -96.5t35.5 -74t55.5 -47.5t71.5 -17q24 0 42.5 7t45.5 18v150h-50
q-20 0 -32 1.5t-18 6t-8 14t-2 24.5t2 25t3 12q1 0 7 -0.5t14 -1t17 -1t17 -0.5h73q7 0 17.5 0.5t19.5 0.5t16 0.5t8 0.5q0 -2 -1 -14.5t-1 -27.5v-222q0 -8 0.5 -17t1 -17t1 -14t0.5 -7h-3q-5 0 -23 3.5t-41 3.5q-32 0 -62 -7.5t-65 -7.5q-54 0 -98.5 22t-76 62t-48.5 96
t-17 125h2z" />
    <glyph glyph-name="H" unicode="H" horiz-adv-x="520" 
d="M60 541q0 7 -0.5 16.5t-1 17.5t-1 14t-0.5 7q2 1 15.5 3t28.5 2t28.5 -2t15.5 -3q0 -1 -0.5 -7t-1 -14t-1 -17.5t-0.5 -16.5v-167l-3 -11l1 -2l21 -1h217v182q0 15 -1 33.5t-2 20.5q2 1 15.5 3.5t28.5 2.5t28.5 -2.5t15.5 -3.5q-1 -2 -2 -20.5t-1 -33.5v-484
q0 -8 0.5 -17t1 -17t1 -14t0.5 -7q-2 -1 -15.5 -3t-28.5 -2t-28.5 2t-15.5 3q0 1 0.5 7t1 14t1 17t0.5 17v227h-236v-227q0 -15 1 -33.5t2 -20.5q-2 -1 -15.5 -3.5t-28.5 -2.5t-28.5 2.5t-15.5 3.5q1 2 2 20.5t1 33.5v483z" />
    <glyph glyph-name="I" unicode="I" horiz-adv-x="200" 
d="M59 542q0 15 -1 33.5t-2 20.5q2 1 15.5 3.5t28.5 2.5t28.5 -2.5t15.5 -3.5q-1 -2 -2 -20.5t-1 -33.5v-484q0 -8 0.5 -17t1 -17t1 -14t0.5 -7q-2 -1 -15.5 -3t-28.5 -2t-28.5 2t-15.5 3q0 1 0.5 7t1 14t1 17t0.5 17v484z" />
    <glyph glyph-name="J" unicode="J" horiz-adv-x="340" 
d="M36 99q24 -10 44.5 -18.5t50.5 -8.5q44 0 61 29t17 86v354q0 15 -1 33.5t-2 20.5q2 1 15.5 3.5t28.5 2.5t28.5 -2.5t15.5 -3.5q-1 -2 -2 -20.5t-1 -33.5v-354q0 -93 -34 -141t-109 -48q-53 0 -88 7.5t-46 12.5z" />
    <glyph glyph-name="K" unicode="K" horiz-adv-x="500" 
d="M59 540q0 15 -1 33.5t-2 20.5q2 1 15.5 3.5t28.5 2.5t28.5 -2.5t15.5 -3.5q-1 -2 -2 -20.5t-1 -33.5v-217h43l173 260q8 11 26.5 15.5t38.5 4.5q14 0 28.5 -2t19.5 -11q-1 -1 -5.5 -5t-10 -10t-12 -12.5t-10.5 -12.5l-179 -260l199 -245q10 -11 21.5 -24t13.5 -15
q-5 -9 -19.5 -10.5t-28.5 -1.5q-20 0 -38 4.5t-27 15.5l-195 247h-38v-203q0 -8 0.5 -17t1 -17t1 -14t0.5 -7q-2 -1 -15.5 -3t-28.5 -2t-28.5 2t-15.5 3q0 1 0.5 7t1 14t1 17t0.5 17v482z" />
    <glyph glyph-name="L" unicode="L" horiz-adv-x="460" 
d="M59 542q0 15 -1 33.5t-2 20.5q2 1 15.5 3.5t28.5 2.5t28.5 -2.5t15.5 -3.5q-1 -2 -2 -20.5t-1 -33.5v-453l-1 -15l2 -2h-1v1q2 2 15 2h216q7 0 16.5 0.5t17.5 1t14 1t7 0.5q1 -2 3 -12t2 -25t-2 -23.5t-8 -12.5t-18 -4.5t-32 -0.5h-238q-8 0 -20.5 -0.5l-25 -1t-22 -1
t-10.5 -0.5q0 1 0.5 7t1 14t1 17t0.5 17v490z" />
    <glyph glyph-name="M" unicode="M" horiz-adv-x="740" 
d="M59 524q0 8 -0.5 20.5t-1.5 24.5q-1 14 -1 30h119q30 0 59.5 -9t55 -24.5t46.5 -37.5t34 -49q13 27 34 49t46.5 37.5t55 24.5t59.5 9h119q-1 -16 -2 -30q-1 -12 -1 -24.5v-20.5v-467q0 -8 0.5 -17t1 -17t1 -14t0.5 -7q-2 -1 -15.5 -3t-28.5 -2t-28.5 2t-15.5 3q0 1 0.5 7
t1 14t1 17t0.5 17v469h-29q-29 0 -57.5 -13t-51 -35.5t-36.5 -52.5t-14 -64v-304q0 -8 0.5 -17t1 -17t1 -14t0.5 -7q-2 -1 -15.5 -3t-28.5 -2t-28.5 2t-15.5 3q0 1 0.5 7t1 14t1 17t0.5 17v304q0 34 -14 64t-36.5 52.5t-51 35.5t-57.5 13h-33l4 -16v-452q0 -8 0.5 -17t1 -17
t1 -14t0.5 -7q-2 -1 -15.5 -3t-28.5 -2t-28.5 2t-15.5 3q0 1 0.5 7t1 14t1 17t0.5 17v466z" />
    <glyph glyph-name="N" unicode="N" horiz-adv-x="540" 
d="M138 57q0 -15 1 -33.5t2 -20.5q-2 -1 -14.5 -3.5t-27.5 -2.5t-27.5 2.5t-14.5 3.5q1 2 2 20.5t1 33.5v484q0 7 -0.5 16.5t-1 17.5t-1 14t-0.5 7q2 1 15 3t28 2l302 -414v354q0 15 -1.5 33.5t-2.5 20.5q2 1 15 3.5t28 2.5t28 -2.5t15 -3.5q-1 -2 -2.5 -20.5t-1.5 -33.5
v-484q0 -8 0.5 -17t1 -17t1 -14t0.5 -7q-2 -1 -14.5 -3t-27.5 -2v-2l-306 421v-16l3 -35v-308z" />
    <glyph glyph-name="O" unicode="O" horiz-adv-x="540" 
d="M115 300q0 -53 11 -96.5t31.5 -74t49 -47.5t63.5 -17t63.5 17t49 47.5t31.5 74t11 96.5t-11 96.5t-31.5 74t-49 47.5t-63.5 17t-63.5 -17t-49 -47.5t-31.5 -74t-11 -96.5zM30 300q0 69 17 125t48.5 96t76 62t98.5 22t98 -22t75.5 -62t49 -96t17.5 -125t-17.5 -125
t-49 -96t-75.5 -62t-98 -22t-98.5 22t-76 62t-48.5 96t-17 125z" />
    <glyph glyph-name="P" unicode="P" horiz-adv-x="490" 
d="M59 540q0 14 -0.5 30t-2.5 24h7q24 0 51 1.5l54 3t51 3t41 1.5q47 0 86 -15.5t66.5 -43.5t42.5 -68t15 -88t-15 -88t-42.5 -68t-66.5 -43.5t-86 -15.5q-22 0 -53.5 3t-65.5 6v-124q0 -8 0.5 -17t1 -17t1 -14t0.5 -7q-2 -1 -15.5 -3t-28.5 -2t-28.5 2t-15.5 3q0 1 0.5 7
t1 14t1 17t0.5 17v482zM141 256q24 -9 46.5 -11t52.5 -2q66 0 105.5 39.5t39.5 105.5t-39.5 105.5t-105.5 39.5q-21 0 -48 -3t-51 -8v-266z" />
    <glyph glyph-name="Q" unicode="Q" horiz-adv-x="540" 
d="M30 299q0 69 17 125t48.5 96t76 62t98.5 22t98 -22t75.5 -62t49 -96t17.5 -125q0 -108 -42 -184t-114 -105q11 -29 22 -49.5t22 -28.5q14 -10 30 -11.5t40 -3.5q0 -38 -18.5 -56.5t-44.5 -18.5q-38 0 -62 24q-21 20 -33 54t-25 75h-15q-54 0 -98.5 22t-76 62t-48.5 96
t-17 125v-1zM114 298q0 -59 14 -107q0 37 18.5 54t44.5 17q20 0 35 -5.5t27 -15.5q14 -12 24.5 -29.5t19.5 -38.5t16.5 -45t16.5 -49q45 24 70 81.5t25 138.5q0 53 -11 96.5t-31.5 74t-49 47.5t-63.5 17t-63.5 -17t-49 -47.5t-31.5 -74t-11 -96.5zM129 188q17 -56 51 -88.5
t80 -35.5q-13 39 -25.5 69.5t-26.5 40.5q-14 9 -34.5 11t-44.5 2v1z" />
    <glyph glyph-name="R" unicode="R" horiz-adv-x="500" 
d="M59 540q0 14 -0.5 30t-2.5 24h7q46 1 94 5t83 4q48 0 88 -14t68 -39.5t43.5 -61.5t15.5 -80q0 -71 -46.5 -116t-124.5 -52v-3q6 0 18 -4.5t25.5 -13t26 -19.5t20.5 -24l76 -130q4 -6 9.5 -12.5t11.5 -12t10.5 -9.5t5.5 -5q-5 -9 -19.5 -10.5t-28.5 -1.5q-20 0 -40 5.5
t-27 17.5l-62 108q-17 30 -34 47.5t-35 26.5t-38 12t-42 3h-20v-157q0 -8 0.5 -17t1 -17t1 -14t0.5 -7q-2 -1 -15.5 -3t-28.5 -2t-28.5 2t-15.5 3q0 1 0.5 7t1 14t1 17t0.5 17v482zM141 284l78 -1q74 0 112.5 32t38.5 93q0 57 -41 91t-109 34q-20 0 -40 -2.5t-39 -7.5v-239z
" />
    <glyph glyph-name="S" unicode="S" horiz-adv-x="470" 
d="M50 102q12 -5 32 -12t42.5 -13t44 -10.5t36.5 -4.5q69 0 110.5 22.5t41.5 59.5q0 19 -13.5 35.5t-35 32t-49.5 30.5t-58 30q-30 16 -59.5 33.5t-53 37.5t-37.5 43.5t-14 51.5q0 38 13 69t37 53t58 34t75 12q21 0 44 -2.5t45 -6t40.5 -7.5t30.5 -7t12 -17q0 -9 -3 -16
l-15 -49q-12 5 -29.5 11.5t-36.5 12t-38 9.5t-34 4q-52 0 -83.5 -22t-31.5 -58q0 -17 9.5 -31t25.5 -27t37.5 -25.5t45.5 -24.5q34 -18 70 -37t65 -42t48 -52.5t19 -66.5q0 -35 -16 -64t-44.5 -49.5t-69.5 -32t-90 -11.5q-21 0 -46.5 2.5t-49.5 6t-45.5 8t-34.5 7.5t-13 16
q0 8 3 16l15 49v2z" />
    <glyph glyph-name="T" unicode="T" horiz-adv-x="480" 
d="M200 524h-117q-8 0 -17 -0.5t-17 -1t-14 -1t-7 -0.5q-1 2 -3 12t-2 25t2 23.5t8 12.5t18 4.5t32 0.5h316q20 0 32 -0.5t18 -4.5t8 -12.5t2 -23.5t-2 -25t-3 -12q-1 0 -7 0.5t-14 1t-17.5 1t-16.5 0.5l-115 -1q2 -1 2 -2t-0.5 -1.5t-3 -2t-2.5 -2.5l-1 -1q0 -1 2 -2v-454
q0 -8 0.5 -17t1 -17t1 -14t0.5 -7q-2 -1 -15.5 -3t-28.5 -2t-28.5 2t-15.5 3q0 1 0.5 7t1 14t1 17t0.5 17z" />
    <glyph glyph-name="U" unicode="U" horiz-adv-x="500" 
d="M451 200q0 -56 -10 -94.5t-33.5 -63.5t-62 -36t-95.5 -11t-95.5 11t-62 36t-33.5 63.5t-10 94.5v342q0 7 -0.5 16.5t-1 17.5t-1 14t-0.5 7q2 1 15.5 3t28.5 2t28.5 -2t15.5 -3q0 -1 -0.5 -7t-1 -14t-1 -17.5t-0.5 -16.5v-314q0 -52 4 -84t17 -49.5t36 -23.5t62 -6t62.5 6
t36 23.5t16.5 49.5t4 84v314q0 7 -0.5 16.5t-1 17.5t-1 14t-0.5 7q2 1 15.5 3t28.5 2t28.5 -2t15.5 -3q0 -1 -0.5 -7t-1 -14t-1 -17.5t-0.5 -16.5v-342z" />
    <glyph glyph-name="V" unicode="V" horiz-adv-x="560" 
d="M278 -5q-34 0 -59 16t-43.5 44t-32 65.5t-23.5 79.5l-83 342q-2 8 -4 17.5t-4 17.5l-4 20q2 1 15 3t28 2t28 -2t15 -3v-4q0 -8 1.5 -22.5t4.5 -28.5l79 -316q10 -41 18.5 -70.5t17.5 -48.5t20.5 -28t26.5 -9t26.5 9t20.5 28t17.5 48.5t18.5 70.5l79 316q3 12 4.5 27.5
t1.5 23.5v4q2 1 15 3t28 2t28 -2t15 -3l-4 -20q-2 -8 -4 -17.5t-4 -17.5l-83 -342q-10 -42 -23.5 -79.5t-32 -65.5t-43.5 -44t-59 -16h-2z" />
    <glyph glyph-name="W" unicode="W" horiz-adv-x="720" 
d="M49 541q0 7 -0.5 16.5t-1 17.5t-1 14t-0.5 7q2 1 15.5 3t28.5 2t28.5 -2t15.5 -3q0 -1 -0.5 -7t-1 -14t-1 -17.5t-0.5 -16.5v-314q0 -89 35 -123.5t94 -34.5q32 0 59 8v464q0 7 -0.5 16.5t-1 17.5t-1 14t-0.5 7q2 1 15.5 3t28.5 2t28.5 -2t15.5 -3q0 -1 -0.5 -7t-1 -14
t-1 -17.5t-0.5 -16.5v-447l3 -15q11 -4 16 -6t9 -2.5t10.5 -0.5h20.5q29 0 53 8t41 26.5t26 48.5t9 75v314q0 7 -0.5 16.5t-1 17.5t-1 14t-0.5 7q2 1 15.5 3t28.5 2t28.5 -2t15.5 -3q0 -1 -0.5 -7t-1 -14t-1 -17.5t-0.5 -16.5v-342q0 -44 -13.5 -81t-38.5 -65t-60.5 -43.5
t-78.5 -15.5q-28 0 -57.5 4.5t-62.5 7.5q-33 -3 -62.5 -7.5t-57.5 -4.5q-44 0 -79 15.5t-60 43.5t-38.5 65t-13.5 81v341z" />
    <glyph glyph-name="X" unicode="X" horiz-adv-x="520" 
d="M26 7q2 2 12 13.5t18 24.5l157 259l-150 248q-8 12 -19.5 25t-13.5 15q5 9 18 12t27 3q20 0 39 -6t26 -18l121 -213l121 213q7 12 26 18t39 6q14 0 27 -3t18 -12q-2 -2 -13.5 -15t-19.5 -25l-150 -248l157 -259q8 -13 18 -24.5t12 -13.5q-5 -9 -18 -11.5t-27 -2.5
q-20 0 -39 6t-26 18l-126 221l-126 -221q-7 -12 -26 -18t-39 -6q-14 0 -27 2.5t-18 11.5h2z" />
    <glyph glyph-name="Y" unicode="Y" horiz-adv-x="500" 
d="M209 215q-23 12 -45 35t-41.5 53t-35.5 65t-27 71l-31 103q-2 7 -5.5 17t-5.5 18q-4 10 -6 20q2 1 15 3t28 2t28 -2t15 -3v-2q0 -5 3 -22.5t8 -30.5l39 -116q13 -40 27.5 -65.5t28.5 -40t26 -20t21 -5.5t21 5.5t25.5 20t27.5 40t28 65.5l39 116q5 13 8 30.5t3 22.5v2
q2 1 15 3t28 2t28 -2t15 -3l-6 -20q-3 -8 -6 -18t-5 -17l-31 -103q-11 -36 -27 -71t-36 -65t-42 -53t-45 -35v-157q0 -8 0.5 -17t1 -17t1 -14t0.5 -7q-2 -1 -15.5 -3t-28.5 -2t-28.5 2t-15.5 3q0 1 0.5 7t1 14t1 17t0.5 17v157z" />
    <glyph glyph-name="Z" unicode="Z" horiz-adv-x="500" 
d="M311 490l23 33l-3 3q-11 -1 -15 -1h-19h-204q-8 0 -17 -0.5t-17 -1t-14 -1t-7 -0.5q-1 2 -3 9.5t-2 22.5t2 24.5t8 14t18 6t32 1.5h373v-29q-2 -2 -14 -16.5t-20 -27.5l-251 -422l-17 -28l4 -5l3 1q2 1 6 1.5t12 0.5h223q7 0 16.5 0.5t17.5 1t14 1t7 0.5q1 -2 3 -12
t2 -25t-2 -23.5t-8 -12.5t-18 -4.5t-32 -0.5h-328q-8 0 -17 -0.5t-17.5 -1t-15 -1t-7.5 -0.5v25z" />
    <glyph glyph-name="backslash" unicode="\" horiz-adv-x="440" 
d="M35 541q-18 31 -18 44q0 9 7 16t21 15q13 8 22.5 11t11.5 4q0 -1 2.5 -6.5t6.5 -13t8 -15.5t8 -14l301 -522q9 -16 13.5 -26t4.5 -18q0 -9 -7 -16t-21 -15q-13 -8 -22.5 -11t-11.5 -4q0 1 -2.5 6.5t-6.5 13t-8 15.5t-8 14z" />
    <glyph glyph-name="asciicircum" unicode="^" horiz-adv-x="280" 
d="M250 490q-1 0 -7 -4l-13.5 -9t-14.5 -9.5t-9 -5.5q-2 1 -8.5 8t-16 17t-20.5 23t-21 26q-10 -13 -21 -26t-20.5 -23t-16.5 -17l-8 -8q-2 1 -9 5.5t-14.5 9.5l-13.5 9t-7 4q2 3 12.5 20t22.5 36t22 35.5t11 19.5q2 1 14.5 1h27.5h27.5t14.5 -1q1 -3 11 -19.5t22 -35.5
t22.5 -36t12.5 -20z" />
    <glyph glyph-name="underscore" unicode="_" horiz-adv-x="400" 
d="M72 -180q-8 0 -17 -0.5t-17 -1t-14 -1t-7 -0.5q-1 2 -3 12t-2 25t2 24.5t8 14t18 6t32 1.5h256q7 0 16.5 0.5t17.5 1t14 1t7 0.5q1 -2 3 -12t2 -25t-2 -24.5t-8 -14t-18 -6t-32 -1.5h-256z" />
    <glyph glyph-name="grave" unicode="`" horiz-adv-x="220" 
d="M166 486q-1 0 -6.5 -2.5t-12.5 -5t-13.5 -4.5t-8.5 -3q-2 3 -13.5 17.5t-24 33t-23 38t-10.5 31.5q2 1 14 6.5t27 5.5h26t13 -1q1 -3 6 -20.5t10 -37.5t10 -38t6 -22v2z" />
    <glyph glyph-name="a" unicode="a" horiz-adv-x="440" 
d="M32 110q0 61 35.5 91.5t104.5 30.5l150 -3v9q0 29 -10 47.5t-26.5 29.5t-39.5 15.5t-48 4.5q-30 0 -60.5 -10t-54.5 -20l-23 77q5 2 20 6t35.5 7.5t46 6.5t51.5 3q87 0 136.5 -39t50.5 -126v-182q0 -14 0.5 -30t2.5 -24h-7q-24 0 -56 -1.5l-64 -3t-60.5 -3t-45.5 -1.5
q-69 0 -104.5 28t-35.5 87h2zM116 109q0 -45 75 -45q11 0 27 1t34 2.5t36 3.5t33 5v77l1 16h-132q-37 0 -55 -17.5t-18 -41.5z" />
    <glyph glyph-name="b" unicode="b" horiz-adv-x="445" 
d="M55 542q0 15 -1 33.5t-2 20.5q2 1 15 3.5t28 2.5t28 -2.5t15 -3.5q-1 -2 -2 -20.5t-1 -33.5v-146q26 4 52.5 6.5t47.5 2.5q43 0 77 -15.5t56.5 -43.5t34.5 -65.5t12 -80.5q0 -44 -15 -81t-41.5 -65t-63.5 -43.5t-80 -15.5q-23 0 -50.5 7t-52 20.5t-41 33t-16.5 43.5v443z
M135 98q33 -33 80 -33q25 0 46.5 10.5t36.5 28.5t23.5 42.5t8.5 53.5t-8.5 53.5t-23.5 42.5t-36.5 28.5t-46.5 10.5q-15 0 -24.5 -0.5t-17 -2t-15.5 -4t-19 -6.5l-4 -13v-211z" />
    <glyph glyph-name="c" unicode="c" horiz-adv-x="400" 
d="M30 200q0 43 12.5 80.5t35.5 65.5t56.5 43.5t77.5 15.5q41 0 79 -6t59 -12q12 -3 12 -17q0 -9 -3 -16l-15 -49q-24 10 -54.5 20t-60.5 10q-26 0 -46.5 -10.5t-35.5 -28.5t-23.5 -42.5t-8.5 -53.5t8 -53.5t23 -42.5t36 -28.5t47 -10.5q30 0 60.5 10t54.5 20l15 -49
q3 -8 3 -16q0 -14 -12 -17q-21 -6 -59 -12t-79 -6q-44 0 -77.5 15.5t-57 43.5t-35.5 65t-12 81z" />
    <glyph glyph-name="d" unicode="d" horiz-adv-x="450" 
d="M30 200q0 43 12 80.5t34.5 65.5t56 43.5t77.5 15.5q21 0 46.5 -3t53.5 -6v146q0 7 -0.5 16.5t-1 17.5t-1 14t-0.5 7q2 1 15 3t28 2t28 -2t15 -3q0 -1 -0.5 -7t-1 -14t-1 -17.5t-0.5 -16.5v-484q0 -14 0.5 -30t2.5 -24h-6q-46 -1 -94 -5t-83 -4q-44 0 -77 15.5t-56 43.5
t-35 65t-12 81zM115 200q0 -29 8.5 -53.5t23.5 -42.5t36 -28.5t47 -10.5q20 0 40.5 2.5t39.5 7.5v235l2 14q-12 4 -20.5 6.5t-17.5 3.5t-19 1h-25q-26 0 -47 -10.5t-36 -28.5t-23.5 -42.5t-8.5 -53.5z" />
    <glyph glyph-name="e" unicode="e" horiz-adv-x="460" 
d="M31 199q1 96 52 150.5t148 54.5t147.5 -54.5t51.5 -150.5v-1l-36 -28l-280 2q4 -24 16 -44t29 -34.5t37.5 -23t43.5 -8.5q27 0 57.5 10.5t54.5 21.5q6 3 11 3q12 0 19 -25l14 -46q-5 -2 -20.5 -7.5t-38 -10.5t-52 -9t-63.5 -4q-44 0 -79 15.5t-60.5 43.5t-39 65t-13.5 81
zM116 222l235 10q-5 46 -38.5 76t-81.5 30q-41 0 -73 -25.5t-41 -68.5z" />
    <glyph glyph-name="f" unicode="f" horiz-adv-x="350" 
d="M59 415q0 94 33.5 142t108.5 48q53 0 92.5 -7.5t50.5 -12.5l-23 -77q-24 10 -48.5 18.5t-54.5 8.5q-44 0 -61.5 -29t-17.5 -86v-30h160v-80q-26 1 -44.5 2.5t-35.5 2.5t-35.5 2t-44.5 3l1 -15v-247q0 -8 0.5 -17t1 -17t1 -14t0.5 -7q-2 -1 -15 -3t-28 -2t-28 2t-15 3
q0 1 0.5 7t1 14t1 17t0.5 17z" />
    <glyph glyph-name="g" unicode="g" horiz-adv-x="450" 
d="M28 200q0 43 12 80.5t34.5 65.5t56 43.5t77.5 15.5q35 0 83 -4t94 -5h6q-2 -8 -2.5 -24t-0.5 -30v-352q0 -93 -41.5 -141t-120.5 -48q-53 0 -93 7.5t-51 12.5l24 82q24 -10 49.5 -18.5t55.5 -8.5q54 0 76.5 25t22.5 85v26q-37 -17 -80 -17q-44 0 -80.5 15.5t-63 43.5
t-41.5 65t-15 81h-2zM114 199q0 -29 8.5 -53.5t23.5 -42.5t36 -28.5t47 -10.5q30 0 46 9.5t33 34.5q-2 0 -2 1t0.5 2l1.5 3l1.5 3t0.5 2t-2 1v205q-19 5 -39.5 7.5t-40.5 2.5q-26 0 -47 -10.5t-36 -28.5t-23.5 -42.5t-8.5 -53.5z" />
    <glyph glyph-name="h" unicode="h" horiz-adv-x="460" 
d="M61 540q0 15 -1 33.5t-2 20.5q2 1 15 3.5t28 2.5t28 -2.5t15 -3.5q-1 -2 -2 -20.5t-1 -33.5v-146q28 3 53.5 6t46.5 3q40 0 73.5 -12t57 -33.5t36.5 -52t13 -67.5v-182q0 -8 0.5 -17t1 -17t1 -14t0.5 -7q-2 -1 -15 -3t-28 -2t-28 2t-15 3q0 1 0.5 7t1 14t1 17t0.5 17v154
q0 60 -30.5 91.5t-89.5 31.5h-24t-18.5 -1t-17 -3.5t-20.5 -6.5q2 -1 2 -2v-1q-1 -1 -2.5 -3.5t-1.5 -3.5l-1 -1q0 -1 2 -2v-251q0 -8 0.5 -17t1 -17t1 -14t0.5 -7q-2 -1 -15 -3t-28 -2t-28 2t-15 3q0 1 0.5 7t1 14t1 17t0.5 17z" />
    <glyph glyph-name="i" unicode="i" horiz-adv-x="200" 
d="M99 498q-15 0 -25 2t-12 3q-1 2 -3 12t-2 25t2 25t3 12q2 1 12 3t25 2t25 -2t12 -3q1 -2 3 -12t2 -25t-2 -25t-3 -12q-2 -1 -12 -3t-25 -2zM143 396q-1 -2 -2 -20.5t-1 -33.5v-248q0 -23 4.5 -43t18.5 -40q-2 -2 -12 -9t-26 -7q-29 0 -47 21t-18 64v262q0 15 -1 33.5
t-2 20.5q3 1 15.5 3.5t27.5 2.5t28 -2.5t15 -3.5z" />
    <glyph glyph-name="j" unicode="j" horiz-adv-x="200" 
d="M99 498q-15 0 -25 2t-12 3q-1 2 -3 12t-2 25t2 25t3 12q2 1 12 3t25 2t25 -2t12 -3q1 -2 3 -12t2 -25t-2 -25t-3 -12q-2 -1 -12 -3t-25 -2zM60 342q0 15 -1 33.5t-2 20.5q2 1 15 3.5t28 2.5t28 -2.5t15 -3.5q-1 -2 -2 -20.5t-1 -33.5v-457q0 -43 -18 -64t-47 -21
q-16 0 -29 8t-15 10q14 20 21.5 41.5t7.5 44.5v438z" />
    <glyph glyph-name="k" unicode="k" horiz-adv-x="460" 
d="M59 540q0 15 -1 33.5t-2 20.5q2 1 15 3.5t28 2.5t28 -2.5t15 -3.5q-1 -2 -2 -20.5t-1 -33.5v-307h64l100 150q8 11 26.5 15.5t38.5 4.5q14 0 28.5 -2t19.5 -11q-1 -1 -5.5 -5t-10 -10t-12 -12.5t-10.5 -12.5l-105 -150l131 -155q10 -11 21.5 -24t13.5 -15
q-5 -9 -19.5 -10.5t-28.5 -1.5q-20 0 -38 4.5t-27 15.5l-127 157l-60 1l1 -18v-96q0 -8 0.5 -17t1 -17t1 -14t0.5 -7q-2 -1 -15 -3t-28 -2t-28 2t-15 3q0 1 0.5 7t1 14t1 17t0.5 17z" />
    <glyph glyph-name="l" unicode="l" horiz-adv-x="200" 
d="M60 542q0 15 -1 33.5t-2 20.5q2 1 15 3.5t28 2.5t28 -2.5t15 -3.5q-1 -2 -2 -20.5t-1 -33.5v-487q0 -8 0.5 -17t1 -17t1 -14t0.5 -7q-2 -1 -12 -3t-25 -2q-23 0 -34.5 15.5t-11.5 54.5v477z" />
    <glyph glyph-name="m" unicode="m" horiz-adv-x="650" 
d="M60 340q0 8 -0.5 17t-1.5 17q-1 10 -1 20h7q46 0 87.5 2t68.5 2h210q40 0 73.5 -11.5t57 -32.5t36.5 -50.5t13 -65.5v-182q0 -8 0.5 -17t1 -17t1 -14t0.5 -7q-2 -1 -15 -3t-28 -2t-28 2t-15 3q0 1 0.5 7t1 14t1 17t0.5 17v154q0 55 -30.5 84t-89.5 29q-6 0 -11 -1t-27 -8
l2 -1q0 -1 -0.5 -1.5t-2.5 -1.5l-2 -1l-1 -1q0 -1 2 -2v-249q0 -8 0.5 -17t1 -17t1 -14t0.5 -7q-2 -1 -15 -3t-28 -2t-28 2t-15 3q0 1 0.5 7t1 14t1 17t0.5 17v267h-90h-17t-11.5 -1t-12 -3t-17.5 -5l2 -1q0 -1 -0.5 -1.5t-2.5 -1.5l-2 -1l-1 -1q0 -1 2 -2v-249
q0 -8 0.5 -17t1 -17t1 -14t0.5 -7q-2 -1 -15 -3t-28 -2t-28 2t-15 3q0 1 0.5 7t1 14t1 17t0.5 17v282z" />
    <glyph glyph-name="n" unicode="n" horiz-adv-x="460" 
d="M61 340q0 15 -1 33t-2 22h6q46 1 93.5 5t82.5 4q40 0 73.5 -12t57 -33.5t36.5 -52t13 -67.5v-182q0 -8 0.5 -17t1 -17t1 -14t0.5 -7q-2 -1 -15 -3t-28 -2t-28 2t-15 3q0 1 0.5 7t1 14t1 17t0.5 17v154q0 60 -30.5 91.5t-89.5 31.5q-14 0 -23 -0.5t-16.5 -1.5t-15 -3.5
l-19.5 -6.5q2 -1 2 -2l-1 -1q-1 -1 -4 -3t-4 -3l-1 -1q0 -1 2 -2v-252q0 -8 0.5 -17t1 -17t1 -14t0.5 -7q-2 -1 -15 -3t-28 -2t-28 2t-15 3q0 1 0.5 7t1 14t1 17t0.5 17z" />
    <glyph glyph-name="o" unicode="o" horiz-adv-x="460" 
d="M115 200q0 -61 31.5 -98t83.5 -37t83.5 37t31.5 98t-31.5 98t-83.5 37t-83.5 -37t-31.5 -98zM30 200q0 46 14.5 84t40.5 65t63 41.5t82 14.5t82 -14.5t63 -41.5t40.5 -65t14.5 -84t-14.5 -84t-40.5 -65t-63 -41.5t-82 -14.5t-82 14.5t-63 41.5t-40.5 65t-14.5 84z" />
    <glyph glyph-name="p" unicode="p" horiz-adv-x="450" 
d="M61 341q0 14 -0.5 30t-2.5 24h6q46 1 93.5 5t82.5 4q43 0 77 -15.5t56.5 -43.5t34.5 -65.5t12 -80.5q0 -44 -15 -81t-41.5 -65t-63.5 -43.5t-80 -15.5t-80 17v-151q0 -8 0.5 -17t1 -17t1 -14t0.5 -7q-2 -1 -15 -3t-28 -2t-28 2t-15 3q0 1 0.5 7t1 14t1 17t0.5 17v482z
M144 106q16 -25 31.5 -33.5t45.5 -8.5q25 0 46.5 10.5t36.5 28.5t23.5 42.5t8.5 53.5t-8.5 53.5t-23.5 42.5t-36.5 28.5t-46.5 10.5q-20 0 -40.5 -2.5t-39.5 -7.5v-205z" />
    <glyph glyph-name="q" unicode="q" horiz-adv-x="450" 
d="M30 201q0 43 12 81.5t34.5 67t56 45t77.5 16.5q35 0 82.5 -6.5t93.5 -7.5h6q-2 -8 -2.5 -24t-0.5 -30v-482q0 -8 0.5 -17t1 -17t1 -14t0.5 -7q-2 -1 -12 -3t-25 -2t-24 2t-13.5 8t-6 18t-1.5 32v146q-37 -17 -80 -17q-44 0 -80.5 16.5t-63 45t-41.5 66.5t-15 82v1z
M116 200q0 -29 8.5 -53.5t23.5 -42.5t36 -28.5t47 -10.5q30 0 47.5 13t34.5 38l-3 1q0 1 1.5 1.5t1.5 1.5l-3 1v205q-19 5 -39.5 7.5t-40.5 2.5q-26 0 -47 -10.5t-36 -28.5t-23.5 -42.5t-8.5 -53.5z" />
    <glyph glyph-name="r" unicode="r" horiz-adv-x="310" 
d="M60 337q0 14 -0.5 30t-2.5 24h3q47 0 93 4.5t81 4.5h50v-98l-2 -2q-11 9 -32 14.5t-36 5.5q-13 0 -22 -0.5t-16.5 -1.5t-15.5 -3.5t-19 -5.5l-1 -14v-237q0 -8 0.5 -17t1 -17t1 -14t0.5 -7q-2 -1 -15 -3t-28 -2t-28 2t-15 3q0 1 0.5 7t1 14t1 17t0.5 17v279z" />
    <glyph glyph-name="s" unicode="s" horiz-adv-x="420" 
d="M45 274q0 59 42 94.5t111 35.5q42 0 79.5 -6t58.5 -11q12 -3 12 -17q0 -9 -3 -16l-15 -49q-24 10 -54.5 20.5t-60.5 10.5q-38 0 -61.5 -15t-23.5 -37q0 -11 8.5 -18.5t22.5 -12.5t32.5 -9.5t39.5 -8.5q27 -6 55 -13t50.5 -19.5t37 -31.5t14.5 -49q0 -29 -14.5 -52.5
t-40 -40t-60 -25.5t-75.5 -9q-26 0 -54.5 2.5t-53 6.5t-42.5 8t-23 6l23 77q12 -5 29 -11t35.5 -11.5t37 -9t33.5 -3.5q51 0 86.5 13.5t35.5 38.5q0 12 -11.5 20.5t-30 15t-42.5 12t-49 10.5q-24 5 -47.5 14t-41.5 22t-29 30t-11 39v-1z" />
    <glyph glyph-name="t" unicode="t" horiz-adv-x="370" 
d="M69 329l-42 1v61l42 3v94q0 7 -0.5 16.5t-1 17.5t-1 14t-0.5 7q2 1 14.5 4t27.5 6.5t28 6.5t16 3q0 -1 -0.5 -7t-1 -14t-1 -17.5t-0.5 -16.5v-111l160 6l-1 -80l-159 1l-1 -12v-143q0 -57 15 -81t44 -24q30 0 55.5 8.5t49.5 18.5l23 -77q-11 -5 -50.5 -12.5t-92.5 -7.5
q-60 0 -91 48.5t-31 142.5z" />
    <glyph glyph-name="u" unicode="u" horiz-adv-x="450" 
d="M49 342q0 7 -0.5 16.5t-1 17.5t-1 14t-0.5 7q2 1 15 3t28 2t28 -2t15 -3q0 -1 -0.5 -7t-1 -14t-1 -17.5t-0.5 -16.5v-154q0 -60 25.5 -91.5t74.5 -31.5q14 0 23.5 1.5t18 3.5t17 5.5t20.5 7.5l1 6v253q0 7 -0.5 16.5t-1 17.5t-1 14t-0.5 7q2 1 15 3t28 2t28 -2t15 -3
q0 -1 -0.5 -7t-1 -14t-1 -17.5t-0.5 -16.5v-284q0 -7 0.5 -16t1 -17t1 -14t0.5 -7h-6q-46 -1 -93.5 -5t-82.5 -4q-36 0 -65.5 12.5t-50.5 35.5t-32.5 55.5t-11.5 71.5z" />
    <glyph glyph-name="v" unicode="v" horiz-adv-x="460" 
d="M228 -5q-34 0 -59 16t-43.5 44t-31.5 65.5t-23 79.5l-33 142q-2 7 -4 17t-4 18q-3 10 -4 20q2 1 15 3t28 2t28 -2t15 -3v-3q0 -8 1.5 -24t4.5 -28l29 -116q20 -83 35.5 -122t47.5 -39t47.5 39t35.5 122l29 116q3 13 4.5 28.5t1.5 23.5v3q2 1 15 3t28 2t28 -2t15 -3
l-4 -20q-2 -8 -4 -17.5t-4 -17.5l-33 -142q-10 -42 -23.5 -79.5t-33 -65.5t-45 -44t-59.5 -16z" />
    <glyph glyph-name="w" unicode="w" horiz-adv-x="640" 
d="M42 341q0 7 -0.5 16.5t-1 17.5t-1 14t-0.5 7q2 1 15 3t28 2t28 -2t15 -3q0 -1 -0.5 -7t-1 -14t-1 -17.5t-0.5 -16.5v-144q0 -45 8 -71t23 -40t37.5 -18t51.5 -4q15 0 23.5 1.5t15.5 4.5v271q0 7 -0.5 16.5t-1 17.5t-1 14t-0.5 7q2 1 15 3t28 2t28 -2t15 -3q0 -1 -0.5 -7
t-1 -14t-1 -17.5t-0.5 -16.5v-252l2 -13q10 -4 12 -6.5t3 -3.5t4.5 -1h17.5q29 0 51.5 4t37.5 18t23 40t8 71v144q0 7 -0.5 16.5t-1 17.5t-1 14t-0.5 7q2 1 15 3t28 2t28 -2t15 -3q0 -1 -0.5 -7t-1 -14t-1 -17.5t-0.5 -16.5v-162q0 -88 -46 -136.5t-134 -48.5
q-27 0 -49.5 4.5t-50.5 7.5q-28 -3 -50.5 -7.5t-49.5 -4.5q-88 0 -134 48.5t-46 136.5z" />
    <glyph glyph-name="x" unicode="x" horiz-adv-x="460" 
d="M21 7l14.5 14.5t21.5 24.5l123 158l-116 149q-4 6 -10 12.5t-12 12.5t-10.5 10t-5.5 5q5 9 19.5 12t28.5 3q20 0 38.5 -6.5t26.5 -17.5l91 -125l91 125q8 11 26.5 17.5t38.5 6.5q14 0 28.5 -3t19.5 -12q-1 -1 -5.5 -5t-10.5 -10t-12 -12.5t-10 -12.5l-116 -149l123 -158
q9 -12 21.5 -24.5l14.5 -14.5q-5 -9 -19.5 -11.5t-28.5 -2.5q-20 0 -38.5 6.5t-26.5 17.5l-96 131l-96 -131q-8 -11 -26.5 -17.5t-38.5 -6.5q-14 0 -28.5 2.5t-19.5 11.5z" />
    <glyph glyph-name="y" unicode="y" horiz-adv-x="460" 
d="M223 10q-34 0 -60 13.5t-46 38.5t-33.5 60t-21.5 78l-28 142q-2 8 -4 17.5t-4 17.5q-3 10 -4 20q2 1 15 3t28 2t28 -2t15 -3v-4q0 -7 1.5 -22.5t4.5 -28.5l24 -116q9 -42 18 -69.5t19.5 -44t23.5 -23t29 -6.5q13 0 20 0.5t12.5 2t11 4t14.5 5.5l6 9l41 239q2 12 3 26.5
t1 22.5v5q2 1 15.5 3t28.5 2t28 -2t15 -3l-4 -20q-2 -8 -3.5 -17.5t-2.5 -17.5l-60 -352q-16 -92 -53 -141t-111 -49q-53 0 -93 7.5t-51 12.5l23 77q24 -10 50 -18.5t56 -8.5q44 0 67.5 32.5t33.5 88.5l4 26q-11 -3 -26 -5t-26 -2h-5z" />
    <glyph glyph-name="z" unicode="z" horiz-adv-x="420" 
d="M238 304l27 23l-1 1q-21 -3 -49 -3h-123q-8 0 -17 -0.5t-17 -1t-14 -1t-7 -0.5q-1 2 -3 9.5t-2 22.5t2 24.5t8 14t18 6t32 1.5h293v-29q-1 -1 -5 -5.5t-9 -11.5t-10.5 -14t-9.5 -13l-176 -230l-14 -23l2 -2q2 0 6 1q8 2 21 2h142q7 0 16.5 0.5t17.5 1t14 1t7 0.5
q1 -2 3 -12t2 -25t-2 -23.5t-8 -12.5t-18 -4.5t-32 -0.5h-248q-8 0 -17 -0.5t-17.5 -1t-15 -1t-7.5 -0.5v25z" />
    <glyph glyph-name="bar" unicode="|" horiz-adv-x="200" 
d="M140 -62q0 -8 0.5 -17t1 -17t1 -14t0.5 -7q-2 -1 -15 -3t-28 -2t-28 2t-15 3q0 1 0.5 7t1 14t1 17t0.5 17v724q0 15 -1 33.5t-2 20.5q2 1 15 3.5t28 2.5t28 -2.5t15 -3.5q-1 -2 -2 -20.5t-1 -33.5v-724z" />
    <glyph glyph-name="asciitilde" unicode="~" horiz-adv-x="400" 
d="M360 215q0 -29 -21 -49.5t-64 -20.5q-26 0 -45 6t-35.5 13.5t-33 14t-37.5 6.5q-17 0 -31 -8.5t-35 -20.5q-2 2 -10 15t-8 29q0 29 21 49.5t64 20.5q26 0 44.5 -6.5t35 -14t33.5 -13.5t38 -6q17 0 31 8.5t35 19.5q2 -2 10 -15t8 -29v1z" />
    <glyph glyph-name="uni0660" unicode="&#x660;" horiz-adv-x="525" 
d="M294 232q-13 13 -32 13q-18 0 -31 -13q-14 -12 -14 -32q0 -18 14 -32q6 -5 14 -9t17 -4q10 0 18 4t14 9q13 15 13 32q0 19 -13 32zM262 322q26 0 47.5 -9.5t38.5 -26.5t26.5 -38.5t9.5 -47.5q0 -25 -9.5 -46.5t-26.5 -38.5t-38.5 -26.5t-47.5 -9.5q-25 0 -47 9.5
t-39 26.5q-35 35 -35 85q0 26 9 47.5t26 38.5t39 26.5t47 9.5z" />
    <glyph glyph-name="uni0661" unicode="&#x661;" horiz-adv-x="525" 
d="M241 1v272q0 17 -2.5 36t-7.5 38q-5 23 -12 42.5t-13 33.5l68 32q8 -16 16.5 -40t14.5 -51q5 -23 8.5 -46t3.5 -45v-272h-76z" />
    <glyph glyph-name="uni0662" unicode="&#x662;" horiz-adv-x="525" 
d="M240 324q9 -11 18 -16q7 -4 15 -6.5t17 -2.5q27 0 44 19q18 18 18 44l1 63h76v-63q0 -29 -11 -54t-30 -44t-44 -30t-54 -11q-22 0 -46 8v-230h-76v272q0 17 -2.5 36t-7.5 38q-5 23 -12 42.5t-13 33.5l69 32q8 -16 16 -40t14 -51l4 -20z" />
    <glyph glyph-name="uni0663" unicode="&#x663;" horiz-adv-x="525" 
d="M326 304q12 -5 22 -5q26 0 45 19q18 18 18 44v63h76v-63q0 -29 -10.5 -54t-29.5 -44t-44.5 -30t-54.5 -11q-37 0 -70 19q-2 1 -4 3q-35 -22 -75 -22q-22 0 -46 8v-230h-76v272q0 17 -2.5 36t-7.5 38q-11 47 -25 76l69 32q8 -16 16 -40t15 -51l4 -20l4 -20q7 -11 18 -16
q14 -9 31 -9q27 0 44 19q19 17 19 44v63h77l-1 -63h1q0 -30 -13 -58z" />
    <glyph glyph-name="uni0664" unicode="&#x664;" horiz-adv-x="525" 
d="M205 316q-1 3 -1 6.5v6.5q0 29 11 54t30 44q39 41 98 41h63v-76h-63q-27 0 -44 -19q-19 -17 -19 -44q0 -9 2.5 -17t6.5 -15q3 -6 8 -10.5t10 -8.5q32 1 62.5 12.5t55.5 27.5l42 -63q-37 -26 -81 -39.5t-83 -13.5q-12 0 -25 1q-20 2 -39.5 7t-37.5 15v-224h-77v272
q0 17 -2.5 36t-7.5 38q-5 23 -12 42.5t-13 33.5l69 32q8 -16 16 -40t15 -51q2 -10 3.5 -19t3.5 -19q2 -2 4.5 -5t4.5 -5z" />
    <glyph glyph-name="uni0665" unicode="&#x665;" horiz-adv-x="525" 
d="M244 327l-74 -91q-21 -27 -34.5 -54.5t-16.5 -52.5v-9q0 -15 5.5 -30t19.5 -28q17 -15 36 -15h2q22 0 43 20q3 2 12 11.5t20 20.5q10 9 17.5 17t9.5 10l58 -49q-2 -3 -7.5 -8t-11.5 -12q17 -8 29 -8h3q22 2 36 19q1 1 1 2q14 15 16 27.5t2 19.5q0 11 -3 22q-12 51 -65 99
zM266 2q-20 -16 -40.5 -23t-40.5 -8h-9q-21 0 -42.5 8.5t-39.5 25.5q-30 27 -40.5 56.5t-10.5 56.5q0 9 1 18q3 37 20.5 74.5t46.5 72.5l77 96l-6 5l52 56l159 -146q33 -31 56.5 -65.5t31.5 -70.5q5 -21 5 -41q0 -15 -4.5 -40t-30.5 -56q-1 -3 -4 -4q-17 -19 -39 -30.5
t-49 -13.5h-6q-19 0 -40.5 6t-46.5 23z" />
    <glyph glyph-name="uni0666" unicode="&#x666;" horiz-adv-x="525" 
d="M249 200q-22 5 -41.5 15.5t-35.5 25.5q-20 21 -32.5 48.5t-12.5 59.5t12.5 59.5t32.5 48.5q21 20 48.5 32t59.5 12v-76q-31 0 -54 -23q-10 -10 -16 -23.5t-6 -29.5t6 -29.5t16 -24.5q11 -10 24.5 -16t29.5 -6q13 0 28 5q12 5 19 12q10 8 20 17t21 19l49 -59
q-29 -24 -50 -45t-38 -42.5t-31 -44t-30 -48.5q-14 -22 -28.5 -46t-32.5 -51l-64 43q19 27 33.5 50t26.5 43t23 38.5t23 35.5z" />
    <glyph glyph-name="uni0667" unicode="&#x667;" horiz-adv-x="525" 
d="M260 227q13 35 30.5 70l38.5 77q11 20 22 42t22 47l69 -34q-12 -24 -23 -46.5t-22 -42.5q-23 -46 -41.5 -84.5t-31.5 -76t-19.5 -78.5t-6.5 -92h-76q0 51 -7 92t-19.5 78.5t-31 76t-41.5 84.5q-11 20 -22 42.5t-23 46.5l69 34q11 -25 22 -47t22 -42q21 -42 38 -77t31 -70
z" />
    <glyph glyph-name="uni0668" unicode="&#x668;" horiz-adv-x="525" 
d="M293 465q0 -51 6.5 -92t19.5 -78.5t31 -76t42 -84.5q21 -41 45 -90l-69 -33q-12 25 -23 47l-21 42q-21 42 -38 77t-31 70q-14 -35 -31 -70t-38 -77q-11 -20 -21.5 -42t-22.5 -47l-69 33q24 49 45 90q23 46 41.5 84.5t31 76t19.5 78.5t7 92h76z" />
    <glyph glyph-name="uni0669" unicode="&#x669;" horiz-adv-x="525" 
d="M271 11v225q-24 -12 -53 -12q-51 0 -86 35t-35 86q0 26 9 47.5t26 38.5q35 35 86 35q52 0 85 -35q14 -14 23.5 -32t11.5 -39q2 -11 3.5 -21t3.5 -19q1 -10 1.5 -19.5t0.5 -17.5v-272h-76zM249 377q-13 13 -31 13q-19 0 -32 -13t-13 -32q0 -18 13 -31q12 -14 32 -14
q19 0 31 14q14 14 14 31q0 10 -4 18t-10 14z" />
  </font>
</defs>
</svg>
